<svg width="32" height="32" viewBox="0 0 32 32" fill="none" xmlns="http://www.w3.org/2000/svg">
<rect width="32" height="32" rx="8" fill="#F07F13"/>
<path d="M21.8186 17.2784C21.5391 16.6798 20.7507 16.1758 19.7027 17.0264C18.2755 18.2235 16 18.2235 16 18.2235C16 18.2235 13.7245 18.2235 12.2973 17.0264C11.2493 16.1758 10.4609 16.6798 10.1814 17.2784C9.68239 18.3285 10.2413 18.8431 11.5088 19.6937C12.5967 20.4288 14.0838 20.7018 15.0419 20.8069L14.2434 21.647C13.1057 22.8336 12.0078 23.9782 11.2593 24.7763C10.8102 25.2594 10.8102 26.026 11.2593 26.4776L11.399 26.6456C11.8481 27.1181 12.5867 27.1181 13.0358 26.6456L16 23.5162C17.1477 24.7028 18.2356 25.8475 18.9941 26.6456C19.4432 27.1181 20.1718 27.1181 20.6309 26.6456L20.7607 26.4776C21.2198 26.026 21.2198 25.2594 20.7607 24.7763L17.7865 21.647L16.998 20.7963C17.9462 20.7018 19.4133 20.4183 20.4912 19.6937C21.7587 18.8431 22.3176 18.3285 21.8186 17.2784ZM16 8.69884C17.3773 8.69884 18.4951 9.87498 18.4951 11.3137C18.4951 12.7628 17.3773 13.9285 16 13.9285C14.6227 13.9285 13.5049 12.7628 13.5049 11.3137C13.5049 9.87498 14.6227 8.69884 16 8.69884ZM16 16.6273C18.7945 16.6273 21.0501 14.254 21.0501 11.3137C21.0501 9.90439 20.518 8.55284 19.571 7.55634C18.6239 6.55983 17.3394 6 16 6C14.6606 6 13.3761 6.55983 12.429 7.55634C11.482 8.55284 10.9499 9.90439 10.9499 11.3137C10.9499 14.254 13.2055 16.6273 16 16.6273Z" fill="white"/>
</svg>
