<svg width="32" height="32" viewBox="0 0 32 32" fill="none" xmlns="http://www.w3.org/2000/svg">
<rect width="32" height="32" rx="8" fill="#24A1DE"/>
<path d="M23.3317 10.232C23.0917 12.76 22.0517 18.904 21.5237 21.736C21.2997 22.936 20.8517 23.336 20.4357 23.384C19.5077 23.464 18.8037 22.776 17.9077 22.184C16.4997 21.256 15.6997 20.68 14.3397 19.784C12.7557 18.744 13.7797 18.168 14.6917 17.24C14.9317 17 19.0277 13.272 19.1077 12.936C19.1188 12.8851 19.1173 12.8323 19.1033 12.7821C19.0894 12.7319 19.0634 12.6859 19.0277 12.648C18.9317 12.568 18.8037 12.6 18.6917 12.616C18.5477 12.648 16.3077 14.136 11.9397 17.08C11.2997 17.512 10.7237 17.736 10.2117 17.72C9.63566 17.704 8.54766 17.4 7.73166 17.128C6.72366 16.808 5.93966 16.632 6.00366 16.072C6.03566 15.784 6.43566 15.496 7.18766 15.192C11.8597 13.16 14.9637 11.816 16.5157 11.176C20.9637 9.32 21.8757 9 22.4837 9C22.6117 9 22.9157 9.032 23.1077 9.192C23.2677 9.32 23.3157 9.496 23.3317 9.624C23.3157 9.72 23.3477 10.008 23.3317 10.232Z" fill="white"/>
</svg>
