<svg width="32" height="32" viewBox="0 0 32 32" fill="none" xmlns="http://www.w3.org/2000/svg">
<rect width="32" height="32" rx="8" fill="#40C351"/>
<path d="M22.3769 9.61905C21.5476 8.78558 20.5599 8.12475 19.4712 7.6751C18.3826 7.22544 17.2149 6.99597 16.0362 7.00005C11.0975 7.00005 7.07236 11.005 7.07236 15.919C7.07236 17.494 7.48844 19.024 8.26633 20.374L7 25L11.7487 23.758C13.0603 24.469 14.5347 24.847 16.0362 24.847C20.9749 24.847 25 20.842 25 15.928C25 13.543 24.0683 11.302 22.3769 9.61905ZM16.0362 23.335C14.6975 23.335 13.3859 22.975 12.2372 22.3L11.9658 22.138L9.14372 22.876L9.89447 20.14L9.71357 19.861C8.96982 18.6793 8.5749 17.3133 8.57387 15.919C8.57387 11.833 11.9206 8.50305 16.0271 8.50305C18.0171 8.50305 19.8894 9.27705 21.2915 10.681C21.9857 11.3686 22.5358 12.1864 22.91 13.0871C23.2842 13.9878 23.475 14.9534 23.4714 15.928C23.4894 20.014 20.1427 23.335 16.0362 23.335ZM20.1246 17.791C19.8985 17.683 18.795 17.143 18.596 17.062C18.3879 16.99 18.2432 16.954 18.0894 17.17C17.9357 17.395 17.5106 17.899 17.3839 18.043C17.2573 18.196 17.1216 18.214 16.8955 18.097C16.6693 17.989 15.9457 17.746 15.0955 16.99C14.4261 16.396 13.9829 15.667 13.8472 15.442C13.7206 15.217 13.8291 15.1 13.9467 14.983C14.0462 14.884 14.1729 14.722 14.2814 14.596C14.3899 14.47 14.4352 14.371 14.5075 14.227C14.5799 14.074 14.5437 13.948 14.4894 13.84C14.4352 13.732 13.9829 12.634 13.802 12.184C13.6211 11.752 13.4312 11.806 13.2955 11.797H12.8613C12.7075 11.797 12.4724 11.851 12.2643 12.076C12.0653 12.301 11.4864 12.841 11.4864 13.939C11.4864 15.037 12.2915 16.099 12.4 16.243C12.5085 16.396 13.9829 18.646 16.2261 19.609C16.7598 19.843 17.1759 19.978 17.5015 20.077C18.0352 20.248 18.5236 20.221 18.9126 20.167C19.3467 20.104 20.2422 19.627 20.4231 19.105C20.6131 18.583 20.6131 18.142 20.5497 18.043C20.4864 17.944 20.3508 17.899 20.1246 17.791Z" fill="white"/>
</svg>
