<svg width="156" height="24" viewBox="0 0 156 24" fill="none" xmlns="http://www.w3.org/2000/svg">
<path fill-rule="evenodd" clip-rule="evenodd" d="M9.69973 0.410772L0.523505 8.70075C0.359032 8.84952 0.227519 9.03086 0.137376 9.23318C0.0472329 9.4355 0.000443894 9.65435 0 9.87572V22.4139C0 23.2925 0.715854 24 1.59233 24H20.1123C20.9868 24 21.7007 23.2915 21.7007 22.4139V9.87572C21.7007 9.42609 21.5084 8.99128 21.1683 8.69087L11.8255 0.399907C11.532 0.140415 11.1528 -0.00198509 10.7605 2.09088e-05C10.3682 0.00202691 9.99048 0.148291 9.69973 0.410772ZM10.7745 3.20638C12.4293 4.67583 18.0956 9.70179 18.9771 10.4835V21.3358H2.72659V10.4756C3.58919 9.69587 9.1326 4.68769 10.7745 3.20638Z" fill="black"/>
<path fill-rule="evenodd" clip-rule="evenodd" d="M10.7805 9.19974C10.022 9.88258 7.46691 12.19 7.07031 12.5507V17.5549H14.559V12.5556C14.1525 12.193 11.5419 9.87764 10.7805 9.19974ZM102.689 8.60287V11.5892H108.642V22.7993H111.905V11.5892H117.708V8.60287H102.689ZM152.806 8.60287V18.6835L143.871 9.48632C143.081 8.65228 142.156 8.31036 141.126 8.47243C140.195 8.6167 139.589 9.37564 139.589 10.4063V22.7993H142.786V12.7167L151.576 21.7716C152.488 22.7301 153.315 23.0948 154.264 22.9614C155.82 22.738 156.001 21.5976 156.001 20.7567V8.60287H152.806ZM119.275 15.6823C119.275 21.8378 122.385 23.0384 127.981 23.0384C133.576 23.0384 136.686 21.8368 136.686 15.6823C136.686 9.52782 133.575 8.32617 127.981 8.32617C122.385 8.32617 119.275 9.52782 119.275 15.6823ZM133.241 15.6823C133.241 19.7853 131.439 19.977 127.981 19.977C124.523 19.977 122.721 19.7863 122.721 15.6823C122.721 11.5803 124.522 11.3896 127.981 11.3896C131.439 11.3906 133.241 11.5803 133.241 15.6823Z" fill="black"/>
<path d="M77.4141 22.7963H80.6533V8.60083H77.4141V22.7963Z" fill="black"/>
<path fill-rule="evenodd" clip-rule="evenodd" d="M70.3444 17.4068C72.379 16.9048 73.5331 15.3613 73.5331 13.2544C73.5331 10.3827 71.6314 8.60101 68.5717 8.60101H58.3841V22.7955H61.5807V17.7309H66.7572L70.3435 22.7955H74.0943L70.3444 17.4068ZM61.5807 11.5498H68.1255C70.052 11.5498 70.284 12.4204 70.284 13.2445C70.284 14.0736 70.0341 14.9521 68.1344 14.9521H61.5807V11.5498ZM93.9567 13.874H91.0943C88.6424 13.874 88.1407 13.4115 88.1407 12.539C88.1407 11.4737 89.7826 11.0626 92.0987 11.0626C94.1362 11.0626 96.0587 11.4045 98.2876 12.4451L99.9979 10.0438C97.5697 8.58025 95.1584 8.04663 92.1225 8.04663C87.4783 8.04663 84.7062 9.78387 84.7062 12.6951C84.7062 15.8652 87.3376 16.9473 90.7284 16.9147H93.8794C96.9778 16.9147 97.3903 17.2685 97.3903 18.4484C97.3903 19.6135 95.676 20.3378 92.9167 20.3378C90.4885 20.3378 87.9919 19.8605 85.8017 18.4019C85.8017 18.4 84.0647 20.8616 84.0647 20.8616C86.3927 22.7055 89.2581 23.3419 92.8968 23.3419C97.9703 23.3419 100.883 21.5029 100.883 18.2962C100.884 15.3474 98.5543 13.874 93.9567 13.874ZM46.3792 8.18004C45.7169 8.18004 45.0684 8.48341 44.7561 8.98739L36.3047 22.8043H40.107L41.6548 20.2084H51.1036L52.6513 22.8043H56.4537L48.0033 8.98739C47.6899 8.48341 47.0405 8.18004 46.3792 8.18004ZM46.3792 12.2791C46.4922 12.4718 48.0231 15.0411 49.545 17.5936H43.2124C43.2124 17.5936 46.2662 12.4718 46.3792 12.2791Z" fill="black"/>
</svg>
