<svg width="79" height="24" viewBox="0 0 79 24" fill="none" xmlns="http://www.w3.org/2000/svg">
<path fill-rule="evenodd" clip-rule="evenodd" d="M8.28864 19.3321H12.3607C13.8892 19.3321 14.6192 18.2387 14.6192 16.7599C14.6192 15.5541 14.1478 14.0126 11.8931 14.0126H8.28856L8.28864 19.3321ZM8.28864 9.34164H12.173C13.1037 9.34164 14.1972 8.70032 14.1972 7.0061C14.1972 5.38917 13.4434 4.67056 11.8931 4.67056H8.28864V9.34164ZM0 0H12.9026C17.7789 0 20.2426 1.9525 20.2426 6.24276C20.2426 10.7351 17.3709 11.2239 16.4557 11.5148C17.2617 11.8068 20.8358 12.8722 20.8358 17.5265C20.8358 21.8063 17.3475 23.9991 14.1288 23.9991H2.17517V4.30098C2.17517 0.594749 0.486602 0.191736 0 0Z" fill="#005B99"/>
<path fill-rule="evenodd" clip-rule="evenodd" d="M31.0383 14.0137H36.9515L33.7635 5.61824L31.0383 14.0137ZM40.7443 23.9999L38.7422 18.6832H29.5198C29.5198 18.6832 28.9387 20.4346 28.7923 20.9032C28.2404 22.6721 29.7646 23.9398 29.8497 23.9999H21.6953C21.6953 23.9999 27.978 4.67122 28.3692 3.4687C29.2674 0.70829 27.865 0.121684 27.5405 0.000488281H37.7579L46.8718 23.9996L40.7443 23.9999Z" fill="#005B99"/>
<path fill-rule="evenodd" clip-rule="evenodd" d="M69.445 0.000732422H58.5991C60.2664 0.55554 60.264 2.28544 59.3092 3.39197C59.1706 3.55243 57.8381 5.10825 55.9625 7.29842L51.7514 0.000732422H43.5548L51.9587 11.9746C47.1141 17.6328 41.6641 23.9998 41.6641 23.9998H52.2582C52.0183 23.7731 50.3361 22.311 51.924 20.4566C52.0625 20.2951 53.8507 18.2074 56.2356 15.4228L61.2038 23.9999H69.4009L60.1724 10.827C64.7175 5.52078 69.445 0.000732422 69.445 0.000732422Z" fill="#005B99"/>
<path fill-rule="evenodd" clip-rule="evenodd" d="M70.3203 0.000732422H79.0019V23.9998H72.3388V4.30171C72.3388 0.595481 70.8029 0.192468 70.3203 0.000732422Z" fill="#005B99"/>
</svg>
