<svg width="91" height="24" viewBox="0 0 91 24" fill="none" xmlns="http://www.w3.org/2000/svg">
<g clip-path="url(#clip0_4710_83)">
<path d="M0 24H91V0H0V24Z" fill="#0060AF"/>
<path d="M60.3076 15.7692V12.0771C60.3076 10.6742 61.1246 9.78434 62.6144 9.58496C63.2054 9.5036 63.5024 9.56515 63.8174 9.62379L63.8167 7.1228C61.6765 7.1228 60.6625 7.66891 60.2047 9.20014H60.17V7.44825H57.0469V15.7707L60.3076 15.7692Z" fill="white"/>
<path d="M76.6094 13.0953C77.1808 15.471 79.4869 16.1886 82.4442 16.1886C84.7582 16.1886 87.2157 15.331 87.2157 13.0353C87.2157 9.56232 80.1764 10.881 80.1764 9.44504C80.1764 8.88576 81.2477 8.73989 81.7757 8.73989C82.2233 8.75821 82.957 8.88577 83.1735 9.04483C83.3973 9.23394 83.6675 9.40325 83.7059 9.76315H86.8253C86.2691 7.96877 84.2773 6.9895 81.9126 6.9895C79.0531 6.9895 76.8049 7.90574 76.8049 10.0622C76.8049 13.349 83.8239 12.0772 83.8239 13.6143C83.8239 14.2652 82.7093 14.4228 82.0103 14.3928C81.5366 14.3722 80.9261 14.2923 80.4727 13.9749C80.1975 13.8349 79.9222 13.4391 79.8621 13.0953H76.6094Z" fill="white"/>
<path d="M25.8654 7.4856V12.0558C25.8589 13.0754 25.1947 14.0576 23.9859 14.0576C22.7821 14.0576 22.1013 13.0622 22.1013 11.9671V7.4856L18.8203 7.49V12.3761C18.8203 14.8089 20.8244 16.1078 22.8422 16.1078C24.0228 16.1078 25.0904 15.6893 25.9226 14.85H25.9574V15.7897H29.1507V7.4856H25.8654Z" fill="white"/>
<path d="M71.8576 7.4219V11.9921C71.8518 13.0117 71.1869 13.9932 69.9781 13.9932C68.7765 13.9932 68.0949 12.9971 68.0949 11.902V7.4219L64.8176 7.40869L64.8125 12.3095C64.8125 14.7438 66.8166 16.0434 68.8351 16.0434C70.0172 16.0434 71.084 15.6256 71.917 14.7841H71.9503V15.7245H75.1436V7.4219H71.8576Z" fill="white"/>
<path d="M71.8576 7.4219V11.9921C71.8518 13.0117 71.1869 13.9932 69.9781 13.9932C68.7765 13.9932 68.0949 12.9971 68.0949 11.902V7.4219L64.8176 7.40869L64.8125 12.3095C64.8125 14.7438 66.8166 16.0434 68.8351 16.0434C70.0172 16.0434 71.084 15.6256 71.917 14.7841H71.9503V15.7245H75.1436V7.4219H71.8576Z" fill="white"/>
<path d="M4.52344 20.2243H86.7421V19.3191H4.52344V20.2243Z" fill="white"/>
<path d="M36.7731 14.0438C35.3883 14.0438 34.2656 12.9458 34.2656 11.5912C34.2656 10.2359 35.3883 9.13793 36.7731 9.13793C38.1579 9.13793 39.2798 10.2359 39.2798 11.5912C39.2798 12.9458 38.1579 14.0438 36.7731 14.0438ZM39.1198 4.16895V8.04137C38.289 7.26952 37.002 7.05254 35.8533 7.05254C32.3898 7.10825 30.75 9.74997 30.75 11.7452C30.75 14.5342 33.7413 16.1681 35.9003 16.1681C37.3243 16.1681 38.5867 15.7378 39.1806 14.8568H39.219V15.8624H42.4485V4.16895H39.1198Z" fill="white"/>
<path d="M47.6149 10.6017C47.7663 9.62092 48.5456 8.84541 49.7609 8.84541C50.9524 8.84541 51.7534 9.62092 51.8838 10.6017H47.6149ZM49.821 7.04224C46.4358 7.04224 44 8.65924 44 11.7708C44 14.7013 46.7247 16.2113 49.7805 16.2113C52.0924 16.2113 54.2485 15.331 55.1365 13.4149H51.8925C51.4702 14.1538 50.6612 14.3407 49.821 14.3407C48.5007 14.3407 47.6815 13.6326 47.5577 12.3572H55.4769C55.8079 9.96398 54.1971 7.04224 49.821 7.04224Z" fill="white"/>
<path d="M10.7924 13.6522H7.96768V10.8969H11.6028C12.9145 10.8969 13.4338 11.3572 13.4338 12.3534C13.4338 13.2535 12.8949 13.6522 10.7924 13.6522ZM7.96768 6.38677H11.3406C12.7849 6.38677 13.1528 6.8185 13.1528 7.48333C13.1528 8.2156 12.7849 8.80713 11.3406 8.80713H7.96768V6.38677ZM14.5065 9.65301C14.4775 9.6574 14.4514 9.66694 14.4217 9.6728L14.4377 9.63984C14.4616 9.64277 14.4826 9.65007 14.5065 9.65301C16.0137 9.37667 16.9748 8.35122 16.8669 6.86544C16.7887 5.77767 16.2954 4.03461 11.8194 4.13209H4.50781V15.9003L12.7465 15.8849C15.9804 15.9245 17.3601 14.2093 17.3674 12.5066C17.3739 11.0494 16.2636 9.89563 14.5065 9.65301Z" fill="white"/>
</g>
<defs>
<clipPath id="clip0_4710_83">
<rect width="91" height="24" fill="white"/>
</clipPath>
</defs>
</svg>
