<svg width="115" height="47" viewBox="0 0 115 47" fill="none" xmlns="http://www.w3.org/2000/svg">
<path d="M65.7393 18.9912L63.0298 18.3141C62.5804 16.5584 61.8833 14.8756 60.9597 13.3164L62.3975 10.9212C62.9433 10.012 62.8 8.84786 62.0499 8.09777L59.392 5.4406C58.6419 4.69052 57.4778 4.54731 56.5685 5.09305L54.1733 6.53146C52.6144 5.60759 50.9319 4.91015 49.1765 4.46077L48.4987 1.74964C48.2411 0.7209 47.3166 -0.000347422 46.2559 1.2555e-07H42.4993C41.4387 -0.000339255 40.5141 0.72157 40.2566 1.75034L39.5788 4.46043C37.8233 4.9098 36.1409 5.60724 34.582 6.53111L32.1861 5.0927C31.2768 4.54729 30.1133 4.69051 29.3632 5.44025L26.706 8.09742C25.9559 8.8475 25.8127 10.0116 26.3584 10.9209L27.7962 13.316C26.8727 14.8752 26.1755 16.5579 25.7262 18.3138L23.016 18.9909C21.9869 19.2481 21.2654 20.173 21.2656 21.2336V24.9901C21.2656 26.051 21.9876 26.9756 23.0166 27.2328L25.7262 27.9099C26.1755 29.6656 26.8727 31.3484 27.7962 32.9076L26.3584 35.3027C25.8127 36.212 25.9559 37.3761 26.706 38.1262L29.3632 40.7834C30.1133 41.5335 31.2775 41.6767 32.1868 41.1309L34.582 39.6925C36.1408 40.6164 37.8233 41.3138 39.5788 41.7632L40.2566 44.4744C40.5142 45.5031 41.4387 46.2243 42.4993 46.224H46.2559C47.3166 46.2243 48.2411 45.5024 48.4987 44.4737L49.1765 41.7636C50.9319 41.3142 52.6143 40.6167 54.1733 39.6929L56.5692 41.1313C57.4781 41.6784 58.6429 41.5348 59.392 40.7837L62.0492 38.1266C62.7993 37.3765 62.9426 36.2124 62.3968 35.3031L60.9591 32.908C61.8826 31.3488 62.5797 29.666 63.0291 27.9102L65.7392 27.2331C66.7684 26.9759 67.4899 26.051 67.4896 24.9904V21.2339C67.49 20.1733 66.7681 19.2487 65.7393 18.9912ZM65.9488 24.9905C65.9491 25.3441 65.7085 25.6527 65.3657 25.7385L62.2071 26.529C61.926 26.5993 61.7085 26.8209 61.643 27.1029C61.2038 29.0125 60.4486 30.835 59.4086 32.4957C59.2549 32.7414 59.2518 33.0523 59.4008 33.3007L61.0778 36.0957C61.2594 36.3988 61.2116 36.7867 60.9614 37.0365L58.3049 39.6926C58.0551 39.9424 57.6675 39.9906 57.3641 39.809L54.5667 38.1347C54.3182 37.9857 54.0073 37.9888 53.7616 38.1425C52.1012 39.1828 50.2782 39.938 48.3687 40.3768C48.086 40.442 47.864 40.6602 47.7941 40.9416L47.0036 44.1001C46.9181 44.4436 46.6096 44.6842 46.2556 44.6842H42.499C42.1454 44.6846 41.8368 44.4439 41.751 44.1011L40.9605 40.9426C40.8906 40.6613 40.6682 40.443 40.3858 40.3779C38.4763 39.939 36.6534 39.1839 34.993 38.1436C34.7473 37.9898 34.4364 37.9868 34.1879 38.1358L31.3936 39.8131C31.0901 39.995 30.7022 39.9472 30.452 39.6967L27.7959 37.0372C27.546 36.7874 27.4979 36.3998 27.6794 36.0964L29.3544 33.3014C29.5034 33.053 29.5003 32.7421 29.3466 32.4963C28.3066 30.8357 27.5515 29.013 27.1122 27.1036C27.0471 26.8216 26.8292 26.5999 26.5481 26.5297L23.3896 25.7392C23.0461 25.6533 22.8051 25.3445 22.8054 24.9905V21.234C22.8051 20.8804 23.0457 20.5719 23.3885 20.486L26.5471 19.6955C26.8282 19.6253 27.0457 19.4036 27.1112 19.1216C27.5504 17.2121 28.3056 15.3895 29.3456 13.7289C29.4993 13.4831 29.5024 13.1722 29.3534 12.9238L27.6794 10.1281C27.4978 9.82504 27.5456 9.43711 27.7958 9.18731L30.4523 6.53083C30.7021 6.28103 31.0897 6.23284 31.3932 6.41442L34.1879 8.08969C34.4363 8.23868 34.7475 8.23563 34.9929 8.08188C36.6533 7.04159 38.4763 6.28645 40.3858 5.84759C40.6685 5.78242 40.8905 5.56419 40.9604 5.28282L41.7509 2.12431C41.8368 1.78118 42.1453 1.54088 42.499 1.54122H46.2555C46.6092 1.54088 46.9177 1.78152 47.0036 2.12431L47.7941 5.28282C47.864 5.56419 48.0863 5.78242 48.3687 5.84759C50.2782 6.28644 52.1012 7.04159 53.7615 8.08188C54.0073 8.23563 54.3182 8.23869 54.5666 8.08969L57.361 6.41269C57.6644 6.23076 58.0523 6.27862 58.3025 6.5291L60.9587 9.18523C61.2085 9.43503 61.2567 9.82262 61.0751 10.126L59.4001 12.923C59.2511 13.1715 59.2542 13.4827 59.4079 13.7281C60.4479 15.3887 61.2031 17.2114 61.6423 19.1208C61.7074 19.4028 61.9254 19.6245 62.2064 19.6947L65.365 20.4852C65.7085 20.5707 65.9491 20.8792 65.9491 21.2332L65.9488 24.9905Z" fill="#95D7AE"/>
<path d="M44.3768 7.70459C35.867 7.70459 28.9688 14.603 28.9688 23.1122C28.9688 31.6215 35.8673 38.5199 44.3768 38.5199C52.8862 38.5199 59.7848 31.6215 59.7848 23.1122C59.7753 14.6068 52.8822 7.71415 44.3768 7.70459ZM44.3768 9.24509C44.8916 9.24679 45.4062 9.27734 45.9176 9.33606V11.2252C45.9187 12.0105 45.4177 12.7083 44.6734 12.9585L41.2837 14.0849C39.9095 14.5445 38.9835 15.8315 38.9838 17.2804V18.6441C38.9865 19.253 38.6821 19.8222 38.174 20.1578C37.2339 20.7789 36.6694 21.8314 36.6725 22.9582V24.8072C36.6748 25.4164 36.3704 25.9859 35.862 26.322L35.3566 26.6563C35.0579 26.8572 34.7059 26.9645 34.3458 26.9645H31.0647C28.921 19.6286 33.1303 11.9444 40.4661 9.80087C41.7365 9.42956 43.0534 9.24255 44.3768 9.24527L44.3768 9.24509ZM31.6006 28.5053H34.3458C35.0103 28.5063 35.66 28.3088 36.2119 27.9382L36.7118 27.6076C37.652 26.9865 38.2164 25.934 38.2134 24.8072V22.9582C38.2107 22.3493 38.5151 21.7801 39.0232 21.4444C39.9633 20.8233 40.5278 19.7708 40.5247 18.6441V17.2804C40.5237 16.495 41.0247 15.7972 41.769 15.5471L45.1587 14.4206C46.5329 13.961 47.4589 12.674 47.4586 11.2252V9.60281C51.2108 10.4659 54.4368 12.8475 56.3673 16.1791H50.6784C49.9151 16.1777 49.1744 16.4387 48.5805 16.918L46.4025 18.6543C45.608 19.2938 45.146 20.259 45.1467 21.2789V21.8182C45.144 22.8769 45.6436 23.874 46.4935 24.5053L47.495 25.2611C47.9566 25.6033 48.2285 26.1436 48.2285 26.7179V30.0691C48.2305 30.7007 48.407 31.3195 48.7386 31.8571L50.916 35.3345C44.173 38.9509 35.7747 36.4158 32.1584 29.673C31.9541 29.2932 31.7681 28.9032 31.6004 28.5054L31.6006 28.5053ZM52.2289 34.5297L50.0485 31.0474C49.8659 30.7539 49.7692 30.4148 49.7688 30.0689V26.7177C49.7716 25.6591 49.2719 24.662 48.4221 24.0306L47.4205 23.2748C46.9592 22.933 46.687 22.3927 46.6874 21.8184V21.2791C46.6911 20.7269 46.9406 20.2049 47.3675 19.8546L49.5462 18.1172C49.8666 17.8589 50.2664 17.7184 50.6778 17.7197H57.1492C59.7098 23.7811 57.6522 30.8066 52.2265 34.5297L52.2289 34.5297Z" fill="#95D7AE"/>
<path d="M40.5224 28.5054C39.2459 28.5054 38.2109 29.5402 38.2109 30.8167C38.2109 32.0932 39.2458 33.1281 40.5224 33.1281C41.7988 33.1281 42.8338 32.0933 42.8338 30.8167C42.8334 29.5403 41.7989 28.5054 40.5224 28.5054ZM40.5224 31.5872C40.0967 31.5872 39.7519 31.2423 39.7519 30.8167C39.7519 30.3911 40.0967 30.0463 40.5224 30.0463C40.948 30.0463 41.2928 30.3911 41.2928 30.8167C41.2928 31.242 40.9476 31.5872 40.5224 31.5872Z" fill="#95D7AE"/>
<rect x="5" y="20.5439" width="107" height="15.408" rx="5" fill="#37392E"/>
<path d="M4.69003 23.6199H11.816V33.2239H10.668V24.6839H5.83803V33.2239H4.69003V23.6199ZM18.7898 33.5319C17.8658 33.5225 17.0351 33.3079 16.2978 32.8879C15.5698 32.4585 14.9958 31.8799 14.5758 31.1519C14.1651 30.4145 13.9598 29.5839 13.9598 28.6599V28.2539C13.9598 27.3672 14.1698 26.5552 14.5898 25.8179C15.0191 25.0712 15.5978 24.4832 16.3258 24.0539C17.0631 23.6152 17.8658 23.3959 18.7338 23.3959C19.6111 23.3959 20.4138 23.6152 21.1418 24.0539C21.8698 24.4832 22.4484 25.0712 22.8778 25.8179C23.3071 26.5552 23.5218 27.3672 23.5218 28.2539V28.6599C23.5218 29.5839 23.3118 30.4192 22.8918 31.1659C22.4811 31.9125 21.9164 32.4959 21.1978 32.9159C20.4791 33.3359 19.6764 33.5412 18.7898 33.5319ZM18.7478 32.4679C19.4291 32.4679 20.0451 32.3045 20.5958 31.9779C21.1464 31.6419 21.5804 31.1845 21.8978 30.6059C22.2151 30.0272 22.3738 29.3785 22.3738 28.6599V28.2539C22.3738 27.5725 22.2104 26.9425 21.8838 26.3639C21.5571 25.7759 21.1138 25.3139 20.5538 24.9779C20.0031 24.6325 19.3918 24.4599 18.7198 24.4599C18.0571 24.4599 17.4504 24.6325 16.8998 24.9779C16.3491 25.3139 15.9104 25.7759 15.5838 26.3639C15.2664 26.9425 15.1078 27.5725 15.1078 28.2539V28.6599C15.1078 29.3785 15.2664 30.0272 15.5838 30.6059C15.9011 31.1845 16.3351 31.6419 16.8858 31.9779C17.4458 32.3045 18.0664 32.4679 18.7478 32.4679ZM25.6029 33.3919C25.2949 33.3919 25.0149 33.2939 24.7629 33.0979C24.5109 32.9019 24.3475 32.6685 24.2729 32.3979L25.2529 31.9919C25.3275 32.1319 25.3835 32.2205 25.4209 32.2579C25.4582 32.2952 25.5189 32.3139 25.6029 32.3139C25.6682 32.3139 25.7149 32.2999 25.7429 32.2719C25.7802 32.2439 25.8129 32.1972 25.8409 32.1319L27.6469 23.6199H28.6969L31.3849 30.9839L31.5669 31.6279L31.7489 30.9839L34.4649 23.6199H35.5289L37.5029 33.2379H36.3549L34.8429 25.7059L34.8289 25.4819L34.7869 25.7059L32.0709 33.2379H31.0629L28.3889 25.7899L28.3469 25.4819L28.3049 25.7899L26.9329 32.2999C26.8675 32.5985 26.7089 32.8552 26.4569 33.0699C26.2049 33.2845 25.9202 33.3919 25.6029 33.3919ZM43.1394 33.5319C42.2154 33.5225 41.3847 33.3079 40.6474 32.8879C39.9194 32.4585 39.3454 31.8799 38.9254 31.1519C38.5147 30.4145 38.3094 29.5839 38.3094 28.6599V28.2539C38.3094 27.3672 38.5194 26.5552 38.9394 25.8179C39.3687 25.0712 39.9474 24.4832 40.6754 24.0539C41.4127 23.6152 42.2154 23.3959 43.0834 23.3959C43.9607 23.3959 44.7634 23.6152 45.4914 24.0539C46.2194 24.4832 46.7981 25.0712 47.2274 25.8179C47.6567 26.5552 47.8714 27.3672 47.8714 28.2539V28.6599C47.8714 29.5839 47.6614 30.4192 47.2414 31.1659C46.8307 31.9125 46.2661 32.4959 45.5474 32.9159C44.8287 33.3359 44.0261 33.5412 43.1394 33.5319ZM43.0974 32.4679C43.7787 32.4679 44.3947 32.3045 44.9454 31.9779C45.4961 31.6419 45.9301 31.1845 46.2474 30.6059C46.5647 30.0272 46.7234 29.3785 46.7234 28.6599V28.2539C46.7234 27.5725 46.5601 26.9425 46.2334 26.3639C45.9067 25.7759 45.4634 25.3139 44.9034 24.9779C44.3527 24.6325 43.7414 24.4599 43.0694 24.4599C42.4067 24.4599 41.8001 24.6325 41.2494 24.9779C40.6987 25.3139 40.2601 25.7759 39.9334 26.3639C39.6161 26.9425 39.4574 27.5725 39.4574 28.2539V28.6599C39.4574 29.3785 39.6161 30.0272 39.9334 30.6059C40.2507 31.1845 40.6847 31.6419 41.2354 31.9779C41.7954 32.3045 42.4161 32.4679 43.0974 32.4679ZM50.0123 23.6339H55.8783V24.6979H51.1603V33.2519H50.0123V23.6339ZM56.6794 33.3499C56.3154 33.3499 56.0214 33.2612 55.7974 33.0839C55.5734 32.8972 55.4287 32.6592 55.3634 32.3699L56.1894 31.9219C56.2174 32.0432 56.264 32.1412 56.3294 32.2159C56.404 32.2812 56.488 32.3139 56.5814 32.3139C56.6747 32.3139 56.754 32.2812 56.8194 32.2159C56.8847 32.1412 56.9454 32.0385 57.0014 31.9079L60.5014 23.5919H60.9774L65.0794 33.2379H63.8614L62.5734 30.1439H58.9334L57.9394 32.5239C57.8367 32.7759 57.664 32.9765 57.4214 33.1259C57.1787 33.2752 56.9314 33.3499 56.6794 33.3499ZM62.0974 29.1079L60.7534 25.5519L60.7254 25.3419L60.7114 25.5519L59.3534 29.1079H62.0974ZM66.5261 24.6839C66.4234 24.6839 66.3394 24.7165 66.2741 24.7819C66.2181 24.8379 66.1901 24.9125 66.1901 25.0059C66.1901 25.0339 66.1994 25.0852 66.2181 25.1599H65.1261C65.1074 24.9545 65.1307 24.7539 65.1961 24.5579C65.2614 24.3525 65.3687 24.1752 65.5181 24.0259C65.6487 23.8952 65.7981 23.7972 65.9661 23.7319C66.1341 23.6572 66.3067 23.6199 66.4841 23.6199H72.7841V24.6839H69.6201V33.2379H68.4721V24.6839H66.5261ZM78.4402 33.5319C77.5162 33.5225 76.6855 33.3079 75.9482 32.8879C75.2202 32.4585 74.6462 31.8799 74.2262 31.1519C73.8155 30.4145 73.6102 29.5839 73.6102 28.6599V28.2539C73.6102 27.3672 73.8202 26.5552 74.2402 25.8179C74.6695 25.0712 75.2482 24.4832 75.9762 24.0539C76.7135 23.6152 77.5162 23.3959 78.3842 23.3959C79.2615 23.3959 80.0642 23.6152 80.7922 24.0539C81.5202 24.4832 82.0988 25.0712 82.5282 25.8179C82.9575 26.5552 83.1722 27.3672 83.1722 28.2539V28.6599C83.1722 29.5839 82.9622 30.4192 82.5422 31.1659C82.1315 31.9125 81.5668 32.4959 80.8482 32.9159C80.1295 33.3359 79.3268 33.5412 78.4402 33.5319ZM78.3982 32.4679C79.0795 32.4679 79.6955 32.3045 80.2462 31.9779C80.7968 31.6419 81.2308 31.1845 81.5482 30.6059C81.8655 30.0272 82.0242 29.3785 82.0242 28.6599V28.2539C82.0242 27.5725 81.8608 26.9425 81.5342 26.3639C81.2075 25.7759 80.7642 25.3139 80.2042 24.9779C79.6535 24.6325 79.0422 24.4599 78.3702 24.4599C77.7075 24.4599 77.1008 24.6325 76.5502 24.9779C75.9995 25.3139 75.5608 25.7759 75.2342 26.3639C74.9168 26.9425 74.7582 27.5725 74.7582 28.2539V28.6599C74.7582 29.3785 74.9168 30.0272 75.2342 30.6059C75.5515 31.1845 75.9855 31.6419 76.5362 31.9779C77.0962 32.3045 77.7168 32.4679 78.3982 32.4679ZM85.934 24.7119C85.6913 24.7119 85.5233 24.7539 85.43 24.8379C85.3273 24.9219 85.2667 25.0759 85.248 25.2999L84.198 25.2859C84.198 24.7259 84.3707 24.2965 84.716 23.9979C84.996 23.7459 85.4067 23.6199 85.948 23.6199H89.042C89.6113 23.6199 90.106 23.7552 90.526 24.0259C90.946 24.2872 91.268 24.6512 91.492 25.1179C91.716 25.5752 91.828 26.0885 91.828 26.6579C91.828 27.6752 91.534 28.4452 90.946 28.9679C90.358 29.4812 89.588 29.7379 88.636 29.7379C88.3093 29.7379 87.9593 29.6912 87.586 29.5979V28.5759C87.978 28.6412 88.3093 28.6739 88.58 28.6739C89.98 28.6739 90.68 28.0065 90.68 26.6719C90.68 26.0092 90.5167 25.5145 90.19 25.1879C89.8633 24.8519 89.4153 24.6839 88.846 24.6839H87.082V33.2379H85.934V24.7119ZM94.9888 33.4339C94.5408 33.4339 94.0415 33.3125 93.4908 33.0699L93.9528 32.0759C94.3448 32.2439 94.6948 32.3279 95.0028 32.3279C95.3948 32.3279 95.7168 32.1692 95.9688 31.8519C96.2208 31.5345 96.4962 31.0585 96.7948 30.4239L93.8408 24.7539C93.7568 24.5952 93.6588 24.5159 93.5468 24.5159C93.5095 24.5159 93.4628 24.5299 93.4068 24.5579C93.3415 24.5859 93.2948 24.6279 93.2668 24.6839L92.4268 24.1519C92.5575 23.8999 92.7675 23.6992 93.0568 23.5499C93.2622 23.4472 93.4582 23.3959 93.6448 23.3959C93.8875 23.3959 94.1115 23.4705 94.3168 23.6199C94.5315 23.7692 94.7088 23.9792 94.8488 24.2499L97.3688 29.1779L99.9308 23.6479H101.163L99.1048 28.0719C98.6195 29.1265 98.2275 29.9665 97.9288 30.5919C97.6395 31.2079 97.4482 31.5999 97.3548 31.7679C97.2615 31.9265 97.1402 32.1132 96.9908 32.3279C96.5522 32.9345 96.0622 33.2845 95.5208 33.3779C95.3248 33.4152 95.1475 33.4339 94.9888 33.4339ZM107.122 33.5319C106.179 33.5319 105.344 33.2985 104.616 32.8319C103.888 32.3559 103.323 31.7305 102.922 30.9559C102.53 30.1812 102.334 29.3552 102.334 28.4779C102.334 27.5632 102.544 26.7139 102.964 25.9299C103.384 25.1459 103.962 24.5252 104.7 24.0679C105.437 23.6012 106.258 23.3679 107.164 23.3679C107.742 23.3679 108.274 23.4659 108.76 23.6619C109.254 23.8579 109.646 24.1332 109.936 24.4879C110.225 24.8332 110.37 25.2299 110.37 25.6779C110.36 26.1072 110.22 26.4572 109.95 26.7279C109.679 26.9892 109.362 27.1199 108.998 27.1199C108.774 27.1199 108.554 27.0592 108.34 26.9379C108.134 26.8165 107.957 26.6392 107.808 26.4059L108.718 25.8739C108.811 26.0045 108.909 26.0699 109.012 26.0699C109.096 26.0699 109.166 26.0325 109.222 25.9579C109.287 25.8739 109.32 25.7712 109.32 25.6499C109.32 25.3885 109.203 25.1645 108.97 24.9779C108.736 24.7819 108.447 24.6372 108.102 24.5439C107.756 24.4505 107.416 24.4039 107.08 24.4039C106.473 24.4039 105.89 24.5812 105.33 24.9359C104.779 25.2905 104.331 25.7805 103.986 26.4059C103.65 27.0312 103.482 27.7219 103.482 28.4779C103.482 29.2152 103.645 29.8919 103.972 30.5079C104.298 31.1239 104.746 31.6092 105.316 31.9639C105.885 32.3185 106.515 32.4959 107.206 32.4959C107.868 32.4959 108.484 32.3372 109.054 32.0199C109.632 31.6932 110.043 31.2639 110.286 30.7319L111.238 31.1799C110.92 31.8612 110.398 32.4259 109.67 32.8739C108.951 33.3125 108.102 33.5319 107.122 33.5319Z" fill="#F6F6F6"/>
</svg>
