<svg width="180" height="24" viewBox="0 0 180 24" fill="none" xmlns="http://www.w3.org/2000/svg">
<path d="M11.1901 0.844238H0V23.186H2.97002L11.1901 12.0302V0.844238Z" fill="#ED7100"/>
<path d="M54.8738 23.1859L41.6442 8.98492V23.1859H35.7045V0.844218H41.2543L54.0638 14.593V0.844218H60.0036V23.1859H54.8738ZM179.999 23.1859V0.844218H174.06V14.593L161.25 0.844218H155.7V23.1859H161.64V8.98492L174.87 23.1859H179.999ZM114.872 0.844218H108.752L102.002 16.4623L95.2224 0.844218H88.9526L99.3922 23.1859H104.402L114.872 0.844218ZM117.272 23.1859H123.241V0.844218H117.272V23.1859ZM70.0532 7.59799C70.8632 5.72864 72.6032 3.82914 75.933 3.82914C80.6729 3.82914 82.3828 6.78392 82.3828 9.61809H75.3031C71.6732 9.61809 68.9133 9.82914 66.6034 10.9146C64.0835 12.1206 63.5735 13.8694 63.5735 16.4322C63.5735 18.5427 64.5334 20.593 66.2434 21.8291C67.8933 23.005 69.6933 24 72.5732 24C74.9731 24 76.983 23.7588 78.8729 23.0352C81.1829 22.1005 81.9628 21.3769 82.4128 21.1658V23.2161H88.3826V8.89447C88.3826 6.09045 87.0026 4.01005 85.2927 2.56281C83.0428 0.663317 79.8929 0.060296 75.843 0.060296C71.8832 0.060296 69.0633 0.633166 66.8134 2.56281C65.2834 3.88945 64.4434 5.9397 64.0835 7.62814H70.0532M75.723 13.2362C77.193 13.206 82.2028 13.2362 82.2028 13.2362C82.2028 14.9246 82.1428 16.5528 80.7029 17.6985C79.3829 18.7538 77.073 19.3266 73.8931 19.3266C72.6332 19.3266 69.6933 19.0553 69.5133 16.1608C69.3933 14.1105 72.2732 13.2965 75.723 13.2362ZM139.441 19.8995C142.771 19.8995 145.141 18.3317 146.041 16.0704H152.01C151.41 18.1809 150.18 19.99 148.32 21.3769C145.981 23.0955 143.041 23.9699 139.531 23.9699C135.601 23.9699 132.481 22.9146 130.171 20.8342C127.711 18.6935 126.481 15.7387 126.481 11.9397C126.481 8.56281 127.621 5.72864 129.961 3.46734C132.211 1.14573 135.331 0 139.261 0C143.611 0 146.941 1.23618 149.22 3.76885C151.32 6.0603 152.4 9.25628 152.4 13.3568H132.451C132.451 13.7789 132.541 14.3518 132.541 14.3518C132.871 17.5477 135.361 19.8995 139.441 19.8995ZM139.441 4.13065C135.361 4.13065 132.871 6.48241 132.541 9.61809H146.341C146.041 6.48241 143.551 4.13065 139.441 4.13065ZM19.415 0.844218L11.1953 12V23.1558H29.6147V0.844218H19.415Z" fill="#0F2F6E"/>
<path d="M14.8281 10.2515H15.7281V15.1057L20.3782 10.2816H21.5482L18.0982 13.8093L21.6982 18.3922H20.5582L17.4681 14.4726L15.7581 16.2213V18.3922H14.8581L14.8281 10.2515ZM27.4882 15.6484C27.2782 15.166 26.9782 14.7439 26.6182 14.3821C26.2282 14.0203 25.7782 13.7188 25.2682 13.5379C24.7282 13.3268 24.1582 13.2364 23.5282 13.2364H20.7382V15.3168L21.6382 16.5228V14.0505H23.5282C24.0382 14.0505 24.4882 14.1409 24.9082 14.2917C25.3282 14.4424 25.6882 14.6836 25.9582 14.9851C26.2582 15.2866 26.4682 15.6183 26.6182 16.0103C26.7682 16.4022 26.8582 16.8243 26.8582 17.2766V17.3067C26.8582 17.759 26.7682 18.1811 26.6182 18.5731C26.4682 18.965 26.2282 19.2967 25.9582 19.5982C25.6582 19.8696 25.3282 20.1108 24.9082 20.2615C24.4882 20.4123 24.0382 20.5027 23.5282 20.5027H21.6382V19.6283H20.7382V21.3469H23.5282C24.1582 21.3469 24.7282 21.2565 25.2682 21.0454C25.8082 20.8344 26.2582 20.563 26.6182 20.2012C27.0082 19.8394 27.3082 19.4173 27.4882 18.9047C27.6982 18.4223 27.7882 17.8796 27.7882 17.3067V17.2766C27.7882 16.6736 27.6682 16.161 27.4882 15.6484Z" fill="white"/>
</svg>
