<svg width="444" height="400" viewBox="0 0 444 400" fill="none" xmlns="http://www.w3.org/2000/svg">
<path d="M425.059 393.555C432.01 393.555 437.684 387.982 437.79 381.031C438.322 346.386 441.113 295.285 375.868 281.152C323.069 269.715 354.373 175.884 212.179 181.947C110.107 186.299 137.224 272.334 57.8598 279.499C5.04984 284.267 4.59284 351.058 6.62184 381.662C7.06584 388.356 12.6188 393.556 19.3278 393.556H425.059V393.555Z" fill="#B5DFEA"/>
<path opacity="0.55" d="M375.866 281.152C323.067 269.715 354.371 175.884 212.177 181.947C187.9 182.982 170.94 188.643 158.109 196.76C162.432 196.194 167.02 195.795 171.91 195.587C314.104 189.524 282.8 283.355 335.599 294.792C400.148 308.774 398.105 358.94 397.539 393.556H425.057C432.008 393.556 437.682 387.983 437.788 381.032C438.32 346.387 441.111 295.285 375.866 281.152Z" fill="#90CEDD"/>
<path d="M152.015 0H149.77V163.799H152.015V0Z" fill="#79C9E8"/>
<path d="M312.987 0H310.742V188.961H312.987V0Z" fill="#79C9E8"/>
<path d="M312.774 177.946L145.827 158.46C138.692 157.627 132.233 162.736 131.401 169.871L118.941 276.625C118.108 283.76 123.217 290.219 130.352 291.051L297.299 310.537C304.434 311.37 310.893 306.261 311.725 299.126L324.185 192.372C325.017 185.238 319.909 178.779 312.774 177.946Z" fill="#D7F0F9"/>
<path d="M322.951 202.939L324.184 192.372C325.017 185.237 319.908 178.778 312.773 177.946L145.827 158.46C138.692 157.627 132.233 162.736 131.401 169.871L130.168 180.438L322.951 202.939Z" fill="#0582C1"/>
<path d="M157.179 245.079L178.341 207.793C179.697 205.404 182.351 204.059 185.079 204.377C188.829 204.815 191.514 208.21 191.077 211.96L186.675 249.676L186.863 249.698C189.461 250.001 191.322 252.354 191.019 254.952C190.716 257.55 188.363 259.411 185.765 259.108L185.577 259.086L184.775 265.955C184.448 268.761 181.907 270.77 179.101 270.443C176.295 270.115 174.286 267.575 174.613 264.769L175.415 257.9L160.18 256.122C157.577 255.818 155.714 253.462 156.017 250.859L156.421 247.398C156.516 246.581 156.774 245.793 157.179 245.079ZM176.585 247.868L179.315 224.478C179.334 224.316 179.116 224.245 179.036 224.387L166.533 246.45C166.312 246.84 166.56 247.328 167.005 247.38L175.891 248.417C176.235 248.457 176.545 248.211 176.585 247.868Z" fill="#79C9E8"/>
<path d="M250.573 255.981L271.735 218.695C273.091 216.306 275.745 214.961 278.473 215.279C282.223 215.717 284.908 219.112 284.471 222.862L280.069 260.578L280.257 260.6C282.855 260.903 284.716 263.256 284.413 265.854C284.11 268.452 281.757 270.313 279.159 270.01L278.971 269.988L278.169 276.857C277.841 279.663 275.301 281.672 272.495 281.345C269.689 281.017 267.68 278.477 268.007 275.671L268.809 268.802L253.574 267.024C250.971 266.72 249.108 264.364 249.411 261.761L249.815 258.3C249.91 257.483 250.168 256.695 250.573 255.981ZM269.98 258.77L272.71 235.38C272.729 235.218 272.511 235.147 272.431 235.289L259.928 257.352C259.707 257.741 259.955 258.23 260.4 258.282L269.287 259.319C269.629 259.359 269.94 259.113 269.98 258.77Z" fill="#79C9E8"/>
<path d="M208.588 223.144C209.818 212.606 216.072 207.231 226.235 208.418C236.397 209.604 241.246 216.274 240.016 226.813L236.018 261.063C234.788 271.602 228.533 276.976 218.371 275.79C208.208 274.604 203.36 267.934 204.59 257.395L208.588 223.144ZM214.864 259.26C214.315 263.965 216.176 265.994 219.469 266.378C222.762 266.762 225.041 265.217 225.59 260.512L229.741 224.945C230.29 220.24 228.429 218.211 225.136 217.827C221.843 217.443 219.564 218.989 219.015 223.694L214.864 259.26Z" fill="#79C9E8"/>
<path d="M149.846 173.212C149.622 175.129 147.886 176.502 145.969 176.279C144.052 176.055 142.679 174.319 142.903 172.402C143.127 170.485 144.862 169.112 146.78 169.336C148.698 169.56 150.07 171.295 149.846 173.212Z" fill="white"/>
<path d="M166.593 175.168C166.369 177.085 164.633 178.458 162.716 178.235C160.799 178.011 159.426 176.275 159.649 174.358C159.873 172.441 161.609 171.068 163.526 171.292C165.444 171.515 166.817 173.251 166.593 175.168Z" fill="#79C9E8"/>
<path d="M183.951 177.194C183.727 179.111 181.991 180.484 180.074 180.26C178.157 180.036 176.784 178.3 177.008 176.383C177.232 174.466 178.968 173.093 180.885 173.317C182.802 173.541 184.175 175.277 183.951 177.194Z" fill="#FFBF4D"/>
<path d="M116.791 298.792C116.791 298.792 114.536 308.79 114.912 319.013C115.249 328.165 114.16 388.323 114.16 388.323H121.508C121.508 388.323 131.968 341.207 132.359 337.486C132.75 333.765 138.011 296.556 138.011 296.556L116.791 298.792Z" fill="#00668E"/>
<path d="M121.68 296.048C121.68 296.048 123.371 308.902 126.246 318.035C129.121 327.168 143.253 388.322 143.253 388.322H150.601C150.601 388.322 149.248 341.206 148.74 337.485C148.233 333.764 144.512 296.555 144.512 296.555L121.68 296.048Z" fill="#0582C1"/>
<path d="M143.852 388.311V393.439H157.84C158.635 393.439 158.945 392.409 158.284 391.968C156.238 390.606 152.962 388.729 149.916 388.31H143.852V388.311Z" fill="#0582C1"/>
<path d="M114.535 388.311V393.439H128.523C129.318 393.439 129.628 392.409 128.967 391.968C126.921 390.606 123.645 388.729 120.599 388.31H114.535V388.311Z" fill="#0582C1"/>
<path d="M139.772 236.255C139.772 236.255 144.583 228.95 139.059 228.237C134.818 227.69 133.073 228.953 133.073 228.953C133.073 228.953 128.19 228.415 125.517 230.731C123.686 232.318 116.964 244.629 127.833 249.083C138.702 253.538 136.386 242.134 136.386 242.134L139.772 236.255Z" fill="#00668E"/>
<path d="M139.059 228.237C134.818 227.69 133.073 228.953 133.073 228.953C133.073 228.953 128.19 228.415 125.517 230.731C123.686 232.318 116.964 244.629 127.833 249.083C132.942 251.177 135.137 249.766 136.029 247.684C125.716 250.585 124.599 238.156 126.299 234.62C128.027 231.026 132.173 232.685 132.173 232.685C133.795 228.603 139.08 229.045 141.258 229.363C140.862 228.796 140.174 228.381 139.059 228.237Z" fill="#05556D"/>
<path d="M133.003 239.818C133.003 239.818 131.578 238.393 130.509 239.818C129.44 241.244 130.153 244.451 131.934 244.629C131.934 244.629 131.399 249.262 127.836 249.083V252.825H136.21V249.974C136.21 249.974 141.377 247.836 141.199 243.56C141.021 239.284 139.774 236.255 139.774 236.255C139.774 236.255 136.923 239.462 133.003 239.818Z" fill="#F98D3D"/>
<path d="M134.282 251.173C135.111 251.518 134.966 252.041 135.003 252.826H136.208V249.975C136.208 249.975 134.179 250.62 131.207 248.927C131.207 248.927 132.936 250.612 134.282 251.173Z" fill="#ED701B"/>
<path d="M135.999 232.998C135.999 232.998 131.658 231.269 131.151 232.566C130.819 233.415 131.664 234.147 132.822 234.885L131.8 235.053C131.573 235.091 131.491 235.381 131.67 235.525C131.955 235.755 132.742 235.91 134.383 235.967L135.999 232.998Z" fill="#F98D3D"/>
<path d="M166.995 243.871C158.718 237.737 136.111 232.833 136.111 232.833L134.248 236.228C134.248 236.228 154.771 244.181 153.416 245.366C152.621 246.066 142.591 250.661 139.197 252.207C138.468 252.538 137.673 252.7 136.863 252.686L126.473 252.627C126.473 252.627 118.977 251.736 113.078 258.511C107.806 264.579 98.8438 278.629 98.8438 278.629L113.94 300.831L115.612 303.283L115.627 303.253L115.612 303.459C115.612 303.459 116.149 303.518 117.099 303.606C121.952 304.055 137.504 305.285 145.737 303.54L145.965 303.488L145.575 267.067C158.719 256.662 164.993 248.628 167.239 246.102C167.827 245.432 167.717 244.409 166.995 243.871ZM116.34 293.54L114.867 290.322L110.176 280.072L117.96 271.353L116.561 290.484L116.34 293.54Z" fill="#FFBF4D"/>
<path d="M114.866 290.321L116.339 293.539L115.624 303.252L115.609 303.281L113.938 300.829L114.866 290.321Z" fill="#EFAA3A"/>
<path opacity="0.29" d="M142.063 265.758C140.665 266.773 141.019 275.781 140.674 281.412C140.096 290.843 139.533 299.004 139.948 304.266C142.079 304.126 144.061 303.895 145.737 303.54L145.965 303.488L145.575 267.067C158.719 256.662 164.993 248.628 167.239 246.102C167.828 245.432 167.718 244.408 166.996 243.871C166.996 243.871 156.606 255.199 142.063 265.758Z" fill="#F98D2B"/>
<path d="M148.738 337.485C148.372 334.8 146.333 314.681 145.226 303.685L139.945 304.266C139.945 304.266 147.649 367.599 148.155 388.322H150.599C150.599 388.322 149.246 341.206 148.738 337.485Z" fill="#00668E"/>
<path d="M114.88 240.857L113.288 238.002C114.086 236.497 114.542 234.783 114.542 232.961C114.542 227.007 109.715 222.18 103.761 222.18C97.8075 222.18 92.9805 227.007 92.9805 232.961C92.9805 238.915 97.8075 243.742 103.761 243.742C106.759 243.742 109.469 242.517 111.423 240.542L114.88 240.857Z" fill="#0582C1"/>
<path d="M98.1523 231.988H98.5723V233.491C98.5723 233.951 98.7093 234.149 99.0333 234.149C99.2863 234.149 99.4633 234.022 99.6963 233.734V231.988H100.111V234.447H99.7683L99.7323 234.062H99.7173C99.4893 234.33 99.2473 234.507 98.9073 234.507C98.3863 234.507 98.1533 234.173 98.1533 233.546L98.1523 231.988Z" fill="white"/>
<path d="M101.86 234.654V235.484H101.445V231.987H101.79L101.825 232.27H101.84C102.063 232.083 102.336 231.926 102.625 231.926C103.257 231.926 103.596 232.417 103.596 233.181C103.596 234.016 103.095 234.507 102.533 234.507C102.306 234.507 102.078 234.401 101.85 234.224L101.86 234.654ZM102.462 234.159C102.867 234.159 103.165 233.79 103.165 233.183C103.165 232.641 102.982 232.277 102.517 232.277C102.309 232.277 102.102 232.393 101.859 232.611V233.901C102.082 234.088 102.3 234.159 102.462 234.159Z" fill="white"/>
<path d="M104.692 233.89C104.905 234.062 105.122 234.184 105.416 234.184C105.74 234.184 105.902 234.012 105.902 233.799C105.902 233.546 105.609 233.435 105.34 233.334C104.991 233.208 104.606 233.04 104.606 232.626C104.606 232.231 104.92 231.928 105.451 231.928C105.76 231.928 106.028 232.054 106.215 232.206L106.018 232.469C105.851 232.343 105.674 232.252 105.456 232.252C105.147 232.252 105.006 232.419 105.006 232.606C105.006 232.834 105.274 232.925 105.552 233.031C105.906 233.162 106.301 233.309 106.301 233.775C106.301 234.174 105.982 234.509 105.4 234.509C105.051 234.509 104.717 234.362 104.484 234.17L104.692 233.89Z" fill="white"/>
<path d="M107.601 233.87C107.763 233.87 107.9 234.001 107.9 234.194C107.9 234.376 107.763 234.507 107.601 234.507C107.434 234.507 107.297 234.375 107.297 234.194C107.298 234.002 107.434 233.87 107.601 233.87Z" fill="white"/>
<path d="M109.367 233.87C109.529 233.87 109.665 234.001 109.665 234.194C109.665 234.376 109.529 234.507 109.367 234.507C109.2 234.507 109.062 234.375 109.062 234.194C109.064 234.002 109.201 233.87 109.367 233.87Z" fill="white"/>
<path d="M73.5479 370.495C73.5479 370.495 71.2829 368.38 72.8029 360.356C74.3229 352.332 78.1789 344.626 76.2869 335.921C74.3949 327.216 59.5619 305.266 59.5119 303.807C59.4619 302.347 54.9359 329.342 62.6069 339.976C70.2779 350.61 71.2009 354.299 70.8599 359.891C70.5189 365.483 70.9389 369.987 71.7799 371.287L73.5479 370.495Z" fill="#79C9E8"/>
<path d="M72.1437 354.356C71.2517 357.935 70.7137 366.911 72.1387 369.059C72.2717 369.26 72.4627 369.145 72.7007 368.775C72.2667 367.291 71.9817 364.691 72.8027 360.356C74.3227 352.332 78.1787 344.626 76.2867 335.921C74.3947 327.216 59.5617 305.267 59.5117 303.807C59.5117 303.807 61.7467 322.094 69.2747 334.682C74.6647 343.692 73.0357 350.776 72.1437 354.356Z" fill="#49B4D6"/>
<path d="M76.2535 369.937C76.2535 369.937 71.8955 359.057 79.2815 349.637C86.6665 340.217 98.4785 328.121 98.7135 323.329C98.7135 323.329 101.748 346.079 92.1365 352.52C82.5235 358.96 75.7825 359.988 77.4495 369.896L76.2535 369.937Z" fill="#79C9E8"/>
<path d="M86.6288 347.946C75.9098 355.748 75.0338 364.735 76.6968 368.903C76.8258 369.227 77.0708 369.425 77.3938 369.531C75.9568 359.967 82.6428 358.879 92.1348 352.52C101.748 346.08 98.7118 323.329 98.7118 323.329C98.7118 323.329 97.3478 340.145 86.6288 347.946Z" fill="#49B4D6"/>
<path d="M69.0854 370.182C69.0854 370.182 70.4834 364.421 69.7394 358.201C68.9954 351.981 62.4984 348.483 56.4274 341.913C53.3044 338.533 52.3804 320.659 54.3164 318.998C54.3164 318.998 43.5984 331.987 45.2514 341.497C46.9044 351.007 64.3894 357.187 66.0074 361.783C67.6254 366.378 67.4914 370.236 67.4914 370.236L69.0854 370.182Z" fill="#79C9E8"/>
<path d="M50.6926 324.11C47.1496 333.703 50.7816 345.321 62.5486 352.537C71.2116 357.85 68.4526 368.897 68.4526 368.897L69.8676 364.539C69.9926 362.655 70.0066 360.46 69.7366 358.201C68.9926 351.981 62.4956 348.483 56.4246 341.913C53.4126 338.653 52.4466 321.915 54.1196 319.24C53.6296 319.858 52.2426 321.655 50.6926 324.11Z" fill="#49B4D6"/>
<path d="M54.1211 319.24C54.2421 319.087 54.3151 318.998 54.3151 318.998C54.2471 319.057 54.1831 319.142 54.1211 319.24Z" fill="#49B4D6"/>
<path d="M78.4961 369.462C78.4961 369.462 81.0081 360.141 87.2211 358.886C93.4341 357.631 100.568 348.451 100.954 346.65C100.954 346.65 99.9061 363.965 78.4961 369.462Z" fill="#79C9E8"/>
<path d="M86.8661 361.968C83.0591 363.872 81.4761 366.432 80.9141 368.756C99.9761 362.626 100.954 346.651 100.954 346.651C100.878 347.007 100.53 347.658 99.9861 348.472C98.1161 351.747 93.5901 358.606 86.8661 361.968Z" fill="#49B4D6"/>
<path d="M91.9403 366.03H59.4453L63.3043 390.3C63.5973 392.141 65.1843 393.496 67.0483 393.496H84.3373C86.2013 393.496 87.7883 392.141 88.0813 390.3L91.9403 366.03Z" fill="#FFBF4D"/>
<path d="M91.3023 370.045L91.9403 366.03H59.4453L60.0843 370.045H91.3023Z" fill="#FF9F50"/>
<path d="M84.0678 366.03L80.2088 390.3C79.9158 392.141 78.3288 393.495 76.4648 393.495H84.3368C86.2008 393.495 87.7878 392.14 88.0808 390.3L91.9398 366.03H84.0678Z" fill="#FF9F50"/>
<path d="M316.066 322.747H169.203V352.607H316.066V322.747Z" fill="#FFBF4D"/>
<path opacity="0.29" d="M316.066 322.747H169.203V329.995H316.066V322.747Z" fill="#F98D2B"/>
<path d="M181.975 322.747H195.379L191.786 329.998H178.375L181.975 322.747Z" fill="#F77E2D"/>
<path d="M212.171 322.747H225.575L221.982 329.998H208.578L212.171 322.747Z" fill="#F77E2D"/>
<path d="M242.369 322.747H255.774L252.181 329.998H238.777L242.369 322.747Z" fill="#F77E2D"/>
<path d="M272.57 322.747H285.967L282.374 329.998H268.977L272.57 322.747Z" fill="#F77E2D"/>
<path d="M316.065 322.747V322.949L312.566 329.998H299.176L302.769 322.747H316.065Z" fill="#F77E2D"/>
<path d="M197.837 352.61H187.484V393.439H197.837V352.61Z" fill="#79C9E8"/>
<path d="M197.836 352.61H195.484V393.439H197.836V352.61Z" fill="#49B4D6"/>
<path d="M298.587 352.61H288.234V393.439H298.587V352.61Z" fill="#79C9E8"/>
<path d="M298.588 352.61H295.527V393.439H298.588V352.61Z" fill="#49B4D6"/>
<path d="M197.837 352.578H187.484V357.72H197.837V352.578Z" fill="#49B4D6"/>
<path d="M298.587 352.578H288.234V357.72H298.587V352.578Z" fill="#49B4D6"/>
<path d="M197.837 318.082H187.484V322.718H197.837V318.082Z" fill="#79C9E8"/>
<path d="M197.836 318.082H195.484V322.718H197.836V318.082Z" fill="#49B4D6"/>
<path d="M298.587 318.082H288.234V322.718H298.587V318.082Z" fill="#79C9E8"/>
<path d="M298.588 318.082H295.527V322.718H298.588V318.082Z" fill="#49B4D6"/>
<path d="M197.837 322.139H187.484V322.723H197.837V322.139Z" fill="#49B4D6"/>
<path d="M298.587 322.139H288.234V322.723H298.587V322.139Z" fill="#49B4D6"/>
<path d="M195.377 322.747L180.566 352.608H169.203V348.488L181.973 322.747H195.377Z" fill="#0582C1"/>
<path d="M212.17 322.747L197.359 352.608H210.763L225.574 322.747H212.17Z" fill="#0582C1"/>
<path d="M255.775 322.747L240.964 352.608H227.559L242.37 322.747H255.775Z" fill="#0582C1"/>
<path d="M285.97 322.747L271.166 352.608H257.762L272.573 322.747H285.97Z" fill="#0582C1"/>
<path d="M302.772 322.747L287.961 352.608H301.358L316.068 322.949L302.772 322.747Z" fill="#0582C1"/>
<path d="M195.379 322.747L191.786 329.998H178.375L181.975 322.747H195.379Z" fill="#00668E"/>
<path d="M225.579 322.747L221.986 329.998H208.582L212.175 322.747H225.579Z" fill="#00668E"/>
<path d="M255.778 322.747L252.185 329.998H238.781L242.373 322.747H255.778Z" fill="#00668E"/>
<path d="M285.97 322.747L282.377 329.998H268.98L272.573 322.747H285.97Z" fill="#00668E"/>
<path d="M316.069 322.949L312.57 329.998H299.18L302.773 322.747L316.069 322.949Z" fill="#00668E"/>
<path opacity="0.55" d="M313.537 335.666H173.297V350.602H313.537V335.666Z" fill="url(#paint0_linear_3364_2)"/>
<path d="M193.857 320.719C198.889 319.9 202.305 315.157 201.486 310.125C200.667 305.094 195.924 301.678 190.892 302.497C185.86 303.316 182.445 308.059 183.264 313.09C184.083 318.122 188.825 321.538 193.857 320.719Z" fill="#FFBF4D"/>
<path d="M196.577 311.602C196.577 309.292 194.704 307.419 192.394 307.419C190.084 307.419 188.211 309.292 188.211 311.602C188.211 313.912 190.084 315.785 192.394 315.785C194.704 315.785 196.577 313.912 196.577 311.602Z" fill="#0582C1"/>
<path d="M294.818 320.724C299.85 319.905 303.265 315.162 302.447 310.13C301.628 305.098 296.885 301.683 291.853 302.502C286.821 303.321 283.406 308.063 284.225 313.095C285.043 318.127 289.786 321.543 294.818 320.724Z" fill="#FFBF4D"/>
<path d="M297.534 311.602C297.534 309.292 295.661 307.419 293.351 307.419C291.041 307.419 289.168 309.292 289.168 311.602C289.168 313.912 291.041 315.785 293.351 315.785C295.661 315.785 297.534 313.912 297.534 311.602Z" fill="#0582C1"/>
<path d="M371.707 390.274H324.934L332.089 372.931V372.921L334.966 365.923L335.759 364.005L337.051 360.883L337.315 360.247L340.193 353.249L340.722 351.977L345.821 339.596C346.741 337.364 349.902 337.364 350.822 339.596L355.921 351.977L356.45 353.249L359.327 360.247L359.591 360.883L360.883 364.005L361.676 365.923L364.554 372.921V372.931L371.707 390.274Z" fill="#FFBF4D"/>
<path opacity="0.29" d="M327.998 382.838L324.934 390.273H371.71L368.645 382.838H327.998Z" fill="#F98D2B"/>
<path d="M374.766 385.828H321.195V393.401H374.766V385.828Z" fill="#79C9E8"/>
<path d="M374.765 385.828H363.191V393.401H374.765V385.828Z" fill="#49B4D6"/>
<path opacity="0.29" d="M369.866 385.825H363.25L357.935 372.935V372.925L355.058 365.927L354.265 364.009L352.973 360.887L352.709 360.251L349.832 353.253L349.303 351.981L345.016 341.558L345.819 339.601C346.739 337.369 349.9 337.369 350.82 339.601L355.919 351.982L356.448 353.254L359.325 360.252L359.589 360.888L360.881 364.01L361.674 365.928L364.552 372.926V372.936L369.866 385.825Z" fill="#F98D2B"/>
<path d="M359.324 360.247H337.312L340.19 353.249H356.447L359.324 360.247Z" fill="#0582C1"/>
<path d="M364.551 372.921V372.931H332.086V372.921L334.964 365.923H361.673L364.551 372.921Z" fill="#0582C1"/>
<path d="M359.325 360.247H352.709L349.832 353.249H356.448L359.325 360.247Z" fill="#00668E"/>
<path d="M364.553 372.921V372.931H357.936V372.921L355.059 365.923H361.675L364.553 372.921Z" fill="#00668E"/>
<path d="M73.5575 220.208C77.0525 220.208 80.0905 217.67 80.5625 214.208C80.6475 213.587 80.6905 212.954 80.6905 212.31C80.6905 204.601 74.4405 198.352 66.7315 198.352C66.4155 198.352 66.1025 198.366 65.7915 198.387C65.1545 190.785 58.7865 184.812 51.0195 184.812C42.8295 184.812 36.1915 191.452 36.1915 199.642C36.1915 200.005 36.2095 200.364 36.2345 200.721C33.9105 199.423 31.2015 198.729 28.3215 198.861C20.8735 199.202 14.7535 205.16 14.2265 212.598C14.2225 212.657 14.2185 212.716 14.2155 212.775C13.9755 216.82 17.2455 220.212 21.2975 220.212H73.5575V220.208Z" fill="#D7F0F9"/>
<path d="M406.69 231.172C417.728 231.172 418.339 214.56 407.314 214.024C407.013 214.009 406.71 214.002 406.405 214.002C404.437 214.002 402.542 214.314 400.764 214.885C399.288 205.893 391.485 199.032 382.076 199.032C372.46 199.032 364.523 206.199 363.302 215.483C361.02 214.389 358.465 213.776 355.765 213.776C354.257 213.776 352.794 213.967 351.398 214.327C341.746 216.813 343.772 231.173 353.739 231.173H406.69V231.172Z" fill="#D7F0F9"/>
<path d="M274.135 149.323C285.17 149.323 285.781 132.716 274.759 132.18C274.458 132.165 274.155 132.158 273.85 132.158C271.883 132.158 269.988 132.47 268.211 133.041C266.736 124.052 258.935 117.193 249.529 117.193C239.916 117.193 231.981 124.358 230.761 133.639C228.48 132.545 225.925 131.932 223.226 131.932C221.719 131.932 220.256 132.123 218.861 132.482C209.212 134.967 211.237 149.323 221.201 149.323H274.135Z" fill="#D7F0F9"/>
<path d="M98.4472 180.018C113.058 180.018 124.902 168.174 124.902 153.563C124.902 138.953 113.058 127.108 98.4472 127.108C83.8365 127.108 71.9922 138.953 71.9922 153.563C71.9922 168.174 83.8365 180.018 98.4472 180.018Z" fill="#FFBF4D"/>
<path d="M98.6644 127.113C105.859 131.841 110.613 139.98 110.613 149.232C110.613 163.843 98.7694 175.687 84.1584 175.687C84.0854 175.687 84.0134 175.682 83.9414 175.682C88.1074 178.42 93.0894 180.017 98.4474 180.017C113.058 180.017 124.902 168.173 124.902 153.562C124.902 139.025 113.174 127.231 98.6644 127.113Z" fill="#FF9F50"/>
<defs>
<linearGradient id="paint0_linear_3364_2" x1="243.416" y1="361.343" x2="243.416" y2="337.288" gradientUnits="userSpaceOnUse">
<stop stop-color="white"/>
<stop offset="1" stop-color="white" stop-opacity="0"/>
</linearGradient>
</defs>
</svg>
