<svg width="253" height="29" viewBox="0 0 253 29" fill="none" xmlns="http://www.w3.org/2000/svg">
<path d="M0.1 22V0.549999H18.07C20.29 0.549999 22.01 1.11 23.23 2.23C24.47 3.35 25.09 5.05 25.09 7.33C25.09 9.61 24.47 11.31 23.23 12.43C22.01 13.55 20.29 14.11 18.07 14.11H4.9V22H0.1ZM17.5 4.45H4.9V10.18L17.5 10.21C18.38 10.21 19.05 9.99 19.51 9.55C19.99 9.11 20.23 8.37 20.23 7.33C20.23 6.27 19.99 5.53 19.51 5.11C19.05 4.67 18.38 4.45 17.5 4.45ZM35.5485 22.15C32.8685 22.15 30.7785 21.49 29.2785 20.17C27.7785 18.83 27.0285 16.87 27.0285 14.29C27.0285 11.69 27.7785 9.73 29.2785 8.41C30.7785 7.07 32.8685 6.4 35.5485 6.4H41.0985C43.7785 6.4 45.8685 7.07 47.3685 8.41C48.8685 9.73 49.6185 11.69 49.6185 14.29C49.6185 16.87 48.8685 18.83 47.3685 20.17C45.8685 21.49 43.7785 22.15 41.0985 22.15H35.5485ZM35.5485 18.7H41.0985C42.3985 18.7 43.3885 18.34 44.0685 17.62C44.7685 16.9 45.1185 15.79 45.1185 14.29C45.1185 12.77 44.7685 11.65 44.0685 10.93C43.3885 10.21 42.3985 9.85 41.0985 9.85H35.5485C34.2485 9.85 33.2485 10.21 32.5485 10.93C31.8685 11.65 31.5285 12.77 31.5285 14.29C31.5285 15.79 31.8685 16.9 32.5485 17.62C33.2485 18.34 34.2485 18.7 35.5485 18.7ZM52.3258 22V6.55H72.3358C74.0958 6.55 75.3858 6.99 76.2058 7.87C77.0258 8.73 77.4358 9.87 77.4358 11.29V22H73.0858V11.83C73.0858 10.61 72.4658 10 71.2258 10H67.0558V22H62.7058V10H56.6758V22H52.3258ZM88.5173 22.15C85.8373 22.15 83.7473 21.49 82.2473 20.17C80.7473 18.83 79.9973 16.87 79.9973 14.29C79.9973 11.69 80.7473 9.73 82.2473 8.41C83.7473 7.07 85.8373 6.4 88.5173 6.4H94.0673C96.7473 6.4 98.8373 7.07 100.337 8.41C101.837 9.73 102.587 11.69 102.587 14.29C102.587 16.87 101.837 18.83 100.337 20.17C98.8373 21.49 96.7473 22.15 94.0673 22.15H88.5173ZM88.5173 18.7H94.0673C95.3673 18.7 96.3573 18.34 97.0373 17.62C97.7373 16.9 98.0873 15.79 98.0873 14.29C98.0873 12.77 97.7373 11.65 97.0373 10.93C96.3573 10.21 95.3673 9.85 94.0673 9.85H88.5173C87.2173 9.85 86.2173 10.21 85.5173 10.93C84.8373 11.65 84.4973 12.77 84.4973 14.29C84.4973 15.79 84.8373 16.9 85.5173 17.62C86.2173 18.34 87.2173 18.7 88.5173 18.7ZM108.955 28.75V25.3H118.015C119.215 25.3 119.815 24.69 119.815 23.47V22H113.215C110.535 22 108.445 21.34 106.945 20.02C105.445 18.7 104.695 16.79 104.695 14.29C104.695 11.77 105.445 9.85 106.945 8.53C108.445 7.21 110.535 6.55 113.215 6.55H124.165V24.01C124.165 25.43 123.755 26.57 122.935 27.43C122.115 28.31 120.835 28.75 119.095 28.75H108.955ZM113.215 18.55H119.815V10H113.215C111.915 10 110.915 10.36 110.215 11.08C109.535 11.78 109.195 12.85 109.195 14.29C109.195 15.71 109.535 16.78 110.215 17.5C110.915 18.2 111.915 18.55 113.215 18.55ZM131.582 22C129.962 22 128.722 21.59 127.862 20.77C127.002 19.95 126.572 18.78 126.572 17.26C126.572 15.76 127.002 14.6 127.862 13.78C128.722 12.96 129.962 12.55 131.582 12.55H143.102V11.83C143.102 10.61 142.502 10 141.302 10H128.582V6.55H142.442C144.262 6.55 145.552 6.97 146.312 7.81C147.072 8.63 147.452 9.79 147.452 11.29V22H131.582ZM132.362 18.55H143.102V16H132.362C131.982 16 131.682 16.12 131.462 16.36C131.262 16.58 131.162 16.88 131.162 17.26C131.162 17.64 131.262 17.95 131.462 18.19C131.682 18.43 131.982 18.55 132.362 18.55ZM158.803 22C157.063 22 155.783 21.57 154.963 20.71C154.143 19.83 153.733 18.68 153.733 17.26V10H149.263V6.55H153.733V1.81H158.083V6.55H164.503V10H158.083V16.72C158.083 17.94 158.683 18.55 159.883 18.55H165.343V22H158.803ZM175.5 22.15C172.82 22.15 170.73 21.49 169.23 20.17C167.73 18.83 166.98 16.87 166.98 14.29C166.98 11.69 167.73 9.73 169.23 8.41C170.73 7.07 172.82 6.4 175.5 6.4H181.05C183.73 6.4 185.82 7.07 187.32 8.41C188.82 9.73 189.57 11.69 189.57 14.29C189.57 16.87 188.82 18.83 187.32 20.17C185.82 21.49 183.73 22.15 181.05 22.15H175.5ZM175.5 18.7H181.05C182.35 18.7 183.34 18.34 184.02 17.62C184.72 16.9 185.07 15.79 185.07 14.29C185.07 12.77 184.72 11.65 184.02 10.93C183.34 10.21 182.35 9.85 181.05 9.85H175.5C174.2 9.85 173.2 10.21 172.5 10.93C171.82 11.65 171.48 12.77 171.48 14.29C171.48 15.79 171.82 16.9 172.5 17.62C173.2 18.34 174.2 18.7 175.5 18.7ZM192.277 22V6.55H204.097C205.837 6.55 207.117 6.99 207.937 7.87C208.757 8.73 209.167 9.87 209.167 11.29V14.5H204.757V11.83C204.757 10.63 204.157 10.03 202.957 10.03H196.687V22H192.277ZM216.474 22C214.714 22 213.424 21.56 212.604 20.68C211.804 19.8 211.404 18.66 211.404 17.26V6.55H215.754V16.75C215.754 17.95 216.354 18.55 217.554 18.55H223.794C224.994 18.55 225.594 17.95 225.594 16.75V6.55H229.944V17.26C229.944 18.66 229.534 19.8 228.714 20.68C227.914 21.56 226.634 22 224.874 22H216.474ZM232.578 22.15V18.7H247.277C248.118 18.7 248.538 18.23 248.538 17.29C248.538 16.37 248.118 15.91 247.277 15.91H237.768C235.988 15.91 234.638 15.51 233.718 14.71C232.798 13.89 232.338 12.72 232.338 11.2C232.338 9.66 232.798 8.48 233.718 7.66C234.658 6.82 236.008 6.4 237.768 6.4H251.448V9.85H237.978C237.118 9.85 236.688 10.27 236.688 11.11C236.688 11.53 236.808 11.86 237.048 12.1C237.288 12.34 237.598 12.46 237.978 12.46H248.058C249.618 12.46 250.808 12.87 251.628 13.69C252.468 14.49 252.888 15.66 252.888 17.2C252.888 18.76 252.468 19.98 251.628 20.86C250.788 21.72 249.598 22.15 248.058 22.15H232.578Z" fill="white"/>
</svg>
