<svg width="20" height="12" viewBox="0 0 20 12" fill="none" xmlns="http://www.w3.org/2000/svg">
<path fill-rule="evenodd" clip-rule="evenodd" d="M17.8021 8.41176C17.8021 8.41176 19.4191 10.0878 19.8191 10.8634C19.8269 10.8746 19.8329 10.887 19.8371 10.9001C20.0001 11.1866 20.0401 11.4112 19.9601 11.5771C19.8251 11.851 19.3681 11.9885 19.2131 12H16.3551C16.1561 12 15.7421 11.9454 15.2381 11.5802C14.8531 11.2979 14.4701 10.833 14.0991 10.3785C13.5451 9.70369 13.0661 9.11807 12.5811 9.11807C12.5198 9.11793 12.459 9.12858 12.4011 9.14955C12.0341 9.2713 11.5681 9.82019 11.5681 11.2821C11.5681 11.7397 11.2241 12 10.9831 12H9.67409C9.22809 12 6.90609 11.8363 4.84709 9.55781C2.32409 6.76824 0.05809 1.17229 0.03609 1.12297C-0.10491 0.760889 0.19109 0.563583 0.51109 0.563583H3.39709C3.78409 0.563583 3.91009 0.809166 3.99809 1.02956C4.10009 1.28249 4.47809 2.29421 5.09809 3.43082C6.10209 5.28004 6.71909 6.03253 7.21209 6.03253C7.30471 6.03282 7.39577 6.00748 7.47609 5.95907C8.12009 5.58755 8.00009 3.17369 7.97009 2.67623C7.97009 2.57967 7.96909 1.59839 7.63909 1.12402C7.40309 0.783978 7.00109 0.65174 6.75809 0.603463C6.82309 0.50481 6.96109 0.353682 7.13809 0.264474C7.57909 0.0335839 8.37609 0 9.16709 0H9.60609C10.4641 0.012594 10.6861 0.0703165 10.9981 0.153227C11.6261 0.310652 11.6381 0.7378 11.5831 2.19241C11.5671 2.60801 11.5501 3.07609 11.5501 3.62708C11.5501 3.74462 11.5451 3.87581 11.5451 4.0091C11.5261 4.75529 11.5011 5.59594 12.0031 5.94123C12.0682 5.9838 12.1434 6.00634 12.2201 6.0063C12.3941 6.0063 12.9151 6.0063 14.3281 3.46126C14.9481 2.33724 15.4281 1.01172 15.4611 0.912017C15.4891 0.856393 15.5731 0.700017 15.6751 0.637047C15.7476 0.596532 15.8289 0.576292 15.9111 0.578275H19.3061C19.6761 0.578275 19.9271 0.637048 19.9761 0.783978C20.0581 1.02221 19.9601 1.74952 18.4101 3.94927C18.1491 4.31555 17.9201 4.6325 17.7191 4.90957C16.3141 6.84485 16.3141 6.94245 17.8021 8.41176Z" fill="#2787F5"/>
</svg>
