<svg width="100" height="97" viewBox="0 0 100 97" fill="none" xmlns="http://www.w3.org/2000/svg">
<rect x="5.14844" y="46.498" width="75.0016" height="35.7342" rx="5" fill="#AAAAAA"/>
<rect x="29.8867" y="46.9902" width="50.575" height="35.6324" rx="5" fill="#DDDDDD"/>
<rect x="0.738281" y="29.6797" width="81.6194" height="25.2242" rx="5.5" fill="#F14E31"/>
<path d="M18.8205 37.3476C17.945 35.1371 18.2598 32.6603 19.9602 31.0391C23.667 27.5049 31.6371 21.4394 45.2409 18.0577C59.3936 14.5396 70.4985 16.8303 75.7826 18.4708C77.9443 19.1418 79.4124 21.019 79.8457 23.2206L82.9845 39.1676C83.7393 43.0025 81.1912 46.6511 77.3267 47.2689L31.6587 54.5699C28.3666 55.0962 25.1151 53.241 23.8847 50.1344L18.8205 37.3476Z" fill="#F14E31"/>
<path d="M4.36846 27.1711C11.1621 22.1994 29.5896 21.3703 41.7642 26.3419C50.9145 30.0785 52.6945 33.3477 53.0142 34.7413C53.1217 35.2098 52.9718 35.6805 52.7848 36.1233L46.7868 50.3212C45.6138 53.0979 42.8923 54.9026 39.878 54.9026H7.26402C3.52017 54.9026 0.352305 52.1392 0.141272 48.4013C-0.261032 41.2756 -0.0731956 30.4216 4.36846 27.1711Z" fill="#F14E31"/>
<path d="M40.0242 35.4592C47.9895 29.1561 67.6693 30.4373 70.8762 30.6929C71.1814 30.7172 71.4747 30.7251 71.7807 30.7139L92.7419 29.9456C96.7058 29.8004 99.9983 32.9744 99.9983 36.9409V41.5903C99.9983 43.3898 99.3053 45.1202 98.0631 46.4222L91.037 53.7868C89.7161 55.1714 87.8859 55.9548 85.9722 55.9548H53.6738H22.6319V55.9548C21.0958 55.9548 20.3458 54.0806 21.4579 53.0209L28.8716 45.9565C29.2281 45.6167 29.5421 45.2338 29.8482 44.8481C30.8004 43.6484 33.5157 40.6094 40.0242 35.4592Z" fill="#FF6347"/>
<rect x="63" y="57" width="9" height="11" rx="4.5" fill="#444444"/>
<rect x="42" y="57" width="9" height="11" rx="4.5" fill="#444444"/>
<path d="M52 71C53.6471 72.5092 58.3529 74.6222 64 71" stroke="#444444" stroke-width="4" stroke-linecap="round"/>
</svg>
