<svg width="100" height="100" viewBox="0 0 100 100" fill="none" xmlns="http://www.w3.org/2000/svg">
<rect width="22.7596" height="55.7834" rx="11.3798" transform="matrix(0.968916 -0.24739 0.270697 0.962665 42.1758 46.2988)" fill="#F14E31"/>
<rect x="33.3008" y="43.0811" width="30.4401" height="13.2945" rx="5.5" fill="#F14E31"/>
<rect width="22.7596" height="55.7834" rx="11.3798" transform="matrix(0.968916 0.24739 -0.270697 0.962665 33.1758 40.668)" fill="#FF6347"/>
<rect x="26.9492" y="20.1221" width="43.1234" height="20.546" rx="5" fill="#AAAAAA"/>
<rect x="24.4102" y="10.4521" width="46.9284" height="14.5031" rx="5.5" fill="#F14E31"/>
<path d="M35.2428 16.2727C34.4654 14.1115 34.8095 11.721 36.5528 10.2636C38.9978 8.21955 43.3163 5.43138 49.9999 3.76996C56.9934 2.03152 62.6925 2.75996 66.0852 3.59783C68.2811 4.14017 69.7565 6.02668 70.1898 8.22826L71.173 13.2235C71.9061 16.9481 69.5215 20.5201 65.799 21.2734L45.0376 25.4751C41.5826 26.1744 38.0964 24.2061 36.9004 20.881L35.2428 16.2727Z" fill="#F14E31"/>
<path d="M26.5 9.0104C30.4061 6.15182 41.0013 5.67514 48.0013 8.53364C52.7025 10.4534 54.02 12.1586 54.3784 13.0715C54.554 13.5189 54.4053 13.9978 54.2182 14.4406L51.7117 20.3737C50.5387 23.1504 47.8173 24.9551 44.8029 24.9551H30.9408C27.197 24.9551 23.9876 22.1868 23.9882 18.4429C23.9888 14.7146 24.477 10.4909 26.5 9.0104Z" fill="#F14E31"/>
<path d="M47 13.7752C51.4402 10.2616 62.2113 10.8469 64.5443 11.0197C64.8496 11.0424 65.1482 11.0508 65.4542 11.0396L75.3837 10.6757C78.7155 10.5536 81.4831 13.2216 81.4831 16.5557C81.4831 18.0683 80.9006 19.5229 79.8564 20.6173L77.2098 23.3915C75.8889 24.7761 74.0587 25.5595 72.145 25.5595H54.8481H37C36.1168 25.5595 35.6856 24.4819 36.325 23.8726L40.5876 19.8108C40.7926 19.6154 40.9731 19.3953 41.1492 19.1735C41.6966 18.4837 43.2578 16.7364 47 13.7752Z" fill="#FF6347"/>
</svg>
