<svg width="44" height="56" viewBox="0 0 44 56" fill="none" xmlns="http://www.w3.org/2000/svg">
<path d="M42.8289 31.172C43.5787 31.9221 44 32.9393 44 34C44 35.0607 43.5787 36.0779 42.8289 36.828L24.8289 54.828C24.0787 55.5779 23.0615 55.9991 22.0009 55.9991C20.9402 55.9991 19.923 55.5779 19.1729 54.828L1.17286 36.828C0.444225 36.0736 0.04105 35.0632 0.0501633 34.0144C0.0592766 32.9656 0.47995 31.9624 1.22158 31.2207C1.96321 30.4791 2.96646 30.0584 4.01525 30.0493C5.06404 30.0402 6.07445 30.4434 6.82886 31.172L18.0009 42L18.0009 4C18.0009 2.93913 18.4223 1.92172 19.1724 1.17157C19.9226 0.421427 20.94 0 22.0009 0C23.0617 0 24.0791 0.421427 24.8293 1.17157C25.5794 1.92172 26.0009 2.93913 26.0009 4L26.0009 42L37.1729 31.172C37.923 30.4221 38.9402 30.0009 40.0009 30.0009C41.0615 30.0009 42.0787 30.4221 42.8289 31.172Z" fill="white"/>
</svg>
