<svg width="41" height="40" viewBox="0 0 41 40" fill="none" xmlns="http://www.w3.org/2000/svg">
<path d="M39.1663 20C39.1663 30.4894 30.6256 39 20.0812 39C9.53678 39 0.996094 30.4894 0.996094 20C0.996094 9.51059 9.53678 1 20.0812 1C30.6256 1 39.1663 9.51059 39.1663 20Z" stroke="#111111" stroke-width="2"/>
<path d="M28.8221 20.7071C29.2126 20.3166 29.2126 19.6834 28.8221 19.2929L22.4581 12.9289C22.0676 12.5384 21.4344 12.5384 21.0439 12.9289C20.6534 13.3195 20.6534 13.9526 21.0439 14.3431L26.7007 20L21.0439 25.6569C20.6534 26.0474 20.6534 26.6805 21.0439 27.0711C21.4344 27.4616 22.0676 27.4616 22.4581 27.0711L28.8221 20.7071ZM12.0469 21L28.115 21L28.115 19L12.0469 19L12.0469 21Z" fill="#111111"/>
</svg>
