<svg width="41" height="40" viewBox="0 0 41 40" fill="none" xmlns="http://www.w3.org/2000/svg">
<path d="M1.00166 20C1.00166 30.4894 9.54235 39 20.0868 39C30.6312 39 39.1719 30.4894 39.1719 20C39.1719 9.51059 30.6312 1 20.0868 1C9.54235 1 1.00166 9.51059 1.00166 20Z" stroke="#111111" stroke-width="2"/>
<path d="M11.3459 20.7071C10.9554 20.3166 10.9554 19.6834 11.3459 19.2929L17.7099 12.9289C18.1004 12.5384 18.7336 12.5384 19.1241 12.9289C19.5146 13.3195 19.5146 13.9526 19.1241 14.3431L13.4672 20L19.1241 25.6569C19.5146 26.0474 19.5146 26.6805 19.1241 27.0711C18.7336 27.4616 18.1004 27.4616 17.7099 27.0711L11.3459 20.7071ZM28.1211 21L12.053 21L12.053 19L28.1211 19L28.1211 21Z" fill="#111111"/>
</svg>
