<svg width="24" height="24" viewBox="0 0 24 24" fill="none" xmlns="http://www.w3.org/2000/svg">
<path d="M12 9C11.4696 9 10.9609 9.21071 10.5858 9.58579C10.2107 9.96086 10 10.4696 10 11C10 11.5304 10.2107 12.0391 10.5858 12.4142C10.9609 12.7893 11.4696 13 12 13C12.5304 13 13.0391 12.7893 13.4142 12.4142C13.7893 12.0391 14 11.5304 14 11C14 10.4696 13.7893 9.96086 13.4142 9.58579C13.0391 9.21071 12.5304 9 12 9ZM8 17.5C8 16.7044 8.31607 15.9413 8.87868 15.3787C9.44129 14.8161 10.2044 14.5 11 14.5H13C13.7956 14.5 14.5587 14.8161 15.1213 15.3787C15.6839 15.9413 16 16.7044 16 17.5C16 17.7652 15.8946 18.0196 15.7071 18.2071C15.5196 18.3946 15.2652 18.5 15 18.5H9C8.73478 18.5 8.48043 18.3946 8.29289 18.2071C8.10536 18.0196 8 17.7652 8 17.5Z" fill="black"/>
<path fill-rule="evenodd" clip-rule="evenodd" d="M7 2.25C6.27065 2.25 5.57118 2.53973 5.05546 3.05546C4.53973 3.57118 4.25 4.27065 4.25 5V19C4.25 19.7293 4.53973 20.4288 5.05546 20.9445C5.57118 21.4603 6.27065 21.75 7 21.75H17C17.7293 21.75 18.4288 21.4603 18.9445 20.9445C19.4603 20.4288 19.75 19.7293 19.75 19V8.198C19.75 7.83207 19.6353 7.47534 19.422 7.178L16.408 2.98C16.2461 2.75427 16.0328 2.57033 15.7857 2.44339C15.5386 2.31645 15.2648 2.25016 14.987 2.25H7ZM5.75 5C5.75 4.31 6.31 3.75 7 3.75H14.25V8.147C14.25 8.561 14.586 8.897 15 8.897H18.25V19C18.25 19.69 17.69 20.25 17 20.25H7C6.31 20.25 5.75 19.69 5.75 19V5Z" fill="black"/>
</svg>
