<svg width="560" height="291" viewBox="0 0 560 291" fill="none" xmlns="http://www.w3.org/2000/svg">
<line x1="40.5" y1="2.18558e-08" x2="40.5" y2="291" stroke="#AAAAAA"/>
<line x1="200.5" y1="2.18558e-08" x2="200.5" y2="291" stroke="#AAAAAA"/>
<line x1="360.5" y1="2.18558e-08" x2="360.5" y2="291" stroke="#AAAAAA"/>
<line x1="120.5" y1="2.18558e-08" x2="120.5" y2="291" stroke="#AAAAAA"/>
<line x1="280.5" y1="2.18558e-08" x2="280.5" y2="291" stroke="#AAAAAA"/>
<line x1="440.5" y1="2.18558e-08" x2="440.5" y2="291" stroke="#AAAAAA"/>
<line x1="520.5" y1="2.18558e-08" x2="520.5" y2="291" stroke="#AAAAAA"/>
<line x1="80.5" y1="2.18558e-08" x2="80.5" y2="291" stroke="#AAAAAA"/>
<line x1="240.5" y1="2.18558e-08" x2="240.5" y2="291" stroke="#AAAAAA"/>
<line x1="400.5" y1="2.18558e-08" x2="400.5" y2="291" stroke="#AAAAAA"/>
<line x1="160.5" y1="2.18558e-08" x2="160.5" y2="291" stroke="#AAAAAA"/>
<line x1="320.5" y1="2.18558e-08" x2="320.5" y2="291" stroke="#AAAAAA"/>
<line x1="480.5" y1="2.18558e-08" x2="480.5" y2="291" stroke="#AAAAAA"/>
<line y1="39.5" x2="560" y2="39.5" stroke="#AAAAAA"/>
<line y1="119.5" x2="560" y2="119.5" stroke="#AAAAAA"/>
<line y1="199.5" x2="560" y2="199.5" stroke="#AAAAAA"/>
<line y1="279.5" x2="560" y2="279.5" stroke="#AAAAAA"/>
<line y1="79.5" x2="560" y2="79.5" stroke="#AAAAAA"/>
<line y1="159.5" x2="560" y2="159.5" stroke="#AAAAAA"/>
<line y1="239.5" x2="560" y2="239.5" stroke="#AAAAAA"/>
</svg>
