<svg width="193" height="234" viewBox="0 0 193 234" fill="none" xmlns="http://www.w3.org/2000/svg">
<path d="M0 16C0 7.16344 7.16344 0 16 0H177C185.837 0 193 7.16344 193 16V218C193 226.837 185.837 234 177 234H18C8.05887 234 0 225.941 0 216V16Z" fill="#D9D9D9"/>
<line y1="80.5" x2="193" y2="80.5" stroke="#AAAAAA"/>
<line y1="160.5" x2="193" y2="160.5" stroke="#AAAAAA"/>
<line y1="40.5" x2="193" y2="40.5" stroke="#AAAAAA"/>
<line y1="120.5" x2="193" y2="120.5" stroke="#AAAAAA"/>
<line y1="200.5" x2="193" y2="200.5" stroke="#AAAAAA"/>
<line x1="40.5" y1="2.18558e-08" x2="40.5" y2="234" stroke="#AAAAAA"/>
<line x1="120.5" y1="2.18558e-08" x2="120.5" y2="234" stroke="#AAAAAA"/>
<line x1="80.5" y1="2.18558e-08" x2="80.5" y2="234" stroke="#AAAAAA"/>
<line x1="160.5" y1="2.18558e-08" x2="160.5" y2="234" stroke="#AAAAAA"/>
</svg>
