<svg width="24" height="40" viewBox="0 0 24 40" fill="none" xmlns="http://www.w3.org/2000/svg">
<path d="M24 11.6745C24.0026 9.10494 23.0885 6.60649 21.3997 4.56724C19.7109 2.52799 17.3418 1.06208 14.6606 0.397205C11.9793 -0.267665 9.13592 -0.0942757 6.57205 0.890438C4.00817 1.87515 1.86734 3.61607 0.482072 5.84278C0.0047005 6.6086 -0.124484 7.5186 0.122943 8.37259C0.370369 9.22659 0.974137 9.95461 1.80142 10.3965C2.62871 10.8384 3.61174 10.958 4.53428 10.729C5.45681 10.4999 6.24327 9.94101 6.72064 9.17519C7.1957 8.41551 7.87809 7.78475 8.69944 7.34611C9.52078 6.90746 10.4522 6.67633 11.4005 6.67588C12.8326 6.67588 14.206 7.20252 15.2187 8.13994C16.2314 9.07736 16.8003 10.3488 16.8003 11.6745C16.8003 13.0002 16.2314 14.2716 15.2187 15.2091C14.206 16.1465 12.8326 16.6731 11.4005 16.6731H11.3897C11.1575 16.6947 10.9283 16.7383 10.7057 16.8031C10.464 16.8258 10.2252 16.8705 9.99292 16.9364C9.79532 17.0363 9.60848 17.1535 9.43494 17.2863C9.22815 17.3907 9.03284 17.5134 8.85176 17.6528C8.68991 17.832 8.54875 18.0263 8.43058 18.2327C8.29904 18.3827 8.18219 18.5433 8.08139 18.7126C8.00296 18.9423 7.95108 19.1791 7.92659 19.419C7.86466 19.6104 7.82247 19.8068 7.8006 20.0055V23.3379L7.8078 23.3746V25.0108C7.8097 25.8935 8.18982 26.7394 8.86472 27.3629C9.53961 27.9864 10.4542 28.3366 11.4077 28.3366H11.4185C11.8912 28.3357 12.3591 28.2486 12.7955 28.0803C13.2319 27.9121 13.6282 27.6659 13.9618 27.3558C14.2955 27.0457 14.5598 26.6779 14.7399 26.2732C14.9199 25.8686 15.0121 25.4351 15.0111 24.9975L15.0039 22.7914C17.5946 22.079 19.8685 20.6131 21.4888 18.6108C23.1091 16.6085 23.9897 14.1763 24 11.6745ZM8.86976 34.3016C8.36426 34.7657 8.01878 35.3581 7.877 36.004C7.73521 36.6499 7.8035 37.3201 8.07323 37.9301C8.34295 38.54 8.80199 39.0622 9.39231 39.4307C9.98263 39.7991 10.6777 39.9972 11.3897 40C12.3438 39.9924 13.2585 39.6465 13.9456 39.0336C14.614 38.4015 14.9883 37.5521 14.9883 36.6676C14.9883 35.783 14.614 34.9337 13.9456 34.3016C13.2565 33.7071 12.3496 33.3765 11.4077 33.3765C10.4657 33.3765 9.55881 33.7071 8.86976 34.3016Z" fill="#FF6347"/>
</svg>
