<svg width="26" height="24" viewBox="0 0 26 24" fill="none" xmlns="http://www.w3.org/2000/svg">
<path d="M23.6663 19.3327C24.18 19.3329 24.6738 19.5308 25.0455 19.8852C25.4172 20.2397 25.6384 20.7235 25.663 21.2366C25.6877 21.7496 25.5141 22.2525 25.1781 22.6409C24.8421 23.0294 24.3696 23.2738 23.8583 23.3233L23.6663 23.3327H2.33301C1.81939 23.3324 1.32555 23.1346 0.953826 22.7801C0.582103 22.4257 0.360992 21.9418 0.336309 21.4288C0.311626 20.9158 0.485264 20.4129 0.821242 20.0244C1.15722 19.6359 1.62978 19.3916 2.14101 19.342L2.33301 19.3327H23.6663ZM23.6663 9.99935C24.1968 9.99935 24.7055 10.2101 25.0806 10.5851C25.4556 10.9602 25.6663 11.4689 25.6663 11.9993C25.6663 12.5298 25.4556 13.0385 25.0806 13.4136C24.7055 13.7886 24.1968 13.9993 23.6663 13.9993H2.33301C1.80257 13.9993 1.29387 13.7886 0.918794 13.4136C0.543722 13.0385 0.333008 12.5298 0.333008 11.9993C0.333008 11.4689 0.543722 10.9602 0.918794 10.5851C1.29387 10.2101 1.80257 9.99935 2.33301 9.99935H23.6663ZM23.6663 0.666016C24.1968 0.666016 24.7055 0.876729 25.0806 1.2518C25.4556 1.62687 25.6663 2.13558 25.6663 2.66602C25.6663 3.19645 25.4556 3.70516 25.0806 4.08023C24.7055 4.4553 24.1968 4.66602 23.6663 4.66602H2.33301C1.80257 4.66602 1.29387 4.4553 0.918794 4.08023C0.543722 3.70516 0.333008 3.19645 0.333008 2.66602C0.333008 2.13558 0.543722 1.62687 0.918794 1.2518C1.29387 0.876729 1.80257 0.666016 2.33301 0.666016H23.6663Z" fill="white"/>
</svg>
