<svg width="40" height="40" viewBox="0 0 40 40" fill="none" xmlns="http://www.w3.org/2000/svg">
<rect width="40" height="40" rx="15" fill="#D9D9D9"/>
<path d="M14 27C14 28.1 14.9 29 16 29H24C25.1 29 26 28.1 26 27V15H14V27ZM17.17 20.59C16.983 20.403 16.878 20.1494 16.878 19.885C16.878 19.6206 16.983 19.367 17.17 19.18C17.357 18.993 17.6106 18.888 17.875 18.888C18.1394 18.888 18.393 18.993 18.58 19.18L20 20.59L21.41 19.18C21.597 18.993 21.8506 18.888 22.115 18.888C22.3794 18.888 22.633 18.993 22.82 19.18C23.007 19.367 23.112 19.6206 23.112 19.885C23.112 20.1494 23.007 20.403 22.82 20.59L21.41 22L22.82 23.41C22.9126 23.5026 22.986 23.6125 23.0361 23.7335C23.0862 23.8544 23.112 23.9841 23.112 24.115C23.112 24.2459 23.0862 24.3756 23.0361 24.4965C22.986 24.6175 22.9126 24.7274 22.82 24.82C22.7274 24.9126 22.6175 24.986 22.4965 25.0361C22.3756 25.0862 22.2459 25.112 22.115 25.112C21.9841 25.112 21.8544 25.0862 21.7335 25.0361C21.6125 24.986 21.5026 24.9126 21.41 24.82L20 23.41L18.59 24.82C18.4974 24.9126 18.3875 24.986 18.2665 25.0361C18.1456 25.0862 18.0159 25.112 17.885 25.112C17.7541 25.112 17.6244 25.0862 17.5035 25.0361C17.3825 24.986 17.2726 24.9126 17.18 24.82C17.0874 24.7274 17.014 24.6175 16.9639 24.4965C16.9138 24.3756 16.888 24.2459 16.888 24.115C16.888 23.9841 16.9138 23.8544 16.9639 23.7335C17.014 23.6125 17.0874 23.5026 17.18 23.41L18.59 22L17.17 20.59ZM26 12H23.5L22.79 11.29C22.61 11.11 22.35 11 22.09 11H17.91C17.65 11 17.39 11.11 17.21 11.29L16.5 12H14C13.45 12 13 12.45 13 13C13 13.55 13.45 14 14 14H26C26.55 14 27 13.55 27 13C27 12.45 26.55 12 26 12Z" fill="#777777"/>
</svg>
