<svg width="30" height="30" viewBox="0 0 30 30" fill="none" xmlns="http://www.w3.org/2000/svg">
<circle cx="15" cy="15" r="15" fill="#FF6347"/>
<path d="M20.1101 10.3274C18.3501 9.12743 16.1767 9.68743 15.0034 11.0608C13.8301 9.68743 11.6567 9.12076 9.89673 10.3274C8.9634 10.9674 8.37673 12.0474 8.33673 13.1874C8.2434 15.7741 10.5367 17.8474 14.0367 21.0274L14.1034 21.0874C14.6101 21.5474 15.3901 21.5474 15.8967 21.0808L15.9701 21.0141C19.4701 17.8408 21.7567 15.7674 21.6701 13.1808C21.6301 12.0474 21.0434 10.9674 20.1101 10.3274ZM15.0701 20.0341L15.0034 20.1008L14.9367 20.0341C11.7634 17.1608 9.67006 15.2608 9.67006 13.3341C9.67006 12.0008 10.6701 11.0008 12.0034 11.0008C13.0301 11.0008 14.0301 11.6608 14.3834 12.5741H15.6301C15.9767 11.6608 16.9767 11.0008 18.0034 11.0008C19.3367 11.0008 20.3367 12.0008 20.3367 13.3341C20.3367 15.2608 18.2434 17.1608 15.0701 20.0341Z" fill="#F2F2F2"/>
</svg>
