<svg width="403" height="27" viewBox="0 0 403 27" fill="none" xmlns="http://www.w3.org/2000/svg">
<circle cx="1.5" cy="1.5" r="1.5" fill="#F8F5F5"/>
<circle cx="9.5" cy="1.5" r="1.5" fill="#F8F5F5"/>
<circle cx="17.5" cy="1.5" r="1.5" fill="#F8F5F5"/>
<circle cx="25.5" cy="1.5" r="1.5" fill="#F8F5F5"/>
<circle cx="33.5" cy="1.5" r="1.5" fill="#F8F5F5"/>
<circle cx="41.5" cy="1.5" r="1.5" fill="#F8F5F5"/>
<circle cx="49.5" cy="1.5" r="1.5" fill="#F8F5F5"/>
<circle cx="57.5" cy="1.5" r="1.5" fill="#F8F5F5"/>
<circle cx="65.5" cy="1.5" r="1.5" fill="#F8F5F5"/>
<circle cx="73.5" cy="1.5" r="1.5" fill="#F8F5F5"/>
<circle cx="81.5" cy="1.5" r="1.5" fill="#F8F5F5"/>
<circle cx="89.5" cy="1.5" r="1.5" fill="#F8F5F5"/>
<circle cx="97.5" cy="1.5" r="1.5" fill="#F8F5F5"/>
<circle cx="105.5" cy="1.5" r="1.5" fill="#F8F5F5"/>
<circle cx="113.5" cy="1.5" r="1.5" fill="#F8F5F5"/>
<circle cx="121.5" cy="1.5" r="1.5" fill="#F8F5F5"/>
<circle cx="129.5" cy="1.5" r="1.5" fill="#F8F5F5"/>
<circle cx="137.5" cy="1.5" r="1.5" fill="#F8F5F5"/>
<circle cx="145.5" cy="1.5" r="1.5" fill="#F8F5F5"/>
<circle cx="153.5" cy="1.5" r="1.5" fill="#F8F5F5"/>
<circle cx="161.5" cy="1.5" r="1.5" fill="#F8F5F5"/>
<circle cx="169.5" cy="1.5" r="1.5" fill="#F8F5F5"/>
<circle cx="177.5" cy="1.5" r="1.5" fill="#F8F5F5"/>
<circle cx="185.5" cy="1.5" r="1.5" fill="#F8F5F5"/>
<circle cx="193.5" cy="1.5" r="1.5" fill="#F8F5F5"/>
<circle cx="201.5" cy="1.5" r="1.5" fill="#F8F5F5"/>
<circle cx="209.5" cy="1.5" r="1.5" fill="#F8F5F5"/>
<circle cx="217.5" cy="1.5" r="1.5" fill="#F8F5F5"/>
<circle cx="225.5" cy="1.5" r="1.5" fill="#F8F5F5"/>
<circle cx="233.5" cy="1.5" r="1.5" fill="#F8F5F5"/>
<circle cx="241.5" cy="1.5" r="1.5" fill="#F8F5F5"/>
<circle cx="249.5" cy="1.5" r="1.5" fill="#F8F5F5"/>
<circle cx="257.5" cy="1.5" r="1.5" fill="#F8F5F5"/>
<circle cx="265.5" cy="1.5" r="1.5" fill="#F8F5F5"/>
<circle cx="273.5" cy="1.5" r="1.5" fill="#F8F5F5"/>
<circle cx="281.5" cy="1.5" r="1.5" fill="#F8F5F5"/>
<circle cx="289.5" cy="1.5" r="1.5" fill="#F8F5F5"/>
<circle cx="297.5" cy="1.5" r="1.5" fill="#F8F5F5"/>
<circle cx="305.5" cy="1.5" r="1.5" fill="#F8F5F5"/>
<circle cx="313.5" cy="1.5" r="1.5" fill="#F8F5F5"/>
<circle cx="321.5" cy="1.5" r="1.5" fill="#F8F5F5"/>
<circle cx="329.5" cy="1.5" r="1.5" fill="#F8F5F5"/>
<circle cx="337.5" cy="1.5" r="1.5" fill="#F8F5F5"/>
<circle cx="345.5" cy="1.5" r="1.5" fill="#F8F5F5"/>
<circle cx="353.5" cy="1.5" r="1.5" fill="#F8F5F5"/>
<circle cx="361.5" cy="1.5" r="1.5" fill="#F8F5F5"/>
<circle cx="369.5" cy="1.5" r="1.5" fill="#F8F5F5"/>
<circle cx="377.5" cy="1.5" r="1.5" fill="#F8F5F5"/>
<circle cx="385.5" cy="1.5" r="1.5" fill="#F8F5F5"/>
<circle cx="393.5" cy="1.5" r="1.5" fill="#F8F5F5"/>
<circle cx="401.5" cy="1.5" r="1.5" fill="#F8F5F5"/>
<circle cx="1.5" cy="9.5" r="1.5" fill="#F8F5F5"/>
<circle cx="9.5" cy="9.5" r="1.5" fill="#F8F5F5"/>
<circle cx="17.5" cy="9.5" r="1.5" fill="#F8F5F5"/>
<circle cx="25.5" cy="9.5" r="1.5" fill="#F8F5F5"/>
<circle cx="33.5" cy="9.5" r="1.5" fill="#F8F5F5"/>
<circle cx="41.5" cy="9.5" r="1.5" fill="#F8F5F5"/>
<circle cx="49.5" cy="9.5" r="1.5" fill="#F8F5F5"/>
<circle cx="57.5" cy="9.5" r="1.5" fill="#F8F5F5"/>
<circle cx="65.5" cy="9.5" r="1.5" fill="#F8F5F5"/>
<circle cx="73.5" cy="9.5" r="1.5" fill="#F8F5F5"/>
<circle cx="81.5" cy="9.5" r="1.5" fill="#F8F5F5"/>
<circle cx="89.5" cy="9.5" r="1.5" fill="#F8F5F5"/>
<circle cx="97.5" cy="9.5" r="1.5" fill="#F8F5F5"/>
<circle cx="105.5" cy="9.5" r="1.5" fill="#F8F5F5"/>
<circle cx="113.5" cy="9.5" r="1.5" fill="#F8F5F5"/>
<circle cx="121.5" cy="9.5" r="1.5" fill="#F8F5F5"/>
<circle cx="129.5" cy="9.5" r="1.5" fill="#F8F5F5"/>
<circle cx="137.5" cy="9.5" r="1.5" fill="#F8F5F5"/>
<circle cx="145.5" cy="9.5" r="1.5" fill="#F8F5F5"/>
<circle cx="153.5" cy="9.5" r="1.5" fill="#F8F5F5"/>
<circle cx="161.5" cy="9.5" r="1.5" fill="#F8F5F5"/>
<circle cx="169.5" cy="9.5" r="1.5" fill="#F8F5F5"/>
<circle cx="177.5" cy="9.5" r="1.5" fill="#F8F5F5"/>
<circle cx="185.5" cy="9.5" r="1.5" fill="#F8F5F5"/>
<circle cx="193.5" cy="9.5" r="1.5" fill="#F8F5F5"/>
<circle cx="201.5" cy="9.5" r="1.5" fill="#F8F5F5"/>
<circle cx="209.5" cy="9.5" r="1.5" fill="#F8F5F5"/>
<circle cx="217.5" cy="9.5" r="1.5" fill="#F8F5F5"/>
<circle cx="225.5" cy="9.5" r="1.5" fill="#F8F5F5"/>
<circle cx="233.5" cy="9.5" r="1.5" fill="#F8F5F5"/>
<circle cx="241.5" cy="9.5" r="1.5" fill="#F8F5F5"/>
<circle cx="249.5" cy="9.5" r="1.5" fill="#F8F5F5"/>
<circle cx="257.5" cy="9.5" r="1.5" fill="#F8F5F5"/>
<circle cx="265.5" cy="9.5" r="1.5" fill="#F8F5F5"/>
<circle cx="273.5" cy="9.5" r="1.5" fill="#F8F5F5"/>
<circle cx="281.5" cy="9.5" r="1.5" fill="#F8F5F5"/>
<circle cx="289.5" cy="9.5" r="1.5" fill="#F8F5F5"/>
<circle cx="297.5" cy="9.5" r="1.5" fill="#F8F5F5"/>
<circle cx="305.5" cy="9.5" r="1.5" fill="#F8F5F5"/>
<circle cx="313.5" cy="9.5" r="1.5" fill="#F8F5F5"/>
<circle cx="321.5" cy="9.5" r="1.5" fill="#F8F5F5"/>
<circle cx="329.5" cy="9.5" r="1.5" fill="#F8F5F5"/>
<circle cx="337.5" cy="9.5" r="1.5" fill="#F8F5F5"/>
<circle cx="345.5" cy="9.5" r="1.5" fill="#F8F5F5"/>
<circle cx="353.5" cy="9.5" r="1.5" fill="#F8F5F5"/>
<circle cx="361.5" cy="9.5" r="1.5" fill="#F8F5F5"/>
<circle cx="369.5" cy="9.5" r="1.5" fill="#F8F5F5"/>
<circle cx="377.5" cy="9.5" r="1.5" fill="#F8F5F5"/>
<circle cx="385.5" cy="9.5" r="1.5" fill="#F8F5F5"/>
<circle cx="393.5" cy="9.5" r="1.5" fill="#F8F5F5"/>
<circle cx="401.5" cy="9.5" r="1.5" fill="#F8F5F5"/>
<circle cx="1.5" cy="17.5" r="1.5" fill="#F8F5F5"/>
<circle cx="9.5" cy="17.5" r="1.5" fill="#F8F5F5"/>
<circle cx="17.5" cy="17.5" r="1.5" fill="#F8F5F5"/>
<circle cx="25.5" cy="17.5" r="1.5" fill="#F8F5F5"/>
<circle cx="33.5" cy="17.5" r="1.5" fill="#F8F5F5"/>
<circle cx="41.5" cy="17.5" r="1.5" fill="#F8F5F5"/>
<circle cx="49.5" cy="17.5" r="1.5" fill="#F8F5F5"/>
<circle cx="57.5" cy="17.5" r="1.5" fill="#F8F5F5"/>
<circle cx="65.5" cy="17.5" r="1.5" fill="#F8F5F5"/>
<circle cx="73.5" cy="17.5" r="1.5" fill="#F8F5F5"/>
<circle cx="81.5" cy="17.5" r="1.5" fill="#F8F5F5"/>
<circle cx="89.5" cy="17.5" r="1.5" fill="#F8F5F5"/>
<circle cx="97.5" cy="17.5" r="1.5" fill="#F8F5F5"/>
<circle cx="105.5" cy="17.5" r="1.5" fill="#F8F5F5"/>
<circle cx="113.5" cy="17.5" r="1.5" fill="#F8F5F5"/>
<circle cx="121.5" cy="17.5" r="1.5" fill="#F8F5F5"/>
<circle cx="129.5" cy="17.5" r="1.5" fill="#F8F5F5"/>
<circle cx="137.5" cy="17.5" r="1.5" fill="#F8F5F5"/>
<circle cx="145.5" cy="17.5" r="1.5" fill="#F8F5F5"/>
<circle cx="153.5" cy="17.5" r="1.5" fill="#F8F5F5"/>
<circle cx="161.5" cy="17.5" r="1.5" fill="#F8F5F5"/>
<circle cx="169.5" cy="17.5" r="1.5" fill="#F8F5F5"/>
<circle cx="177.5" cy="17.5" r="1.5" fill="#F8F5F5"/>
<circle cx="185.5" cy="17.5" r="1.5" fill="#F8F5F5"/>
<circle cx="193.5" cy="17.5" r="1.5" fill="#F8F5F5"/>
<circle cx="201.5" cy="17.5" r="1.5" fill="#F8F5F5"/>
<circle cx="209.5" cy="17.5" r="1.5" fill="#F8F5F5"/>
<circle cx="217.5" cy="17.5" r="1.5" fill="#F8F5F5"/>
<circle cx="225.5" cy="17.5" r="1.5" fill="#F8F5F5"/>
<circle cx="233.5" cy="17.5" r="1.5" fill="#F8F5F5"/>
<circle cx="241.5" cy="17.5" r="1.5" fill="#F8F5F5"/>
<circle cx="249.5" cy="17.5" r="1.5" fill="#F8F5F5"/>
<circle cx="257.5" cy="17.5" r="1.5" fill="#F8F5F5"/>
<circle cx="265.5" cy="17.5" r="1.5" fill="#F8F5F5"/>
<circle cx="273.5" cy="17.5" r="1.5" fill="#F8F5F5"/>
<circle cx="281.5" cy="17.5" r="1.5" fill="#F8F5F5"/>
<circle cx="289.5" cy="17.5" r="1.5" fill="#F8F5F5"/>
<circle cx="297.5" cy="17.5" r="1.5" fill="#F8F5F5"/>
<circle cx="305.5" cy="17.5" r="1.5" fill="#F8F5F5"/>
<circle cx="313.5" cy="17.5" r="1.5" fill="#F8F5F5"/>
<circle cx="321.5" cy="17.5" r="1.5" fill="#F8F5F5"/>
<circle cx="329.5" cy="17.5" r="1.5" fill="#F8F5F5"/>
<circle cx="337.5" cy="17.5" r="1.5" fill="#F8F5F5"/>
<circle cx="345.5" cy="17.5" r="1.5" fill="#F8F5F5"/>
<circle cx="353.5" cy="17.5" r="1.5" fill="#F8F5F5"/>
<circle cx="361.5" cy="17.5" r="1.5" fill="#F8F5F5"/>
<circle cx="369.5" cy="17.5" r="1.5" fill="#F8F5F5"/>
<circle cx="377.5" cy="17.5" r="1.5" fill="#F8F5F5"/>
<circle cx="385.5" cy="17.5" r="1.5" fill="#F8F5F5"/>
<circle cx="393.5" cy="17.5" r="1.5" fill="#F8F5F5"/>
<circle cx="401.5" cy="17.5" r="1.5" fill="#F8F5F5"/>
<circle cx="1.5" cy="25.5" r="1.5" fill="#F8F5F5"/>
<circle cx="9.5" cy="25.5" r="1.5" fill="#F8F5F5"/>
<circle cx="17.5" cy="25.5" r="1.5" fill="#F8F5F5"/>
<circle cx="25.5" cy="25.5" r="1.5" fill="#F8F5F5"/>
<circle cx="33.5" cy="25.5" r="1.5" fill="#F8F5F5"/>
<circle cx="41.5" cy="25.5" r="1.5" fill="#F8F5F5"/>
<circle cx="49.5" cy="25.5" r="1.5" fill="#F8F5F5"/>
<circle cx="57.5" cy="25.5" r="1.5" fill="#F8F5F5"/>
<circle cx="65.5" cy="25.5" r="1.5" fill="#F8F5F5"/>
<circle cx="73.5" cy="25.5" r="1.5" fill="#F8F5F5"/>
<circle cx="81.5" cy="25.5" r="1.5" fill="#F8F5F5"/>
<circle cx="89.5" cy="25.5" r="1.5" fill="#F8F5F5"/>
<circle cx="97.5" cy="25.5" r="1.5" fill="#F8F5F5"/>
<circle cx="105.5" cy="25.5" r="1.5" fill="#F8F5F5"/>
<circle cx="113.5" cy="25.5" r="1.5" fill="#F8F5F5"/>
<circle cx="121.5" cy="25.5" r="1.5" fill="#F8F5F5"/>
<circle cx="129.5" cy="25.5" r="1.5" fill="#F8F5F5"/>
<circle cx="137.5" cy="25.5" r="1.5" fill="#F8F5F5"/>
<circle cx="145.5" cy="25.5" r="1.5" fill="#F8F5F5"/>
<circle cx="153.5" cy="25.5" r="1.5" fill="#F8F5F5"/>
<circle cx="161.5" cy="25.5" r="1.5" fill="#F8F5F5"/>
<circle cx="169.5" cy="25.5" r="1.5" fill="#F8F5F5"/>
<circle cx="177.5" cy="25.5" r="1.5" fill="#F8F5F5"/>
<circle cx="185.5" cy="25.5" r="1.5" fill="#F8F5F5"/>
<circle cx="193.5" cy="25.5" r="1.5" fill="#F8F5F5"/>
<circle cx="201.5" cy="25.5" r="1.5" fill="#F8F5F5"/>
<circle cx="209.5" cy="25.5" r="1.5" fill="#F8F5F5"/>
<circle cx="217.5" cy="25.5" r="1.5" fill="#F8F5F5"/>
<circle cx="225.5" cy="25.5" r="1.5" fill="#F8F5F5"/>
<circle cx="233.5" cy="25.5" r="1.5" fill="#F8F5F5"/>
<circle cx="241.5" cy="25.5" r="1.5" fill="#F8F5F5"/>
<circle cx="249.5" cy="25.5" r="1.5" fill="#F8F5F5"/>
<circle cx="257.5" cy="25.5" r="1.5" fill="#F8F5F5"/>
<circle cx="265.5" cy="25.5" r="1.5" fill="#F8F5F5"/>
<circle cx="273.5" cy="25.5" r="1.5" fill="#F8F5F5"/>
<circle cx="281.5" cy="25.5" r="1.5" fill="#F8F5F5"/>
<circle cx="289.5" cy="25.5" r="1.5" fill="#F8F5F5"/>
<circle cx="297.5" cy="25.5" r="1.5" fill="#F8F5F5"/>
<circle cx="305.5" cy="25.5" r="1.5" fill="#F8F5F5"/>
<circle cx="313.5" cy="25.5" r="1.5" fill="#F8F5F5"/>
<circle cx="321.5" cy="25.5" r="1.5" fill="#F8F5F5"/>
<circle cx="329.5" cy="25.5" r="1.5" fill="#F8F5F5"/>
<circle cx="337.5" cy="25.5" r="1.5" fill="#F8F5F5"/>
<circle cx="345.5" cy="25.5" r="1.5" fill="#F8F5F5"/>
<circle cx="353.5" cy="25.5" r="1.5" fill="#F8F5F5"/>
<circle cx="361.5" cy="25.5" r="1.5" fill="#F8F5F5"/>
<circle cx="369.5" cy="25.5" r="1.5" fill="#F8F5F5"/>
<circle cx="377.5" cy="25.5" r="1.5" fill="#F8F5F5"/>
<circle cx="385.5" cy="25.5" r="1.5" fill="#F8F5F5"/>
<circle cx="393.5" cy="25.5" r="1.5" fill="#F8F5F5"/>
<circle cx="401.5" cy="25.5" r="1.5" fill="#F8F5F5"/>
</svg>
