<svg width="115" height="107" viewBox="0 0 115 107" fill="none" xmlns="http://www.w3.org/2000/svg">
<path fill-rule="evenodd" clip-rule="evenodd" d="M1.5 3C2.32843 3 3 2.32843 3 1.5C3 0.671573 2.32843 0 1.5 0C0.671573 0 0 0.671573 0 1.5C0 2.32843 0.671573 3 1.5 3ZM3 9.5C3 10.3284 2.32843 11 1.5 11C0.671573 11 0 10.3284 0 9.5C0 8.67157 0.671573 8 1.5 8C2.32843 8 3 8.67157 3 9.5ZM1.5 19C2.32843 19 3 18.3284 3 17.5C3 16.6716 2.32843 16 1.5 16C0.671573 16 0 16.6716 0 17.5C0 18.3284 0.671573 19 1.5 19ZM3 25.5C3 26.3284 2.32843 27 1.5 27C0.671573 27 0 26.3284 0 25.5C0 24.6716 0.671573 24 1.5 24C2.32843 24 3 24.6716 3 25.5ZM1.5 35C2.32843 35 3 34.3284 3 33.5C3 32.6716 2.32843 32 1.5 32C0.671573 32 0 32.6716 0 33.5C0 34.3284 0.671573 35 1.5 35ZM3 41.5C3 42.3284 2.32843 43 1.5 43C0.671573 43 0 42.3284 0 41.5C0 40.6716 0.671573 40 1.5 40C2.32843 40 3 40.6716 3 41.5ZM1.5 51C2.32843 51 3 50.3284 3 49.5C3 48.6716 2.32843 48 1.5 48C0.671573 48 0 48.6716 0 49.5C0 50.3284 0.671573 51 1.5 51ZM3 57.5C3 58.3284 2.32843 59 1.5 59C0.671573 59 0 58.3284 0 57.5C0 56.6716 0.671573 56 1.5 56C2.32843 56 3 56.6716 3 57.5ZM1.5 67C2.32843 67 3 66.3284 3 65.5C3 64.6716 2.32843 64 1.5 64C0.671573 64 0 64.6716 0 65.5C0 66.3284 0.671573 67 1.5 67ZM3 73.5C3 74.3284 2.32843 75 1.5 75C0.671573 75 0 74.3284 0 73.5C0 72.6716 0.671573 72 1.5 72C2.32843 72 3 72.6716 3 73.5ZM1.5 83C2.32843 83 3 82.3284 3 81.5C3 80.6716 2.32843 80 1.5 80C0.671573 80 0 80.6716 0 81.5C0 82.3284 0.671573 83 1.5 83ZM3 89.5C3 90.3284 2.32843 91 1.5 91C0.671573 91 0 90.3284 0 89.5C0 88.6716 0.671573 88 1.5 88C2.32843 88 3 88.6716 3 89.5ZM1.5 99C2.32843 99 3 98.3284 3 97.5C3 96.6716 2.32843 96 1.5 96C0.671573 96 0 96.6716 0 97.5C0 98.3284 0.671573 99 1.5 99ZM1.5 107C2.32843 107 3 106.328 3 105.5C3 104.672 2.32843 104 1.5 104C0.671573 104 0 104.672 0 105.5C0 106.328 0.671573 107 1.5 107ZM9.5 107C10.3284 107 11 106.328 11 105.5C11 104.672 10.3284 104 9.5 104C8.67157 104 8 104.672 8 105.5C8 106.328 8.67157 107 9.5 107ZM19 105.5C19 106.328 18.3284 107 17.5 107C16.6716 107 16 106.328 16 105.5C16 104.672 16.6716 104 17.5 104C18.3284 104 19 104.672 19 105.5ZM25.5 107C26.3284 107 27 106.328 27 105.5C27 104.672 26.3284 104 25.5 104C24.6716 104 24 104.672 24 105.5C24 106.328 24.6716 107 25.5 107ZM35 105.5C35 106.328 34.3284 107 33.5 107C32.6716 107 32 106.328 32 105.5C32 104.672 32.6716 104 33.5 104C34.3284 104 35 104.672 35 105.5ZM41.5 107C42.3284 107 43 106.328 43 105.5C43 104.672 42.3284 104 41.5 104C40.6716 104 40 104.672 40 105.5C40 106.328 40.6716 107 41.5 107ZM51 105.5C51 106.328 50.3284 107 49.5 107C48.6716 107 48 106.328 48 105.5C48 104.672 48.6716 104 49.5 104C50.3284 104 51 104.672 51 105.5ZM57.5 107C58.3284 107 59 106.328 59 105.5C59 104.672 58.3284 104 57.5 104C56.6716 104 56 104.672 56 105.5C56 106.328 56.6716 107 57.5 107ZM67 105.5C67 106.328 66.3284 107 65.5 107C64.6716 107 64 106.328 64 105.5C64 104.672 64.6716 104 65.5 104C66.3284 104 67 104.672 67 105.5ZM73.5 107C74.3284 107 75 106.328 75 105.5C75 104.672 74.3284 104 73.5 104C72.6716 104 72 104.672 72 105.5C72 106.328 72.6716 107 73.5 107ZM83 105.5C83 106.328 82.3284 107 81.5 107C80.6716 107 80 106.328 80 105.5C80 104.672 80.6716 104 81.5 104C82.3284 104 83 104.672 83 105.5ZM89.5 107C90.3284 107 91 106.328 91 105.5C91 104.672 90.3284 104 89.5 104C88.6716 104 88 104.672 88 105.5C88 106.328 88.6716 107 89.5 107ZM99 105.5C99 106.328 98.3284 107 97.5 107C96.6716 107 96 106.328 96 105.5C96 104.672 96.6716 104 97.5 104C98.3284 104 99 104.672 99 105.5ZM105.5 107C106.328 107 107 106.328 107 105.5C107 104.672 106.328 104 105.5 104C104.672 104 104 104.672 104 105.5C104 106.328 104.672 107 105.5 107ZM115 105.5C115 106.328 114.328 107 113.5 107C112.672 107 112 106.328 112 105.5C112 104.672 112.672 104 113.5 104C114.328 104 115 104.672 115 105.5ZM11 97.5C11 98.3284 10.3284 99 9.5 99C8.67157 99 8 98.3284 8 97.5C8 96.6716 8.67157 96 9.5 96C10.3284 96 11 96.6716 11 97.5ZM17.5 99C18.3284 99 19 98.3284 19 97.5C19 96.6716 18.3284 96 17.5 96C16.6716 96 16 96.6716 16 97.5C16 98.3284 16.6716 99 17.5 99ZM27 97.5C27 98.3284 26.3284 99 25.5 99C24.6716 99 24 98.3284 24 97.5C24 96.6716 24.6716 96 25.5 96C26.3284 96 27 96.6716 27 97.5ZM33.5 99C34.3284 99 35 98.3284 35 97.5C35 96.6716 34.3284 96 33.5 96C32.6716 96 32 96.6716 32 97.5C32 98.3284 32.6716 99 33.5 99ZM43 97.5C43 98.3284 42.3284 99 41.5 99C40.6716 99 40 98.3284 40 97.5C40 96.6716 40.6716 96 41.5 96C42.3284 96 43 96.6716 43 97.5ZM49.5 99C50.3284 99 51 98.3284 51 97.5C51 96.6716 50.3284 96 49.5 96C48.6716 96 48 96.6716 48 97.5C48 98.3284 48.6716 99 49.5 99ZM59 97.5C59 98.3284 58.3284 99 57.5 99C56.6716 99 56 98.3284 56 97.5C56 96.6716 56.6716 96 57.5 96C58.3284 96 59 96.6716 59 97.5ZM65.5 99C66.3284 99 67 98.3284 67 97.5C67 96.6716 66.3284 96 65.5 96C64.6716 96 64 96.6716 64 97.5C64 98.3284 64.6716 99 65.5 99ZM75 97.5C75 98.3284 74.3284 99 73.5 99C72.6716 99 72 98.3284 72 97.5C72 96.6716 72.6716 96 73.5 96C74.3284 96 75 96.6716 75 97.5ZM81.5 99C82.3284 99 83 98.3284 83 97.5C83 96.6716 82.3284 96 81.5 96C80.6716 96 80 96.6716 80 97.5C80 98.3284 80.6716 99 81.5 99ZM91 97.5C91 98.3284 90.3284 99 89.5 99C88.6716 99 88 98.3284 88 97.5C88 96.6716 88.6716 96 89.5 96C90.3284 96 91 96.6716 91 97.5ZM97.5 99C98.3284 99 99 98.3284 99 97.5C99 96.6716 98.3284 96 97.5 96C96.6716 96 96 96.6716 96 97.5C96 98.3284 96.6716 99 97.5 99ZM107 97.5C107 98.3284 106.328 99 105.5 99C104.672 99 104 98.3284 104 97.5C104 96.6716 104.672 96 105.5 96C106.328 96 107 96.6716 107 97.5ZM113.5 99C114.328 99 115 98.3284 115 97.5C115 96.6716 114.328 96 113.5 96C112.672 96 112 96.6716 112 97.5C112 98.3284 112.672 99 113.5 99ZM9.5 91C10.3284 91 11 90.3284 11 89.5C11 88.6716 10.3284 88 9.5 88C8.67157 88 8 88.6716 8 89.5C8 90.3284 8.67157 91 9.5 91ZM19 89.5C19 90.3284 18.3284 91 17.5 91C16.6716 91 16 90.3284 16 89.5C16 88.6716 16.6716 88 17.5 88C18.3284 88 19 88.6716 19 89.5ZM25.5 91C26.3284 91 27 90.3284 27 89.5C27 88.6716 26.3284 88 25.5 88C24.6716 88 24 88.6716 24 89.5C24 90.3284 24.6716 91 25.5 91ZM35 89.5C35 90.3284 34.3284 91 33.5 91C32.6716 91 32 90.3284 32 89.5C32 88.6716 32.6716 88 33.5 88C34.3284 88 35 88.6716 35 89.5ZM41.5 91C42.3284 91 43 90.3284 43 89.5C43 88.6716 42.3284 88 41.5 88C40.6716 88 40 88.6716 40 89.5C40 90.3284 40.6716 91 41.5 91ZM51 89.5C51 90.3284 50.3284 91 49.5 91C48.6716 91 48 90.3284 48 89.5C48 88.6716 48.6716 88 49.5 88C50.3284 88 51 88.6716 51 89.5ZM57.5 91C58.3284 91 59 90.3284 59 89.5C59 88.6716 58.3284 88 57.5 88C56.6716 88 56 88.6716 56 89.5C56 90.3284 56.6716 91 57.5 91ZM67 89.5C67 90.3284 66.3284 91 65.5 91C64.6716 91 64 90.3284 64 89.5C64 88.6716 64.6716 88 65.5 88C66.3284 88 67 88.6716 67 89.5ZM73.5 91C74.3284 91 75 90.3284 75 89.5C75 88.6716 74.3284 88 73.5 88C72.6716 88 72 88.6716 72 89.5C72 90.3284 72.6716 91 73.5 91ZM83 89.5C83 90.3284 82.3284 91 81.5 91C80.6716 91 80 90.3284 80 89.5C80 88.6716 80.6716 88 81.5 88C82.3284 88 83 88.6716 83 89.5ZM89.5 91C90.3284 91 91 90.3284 91 89.5C91 88.6716 90.3284 88 89.5 88C88.6716 88 88 88.6716 88 89.5C88 90.3284 88.6716 91 89.5 91ZM99 89.5C99 90.3284 98.3284 91 97.5 91C96.6716 91 96 90.3284 96 89.5C96 88.6716 96.6716 88 97.5 88C98.3284 88 99 88.6716 99 89.5ZM105.5 91C106.328 91 107 90.3284 107 89.5C107 88.6716 106.328 88 105.5 88C104.672 88 104 88.6716 104 89.5C104 90.3284 104.672 91 105.5 91ZM115 89.5C115 90.3284 114.328 91 113.5 91C112.672 91 112 90.3284 112 89.5C112 88.6716 112.672 88 113.5 88C114.328 88 115 88.6716 115 89.5ZM11 81.5C11 82.3284 10.3284 83 9.5 83C8.67157 83 8 82.3284 8 81.5C8 80.6716 8.67157 80 9.5 80C10.3284 80 11 80.6716 11 81.5ZM17.5 83C18.3284 83 19 82.3284 19 81.5C19 80.6716 18.3284 80 17.5 80C16.6716 80 16 80.6716 16 81.5C16 82.3284 16.6716 83 17.5 83ZM27 81.5C27 82.3284 26.3284 83 25.5 83C24.6716 83 24 82.3284 24 81.5C24 80.6716 24.6716 80 25.5 80C26.3284 80 27 80.6716 27 81.5ZM33.5 83C34.3284 83 35 82.3284 35 81.5C35 80.6716 34.3284 80 33.5 80C32.6716 80 32 80.6716 32 81.5C32 82.3284 32.6716 83 33.5 83ZM43 81.5C43 82.3284 42.3284 83 41.5 83C40.6716 83 40 82.3284 40 81.5C40 80.6716 40.6716 80 41.5 80C42.3284 80 43 80.6716 43 81.5ZM49.5 83C50.3284 83 51 82.3284 51 81.5C51 80.6716 50.3284 80 49.5 80C48.6716 80 48 80.6716 48 81.5C48 82.3284 48.6716 83 49.5 83ZM59 81.5C59 82.3284 58.3284 83 57.5 83C56.6716 83 56 82.3284 56 81.5C56 80.6716 56.6716 80 57.5 80C58.3284 80 59 80.6716 59 81.5ZM65.5 83C66.3284 83 67 82.3284 67 81.5C67 80.6716 66.3284 80 65.5 80C64.6716 80 64 80.6716 64 81.5C64 82.3284 64.6716 83 65.5 83ZM75 81.5C75 82.3284 74.3284 83 73.5 83C72.6716 83 72 82.3284 72 81.5C72 80.6716 72.6716 80 73.5 80C74.3284 80 75 80.6716 75 81.5ZM81.5 83C82.3284 83 83 82.3284 83 81.5C83 80.6716 82.3284 80 81.5 80C80.6716 80 80 80.6716 80 81.5C80 82.3284 80.6716 83 81.5 83ZM91 81.5C91 82.3284 90.3284 83 89.5 83C88.6716 83 88 82.3284 88 81.5C88 80.6716 88.6716 80 89.5 80C90.3284 80 91 80.6716 91 81.5ZM97.5 83C98.3284 83 99 82.3284 99 81.5C99 80.6716 98.3284 80 97.5 80C96.6716 80 96 80.6716 96 81.5C96 82.3284 96.6716 83 97.5 83ZM107 81.5C107 82.3284 106.328 83 105.5 83C104.672 83 104 82.3284 104 81.5C104 80.6716 104.672 80 105.5 80C106.328 80 107 80.6716 107 81.5ZM113.5 83C114.328 83 115 82.3284 115 81.5C115 80.6716 114.328 80 113.5 80C112.672 80 112 80.6716 112 81.5C112 82.3284 112.672 83 113.5 83ZM9.5 75C10.3284 75 11 74.3284 11 73.5C11 72.6716 10.3284 72 9.5 72C8.67157 72 8 72.6716 8 73.5C8 74.3284 8.67157 75 9.5 75ZM19 73.5C19 74.3284 18.3284 75 17.5 75C16.6716 75 16 74.3284 16 73.5C16 72.6716 16.6716 72 17.5 72C18.3284 72 19 72.6716 19 73.5ZM25.5 75C26.3284 75 27 74.3284 27 73.5C27 72.6716 26.3284 72 25.5 72C24.6716 72 24 72.6716 24 73.5C24 74.3284 24.6716 75 25.5 75ZM35 73.5C35 74.3284 34.3284 75 33.5 75C32.6716 75 32 74.3284 32 73.5C32 72.6716 32.6716 72 33.5 72C34.3284 72 35 72.6716 35 73.5ZM41.5 75C42.3284 75 43 74.3284 43 73.5C43 72.6716 42.3284 72 41.5 72C40.6716 72 40 72.6716 40 73.5C40 74.3284 40.6716 75 41.5 75ZM51 73.5C51 74.3284 50.3284 75 49.5 75C48.6716 75 48 74.3284 48 73.5C48 72.6716 48.6716 72 49.5 72C50.3284 72 51 72.6716 51 73.5ZM57.5 75C58.3284 75 59 74.3284 59 73.5C59 72.6716 58.3284 72 57.5 72C56.6716 72 56 72.6716 56 73.5C56 74.3284 56.6716 75 57.5 75ZM67 73.5C67 74.3284 66.3284 75 65.5 75C64.6716 75 64 74.3284 64 73.5C64 72.6716 64.6716 72 65.5 72C66.3284 72 67 72.6716 67 73.5ZM73.5 75C74.3284 75 75 74.3284 75 73.5C75 72.6716 74.3284 72 73.5 72C72.6716 72 72 72.6716 72 73.5C72 74.3284 72.6716 75 73.5 75ZM83 73.5C83 74.3284 82.3284 75 81.5 75C80.6716 75 80 74.3284 80 73.5C80 72.6716 80.6716 72 81.5 72C82.3284 72 83 72.6716 83 73.5ZM89.5 75C90.3284 75 91 74.3284 91 73.5C91 72.6716 90.3284 72 89.5 72C88.6716 72 88 72.6716 88 73.5C88 74.3284 88.6716 75 89.5 75ZM99 73.5C99 74.3284 98.3284 75 97.5 75C96.6716 75 96 74.3284 96 73.5C96 72.6716 96.6716 72 97.5 72C98.3284 72 99 72.6716 99 73.5ZM105.5 75C106.328 75 107 74.3284 107 73.5C107 72.6716 106.328 72 105.5 72C104.672 72 104 72.6716 104 73.5C104 74.3284 104.672 75 105.5 75ZM115 73.5C115 74.3284 114.328 75 113.5 75C112.672 75 112 74.3284 112 73.5C112 72.6716 112.672 72 113.5 72C114.328 72 115 72.6716 115 73.5ZM11 65.5C11 66.3284 10.3284 67 9.5 67C8.67157 67 8 66.3284 8 65.5C8 64.6716 8.67157 64 9.5 64C10.3284 64 11 64.6716 11 65.5ZM17.5 67C18.3284 67 19 66.3284 19 65.5C19 64.6716 18.3284 64 17.5 64C16.6716 64 16 64.6716 16 65.5C16 66.3284 16.6716 67 17.5 67ZM27 65.5C27 66.3284 26.3284 67 25.5 67C24.6716 67 24 66.3284 24 65.5C24 64.6716 24.6716 64 25.5 64C26.3284 64 27 64.6716 27 65.5ZM33.5 67C34.3284 67 35 66.3284 35 65.5C35 64.6716 34.3284 64 33.5 64C32.6716 64 32 64.6716 32 65.5C32 66.3284 32.6716 67 33.5 67ZM43 65.5C43 66.3284 42.3284 67 41.5 67C40.6716 67 40 66.3284 40 65.5C40 64.6716 40.6716 64 41.5 64C42.3284 64 43 64.6716 43 65.5ZM49.5 67C50.3284 67 51 66.3284 51 65.5C51 64.6716 50.3284 64 49.5 64C48.6716 64 48 64.6716 48 65.5C48 66.3284 48.6716 67 49.5 67ZM59 65.5C59 66.3284 58.3284 67 57.5 67C56.6716 67 56 66.3284 56 65.5C56 64.6716 56.6716 64 57.5 64C58.3284 64 59 64.6716 59 65.5ZM65.5 67C66.3284 67 67 66.3284 67 65.5C67 64.6716 66.3284 64 65.5 64C64.6716 64 64 64.6716 64 65.5C64 66.3284 64.6716 67 65.5 67ZM75 65.5C75 66.3284 74.3284 67 73.5 67C72.6716 67 72 66.3284 72 65.5C72 64.6716 72.6716 64 73.5 64C74.3284 64 75 64.6716 75 65.5ZM81.5 67C82.3284 67 83 66.3284 83 65.5C83 64.6716 82.3284 64 81.5 64C80.6716 64 80 64.6716 80 65.5C80 66.3284 80.6716 67 81.5 67ZM91 65.5C91 66.3284 90.3284 67 89.5 67C88.6716 67 88 66.3284 88 65.5C88 64.6716 88.6716 64 89.5 64C90.3284 64 91 64.6716 91 65.5ZM97.5 67C98.3284 67 99 66.3284 99 65.5C99 64.6716 98.3284 64 97.5 64C96.6716 64 96 64.6716 96 65.5C96 66.3284 96.6716 67 97.5 67ZM107 65.5C107 66.3284 106.328 67 105.5 67C104.672 67 104 66.3284 104 65.5C104 64.6716 104.672 64 105.5 64C106.328 64 107 64.6716 107 65.5ZM113.5 67C114.328 67 115 66.3284 115 65.5C115 64.6716 114.328 64 113.5 64C112.672 64 112 64.6716 112 65.5C112 66.3284 112.672 67 113.5 67ZM9.5 59C10.3284 59 11 58.3284 11 57.5C11 56.6716 10.3284 56 9.5 56C8.67157 56 8 56.6716 8 57.5C8 58.3284 8.67157 59 9.5 59ZM19 57.5C19 58.3284 18.3284 59 17.5 59C16.6716 59 16 58.3284 16 57.5C16 56.6716 16.6716 56 17.5 56C18.3284 56 19 56.6716 19 57.5ZM25.5 59C26.3284 59 27 58.3284 27 57.5C27 56.6716 26.3284 56 25.5 56C24.6716 56 24 56.6716 24 57.5C24 58.3284 24.6716 59 25.5 59ZM35 57.5C35 58.3284 34.3284 59 33.5 59C32.6716 59 32 58.3284 32 57.5C32 56.6716 32.6716 56 33.5 56C34.3284 56 35 56.6716 35 57.5ZM41.5 59C42.3284 59 43 58.3284 43 57.5C43 56.6716 42.3284 56 41.5 56C40.6716 56 40 56.6716 40 57.5C40 58.3284 40.6716 59 41.5 59ZM51 57.5C51 58.3284 50.3284 59 49.5 59C48.6716 59 48 58.3284 48 57.5C48 56.6716 48.6716 56 49.5 56C50.3284 56 51 56.6716 51 57.5ZM57.5 59C58.3284 59 59 58.3284 59 57.5C59 56.6716 58.3284 56 57.5 56C56.6716 56 56 56.6716 56 57.5C56 58.3284 56.6716 59 57.5 59ZM67 57.5C67 58.3284 66.3284 59 65.5 59C64.6716 59 64 58.3284 64 57.5C64 56.6716 64.6716 56 65.5 56C66.3284 56 67 56.6716 67 57.5ZM73.5 59C74.3284 59 75 58.3284 75 57.5C75 56.6716 74.3284 56 73.5 56C72.6716 56 72 56.6716 72 57.5C72 58.3284 72.6716 59 73.5 59ZM83 57.5C83 58.3284 82.3284 59 81.5 59C80.6716 59 80 58.3284 80 57.5C80 56.6716 80.6716 56 81.5 56C82.3284 56 83 56.6716 83 57.5ZM89.5 59C90.3284 59 91 58.3284 91 57.5C91 56.6716 90.3284 56 89.5 56C88.6716 56 88 56.6716 88 57.5C88 58.3284 88.6716 59 89.5 59ZM99 57.5C99 58.3284 98.3284 59 97.5 59C96.6716 59 96 58.3284 96 57.5C96 56.6716 96.6716 56 97.5 56C98.3284 56 99 56.6716 99 57.5ZM105.5 59C106.328 59 107 58.3284 107 57.5C107 56.6716 106.328 56 105.5 56C104.672 56 104 56.6716 104 57.5C104 58.3284 104.672 59 105.5 59ZM115 57.5C115 58.3284 114.328 59 113.5 59C112.672 59 112 58.3284 112 57.5C112 56.6716 112.672 56 113.5 56C114.328 56 115 56.6716 115 57.5ZM11 49.5C11 50.3284 10.3284 51 9.5 51C8.67157 51 8 50.3284 8 49.5C8 48.6716 8.67157 48 9.5 48C10.3284 48 11 48.6716 11 49.5ZM17.5 51C18.3284 51 19 50.3284 19 49.5C19 48.6716 18.3284 48 17.5 48C16.6716 48 16 48.6716 16 49.5C16 50.3284 16.6716 51 17.5 51ZM27 49.5C27 50.3284 26.3284 51 25.5 51C24.6716 51 24 50.3284 24 49.5C24 48.6716 24.6716 48 25.5 48C26.3284 48 27 48.6716 27 49.5ZM33.5 51C34.3284 51 35 50.3284 35 49.5C35 48.6716 34.3284 48 33.5 48C32.6716 48 32 48.6716 32 49.5C32 50.3284 32.6716 51 33.5 51ZM43 49.5C43 50.3284 42.3284 51 41.5 51C40.6716 51 40 50.3284 40 49.5C40 48.6716 40.6716 48 41.5 48C42.3284 48 43 48.6716 43 49.5ZM49.5 51C50.3284 51 51 50.3284 51 49.5C51 48.6716 50.3284 48 49.5 48C48.6716 48 48 48.6716 48 49.5C48 50.3284 48.6716 51 49.5 51ZM59 49.5C59 50.3284 58.3284 51 57.5 51C56.6716 51 56 50.3284 56 49.5C56 48.6716 56.6716 48 57.5 48C58.3284 48 59 48.6716 59 49.5ZM65.5 51C66.3284 51 67 50.3284 67 49.5C67 48.6716 66.3284 48 65.5 48C64.6716 48 64 48.6716 64 49.5C64 50.3284 64.6716 51 65.5 51ZM75 49.5C75 50.3284 74.3284 51 73.5 51C72.6716 51 72 50.3284 72 49.5C72 48.6716 72.6716 48 73.5 48C74.3284 48 75 48.6716 75 49.5ZM81.5 51C82.3284 51 83 50.3284 83 49.5C83 48.6716 82.3284 48 81.5 48C80.6716 48 80 48.6716 80 49.5C80 50.3284 80.6716 51 81.5 51ZM91 49.5C91 50.3284 90.3284 51 89.5 51C88.6716 51 88 50.3284 88 49.5C88 48.6716 88.6716 48 89.5 48C90.3284 48 91 48.6716 91 49.5ZM97.5 51C98.3284 51 99 50.3284 99 49.5C99 48.6716 98.3284 48 97.5 48C96.6716 48 96 48.6716 96 49.5C96 50.3284 96.6716 51 97.5 51ZM107 49.5C107 50.3284 106.328 51 105.5 51C104.672 51 104 50.3284 104 49.5C104 48.6716 104.672 48 105.5 48C106.328 48 107 48.6716 107 49.5ZM113.5 51C114.328 51 115 50.3284 115 49.5C115 48.6716 114.328 48 113.5 48C112.672 48 112 48.6716 112 49.5C112 50.3284 112.672 51 113.5 51ZM9.5 43C10.3284 43 11 42.3284 11 41.5C11 40.6716 10.3284 40 9.5 40C8.67157 40 8 40.6716 8 41.5C8 42.3284 8.67157 43 9.5 43ZM19 41.5C19 42.3284 18.3284 43 17.5 43C16.6716 43 16 42.3284 16 41.5C16 40.6716 16.6716 40 17.5 40C18.3284 40 19 40.6716 19 41.5ZM25.5 43C26.3284 43 27 42.3284 27 41.5C27 40.6716 26.3284 40 25.5 40C24.6716 40 24 40.6716 24 41.5C24 42.3284 24.6716 43 25.5 43ZM35 41.5C35 42.3284 34.3284 43 33.5 43C32.6716 43 32 42.3284 32 41.5C32 40.6716 32.6716 40 33.5 40C34.3284 40 35 40.6716 35 41.5ZM41.5 43C42.3284 43 43 42.3284 43 41.5C43 40.6716 42.3284 40 41.5 40C40.6716 40 40 40.6716 40 41.5C40 42.3284 40.6716 43 41.5 43ZM51 41.5C51 42.3284 50.3284 43 49.5 43C48.6716 43 48 42.3284 48 41.5C48 40.6716 48.6716 40 49.5 40C50.3284 40 51 40.6716 51 41.5ZM57.5 43C58.3284 43 59 42.3284 59 41.5C59 40.6716 58.3284 40 57.5 40C56.6716 40 56 40.6716 56 41.5C56 42.3284 56.6716 43 57.5 43ZM67 41.5C67 42.3284 66.3284 43 65.5 43C64.6716 43 64 42.3284 64 41.5C64 40.6716 64.6716 40 65.5 40C66.3284 40 67 40.6716 67 41.5ZM73.5 43C74.3284 43 75 42.3284 75 41.5C75 40.6716 74.3284 40 73.5 40C72.6716 40 72 40.6716 72 41.5C72 42.3284 72.6716 43 73.5 43ZM83 41.5C83 42.3284 82.3284 43 81.5 43C80.6716 43 80 42.3284 80 41.5C80 40.6716 80.6716 40 81.5 40C82.3284 40 83 40.6716 83 41.5ZM89.5 43C90.3284 43 91 42.3284 91 41.5C91 40.6716 90.3284 40 89.5 40C88.6716 40 88 40.6716 88 41.5C88 42.3284 88.6716 43 89.5 43ZM99 41.5C99 42.3284 98.3284 43 97.5 43C96.6716 43 96 42.3284 96 41.5C96 40.6716 96.6716 40 97.5 40C98.3284 40 99 40.6716 99 41.5ZM105.5 43C106.328 43 107 42.3284 107 41.5C107 40.6716 106.328 40 105.5 40C104.672 40 104 40.6716 104 41.5C104 42.3284 104.672 43 105.5 43ZM115 41.5C115 42.3284 114.328 43 113.5 43C112.672 43 112 42.3284 112 41.5C112 40.6716 112.672 40 113.5 40C114.328 40 115 40.6716 115 41.5ZM11 33.5C11 34.3284 10.3284 35 9.5 35C8.67157 35 8 34.3284 8 33.5C8 32.6716 8.67157 32 9.5 32C10.3284 32 11 32.6716 11 33.5ZM17.5 35C18.3284 35 19 34.3284 19 33.5C19 32.6716 18.3284 32 17.5 32C16.6716 32 16 32.6716 16 33.5C16 34.3284 16.6716 35 17.5 35ZM27 33.5C27 34.3284 26.3284 35 25.5 35C24.6716 35 24 34.3284 24 33.5C24 32.6716 24.6716 32 25.5 32C26.3284 32 27 32.6716 27 33.5ZM33.5 35C34.3284 35 35 34.3284 35 33.5C35 32.6716 34.3284 32 33.5 32C32.6716 32 32 32.6716 32 33.5C32 34.3284 32.6716 35 33.5 35ZM43 33.5C43 34.3284 42.3284 35 41.5 35C40.6716 35 40 34.3284 40 33.5C40 32.6716 40.6716 32 41.5 32C42.3284 32 43 32.6716 43 33.5ZM49.5 35C50.3284 35 51 34.3284 51 33.5C51 32.6716 50.3284 32 49.5 32C48.6716 32 48 32.6716 48 33.5C48 34.3284 48.6716 35 49.5 35ZM59 33.5C59 34.3284 58.3284 35 57.5 35C56.6716 35 56 34.3284 56 33.5C56 32.6716 56.6716 32 57.5 32C58.3284 32 59 32.6716 59 33.5ZM65.5 35C66.3284 35 67 34.3284 67 33.5C67 32.6716 66.3284 32 65.5 32C64.6716 32 64 32.6716 64 33.5C64 34.3284 64.6716 35 65.5 35ZM75 33.5C75 34.3284 74.3284 35 73.5 35C72.6716 35 72 34.3284 72 33.5C72 32.6716 72.6716 32 73.5 32C74.3284 32 75 32.6716 75 33.5ZM81.5 35C82.3284 35 83 34.3284 83 33.5C83 32.6716 82.3284 32 81.5 32C80.6716 32 80 32.6716 80 33.5C80 34.3284 80.6716 35 81.5 35ZM91 33.5C91 34.3284 90.3284 35 89.5 35C88.6716 35 88 34.3284 88 33.5C88 32.6716 88.6716 32 89.5 32C90.3284 32 91 32.6716 91 33.5ZM97.5 35C98.3284 35 99 34.3284 99 33.5C99 32.6716 98.3284 32 97.5 32C96.6716 32 96 32.6716 96 33.5C96 34.3284 96.6716 35 97.5 35ZM107 33.5C107 34.3284 106.328 35 105.5 35C104.672 35 104 34.3284 104 33.5C104 32.6716 104.672 32 105.5 32C106.328 32 107 32.6716 107 33.5ZM113.5 35C114.328 35 115 34.3284 115 33.5C115 32.6716 114.328 32 113.5 32C112.672 32 112 32.6716 112 33.5C112 34.3284 112.672 35 113.5 35ZM9.5 27C10.3284 27 11 26.3284 11 25.5C11 24.6716 10.3284 24 9.5 24C8.67157 24 8 24.6716 8 25.5C8 26.3284 8.67157 27 9.5 27ZM19 25.5C19 26.3284 18.3284 27 17.5 27C16.6716 27 16 26.3284 16 25.5C16 24.6716 16.6716 24 17.5 24C18.3284 24 19 24.6716 19 25.5ZM25.5 27C26.3284 27 27 26.3284 27 25.5C27 24.6716 26.3284 24 25.5 24C24.6716 24 24 24.6716 24 25.5C24 26.3284 24.6716 27 25.5 27ZM35 25.5C35 26.3284 34.3284 27 33.5 27C32.6716 27 32 26.3284 32 25.5C32 24.6716 32.6716 24 33.5 24C34.3284 24 35 24.6716 35 25.5ZM41.5 27C42.3284 27 43 26.3284 43 25.5C43 24.6716 42.3284 24 41.5 24C40.6716 24 40 24.6716 40 25.5C40 26.3284 40.6716 27 41.5 27ZM51 25.5C51 26.3284 50.3284 27 49.5 27C48.6716 27 48 26.3284 48 25.5C48 24.6716 48.6716 24 49.5 24C50.3284 24 51 24.6716 51 25.5ZM57.5 27C58.3284 27 59 26.3284 59 25.5C59 24.6716 58.3284 24 57.5 24C56.6716 24 56 24.6716 56 25.5C56 26.3284 56.6716 27 57.5 27ZM67 25.5C67 26.3284 66.3284 27 65.5 27C64.6716 27 64 26.3284 64 25.5C64 24.6716 64.6716 24 65.5 24C66.3284 24 67 24.6716 67 25.5ZM73.5 27C74.3284 27 75 26.3284 75 25.5C75 24.6716 74.3284 24 73.5 24C72.6716 24 72 24.6716 72 25.5C72 26.3284 72.6716 27 73.5 27ZM83 25.5C83 26.3284 82.3284 27 81.5 27C80.6716 27 80 26.3284 80 25.5C80 24.6716 80.6716 24 81.5 24C82.3284 24 83 24.6716 83 25.5ZM89.5 27C90.3284 27 91 26.3284 91 25.5C91 24.6716 90.3284 24 89.5 24C88.6716 24 88 24.6716 88 25.5C88 26.3284 88.6716 27 89.5 27ZM99 25.5C99 26.3284 98.3284 27 97.5 27C96.6716 27 96 26.3284 96 25.5C96 24.6716 96.6716 24 97.5 24C98.3284 24 99 24.6716 99 25.5ZM105.5 27C106.328 27 107 26.3284 107 25.5C107 24.6716 106.328 24 105.5 24C104.672 24 104 24.6716 104 25.5C104 26.3284 104.672 27 105.5 27ZM115 25.5C115 26.3284 114.328 27 113.5 27C112.672 27 112 26.3284 112 25.5C112 24.6716 112.672 24 113.5 24C114.328 24 115 24.6716 115 25.5ZM11 17.5C11 18.3284 10.3284 19 9.5 19C8.67157 19 8 18.3284 8 17.5C8 16.6716 8.67157 16 9.5 16C10.3284 16 11 16.6716 11 17.5ZM17.5 19C18.3284 19 19 18.3284 19 17.5C19 16.6716 18.3284 16 17.5 16C16.6716 16 16 16.6716 16 17.5C16 18.3284 16.6716 19 17.5 19ZM27 17.5C27 18.3284 26.3284 19 25.5 19C24.6716 19 24 18.3284 24 17.5C24 16.6716 24.6716 16 25.5 16C26.3284 16 27 16.6716 27 17.5ZM33.5 19C34.3284 19 35 18.3284 35 17.5C35 16.6716 34.3284 16 33.5 16C32.6716 16 32 16.6716 32 17.5C32 18.3284 32.6716 19 33.5 19ZM43 17.5C43 18.3284 42.3284 19 41.5 19C40.6716 19 40 18.3284 40 17.5C40 16.6716 40.6716 16 41.5 16C42.3284 16 43 16.6716 43 17.5ZM49.5 19C50.3284 19 51 18.3284 51 17.5C51 16.6716 50.3284 16 49.5 16C48.6716 16 48 16.6716 48 17.5C48 18.3284 48.6716 19 49.5 19ZM59 17.5C59 18.3284 58.3284 19 57.5 19C56.6716 19 56 18.3284 56 17.5C56 16.6716 56.6716 16 57.5 16C58.3284 16 59 16.6716 59 17.5ZM65.5 19C66.3284 19 67 18.3284 67 17.5C67 16.6716 66.3284 16 65.5 16C64.6716 16 64 16.6716 64 17.5C64 18.3284 64.6716 19 65.5 19ZM75 17.5C75 18.3284 74.3284 19 73.5 19C72.6716 19 72 18.3284 72 17.5C72 16.6716 72.6716 16 73.5 16C74.3284 16 75 16.6716 75 17.5ZM81.5 19C82.3284 19 83 18.3284 83 17.5C83 16.6716 82.3284 16 81.5 16C80.6716 16 80 16.6716 80 17.5C80 18.3284 80.6716 19 81.5 19ZM91 17.5C91 18.3284 90.3284 19 89.5 19C88.6716 19 88 18.3284 88 17.5C88 16.6716 88.6716 16 89.5 16C90.3284 16 91 16.6716 91 17.5ZM97.5 19C98.3284 19 99 18.3284 99 17.5C99 16.6716 98.3284 16 97.5 16C96.6716 16 96 16.6716 96 17.5C96 18.3284 96.6716 19 97.5 19ZM107 17.5C107 18.3284 106.328 19 105.5 19C104.672 19 104 18.3284 104 17.5C104 16.6716 104.672 16 105.5 16C106.328 16 107 16.6716 107 17.5ZM113.5 19C114.328 19 115 18.3284 115 17.5C115 16.6716 114.328 16 113.5 16C112.672 16 112 16.6716 112 17.5C112 18.3284 112.672 19 113.5 19ZM9.5 11C10.3284 11 11 10.3284 11 9.5C11 8.67157 10.3284 8 9.5 8C8.67157 8 8 8.67157 8 9.5C8 10.3284 8.67157 11 9.5 11ZM19 9.5C19 10.3284 18.3284 11 17.5 11C16.6716 11 16 10.3284 16 9.5C16 8.67157 16.6716 8 17.5 8C18.3284 8 19 8.67157 19 9.5ZM25.5 11C26.3284 11 27 10.3284 27 9.5C27 8.67157 26.3284 8 25.5 8C24.6716 8 24 8.67157 24 9.5C24 10.3284 24.6716 11 25.5 11ZM35 9.5C35 10.3284 34.3284 11 33.5 11C32.6716 11 32 10.3284 32 9.5C32 8.67157 32.6716 8 33.5 8C34.3284 8 35 8.67157 35 9.5ZM41.5 11C42.3284 11 43 10.3284 43 9.5C43 8.67157 42.3284 8 41.5 8C40.6716 8 40 8.67157 40 9.5C40 10.3284 40.6716 11 41.5 11ZM51 9.5C51 10.3284 50.3284 11 49.5 11C48.6716 11 48 10.3284 48 9.5C48 8.67157 48.6716 8 49.5 8C50.3284 8 51 8.67157 51 9.5ZM57.5 11C58.3284 11 59 10.3284 59 9.5C59 8.67157 58.3284 8 57.5 8C56.6716 8 56 8.67157 56 9.5C56 10.3284 56.6716 11 57.5 11ZM67 9.5C67 10.3284 66.3284 11 65.5 11C64.6716 11 64 10.3284 64 9.5C64 8.67157 64.6716 8 65.5 8C66.3284 8 67 8.67157 67 9.5ZM73.5 11C74.3284 11 75 10.3284 75 9.5C75 8.67157 74.3284 8 73.5 8C72.6716 8 72 8.67157 72 9.5C72 10.3284 72.6716 11 73.5 11ZM83 9.5C83 10.3284 82.3284 11 81.5 11C80.6716 11 80 10.3284 80 9.5C80 8.67157 80.6716 8 81.5 8C82.3284 8 83 8.67157 83 9.5ZM89.5 11C90.3284 11 91 10.3284 91 9.5C91 8.67157 90.3284 8 89.5 8C88.6716 8 88 8.67157 88 9.5C88 10.3284 88.6716 11 89.5 11ZM99 9.5C99 10.3284 98.3284 11 97.5 11C96.6716 11 96 10.3284 96 9.5C96 8.67157 96.6716 8 97.5 8C98.3284 8 99 8.67157 99 9.5ZM105.5 11C106.328 11 107 10.3284 107 9.5C107 8.67157 106.328 8 105.5 8C104.672 8 104 8.67157 104 9.5C104 10.3284 104.672 11 105.5 11ZM115 9.5C115 10.3284 114.328 11 113.5 11C112.672 11 112 10.3284 112 9.5C112 8.67157 112.672 8 113.5 8C114.328 8 115 8.67157 115 9.5ZM11 1.5C11 2.32843 10.3284 3 9.5 3C8.67157 3 8 2.32843 8 1.5C8 0.671573 8.67157 0 9.5 0C10.3284 0 11 0.671573 11 1.5ZM17.5 3C18.3284 3 19 2.32843 19 1.5C19 0.671573 18.3284 0 17.5 0C16.6716 0 16 0.671573 16 1.5C16 2.32843 16.6716 3 17.5 3ZM27 1.5C27 2.32843 26.3284 3 25.5 3C24.6716 3 24 2.32843 24 1.5C24 0.671573 24.6716 0 25.5 0C26.3284 0 27 0.671573 27 1.5ZM33.5 3C34.3284 3 35 2.32843 35 1.5C35 0.671573 34.3284 0 33.5 0C32.6716 0 32 0.671573 32 1.5C32 2.32843 32.6716 3 33.5 3ZM43 1.5C43 2.32843 42.3284 3 41.5 3C40.6716 3 40 2.32843 40 1.5C40 0.671573 40.6716 0 41.5 0C42.3284 0 43 0.671573 43 1.5ZM49.5 3C50.3284 3 51 2.32843 51 1.5C51 0.671573 50.3284 0 49.5 0C48.6716 0 48 0.671573 48 1.5C48 2.32843 48.6716 3 49.5 3ZM59 1.5C59 2.32843 58.3284 3 57.5 3C56.6716 3 56 2.32843 56 1.5C56 0.671573 56.6716 0 57.5 0C58.3284 0 59 0.671573 59 1.5ZM65.5 3C66.3284 3 67 2.32843 67 1.5C67 0.671573 66.3284 0 65.5 0C64.6716 0 64 0.671573 64 1.5C64 2.32843 64.6716 3 65.5 3ZM75 1.5C75 2.32843 74.3284 3 73.5 3C72.6716 3 72 2.32843 72 1.5C72 0.671573 72.6716 0 73.5 0C74.3284 0 75 0.671573 75 1.5ZM81.5 3C82.3284 3 83 2.32843 83 1.5C83 0.671573 82.3284 0 81.5 0C80.6716 0 80 0.671573 80 1.5C80 2.32843 80.6716 3 81.5 3ZM91 1.5C91 2.32843 90.3284 3 89.5 3C88.6716 3 88 2.32843 88 1.5C88 0.671573 88.6716 0 89.5 0C90.3284 0 91 0.671573 91 1.5ZM97.5 3C98.3284 3 99 2.32843 99 1.5C99 0.671573 98.3284 0 97.5 0C96.6716 0 96 0.671573 96 1.5C96 2.32843 96.6716 3 97.5 3ZM107 1.5C107 2.32843 106.328 3 105.5 3C104.672 3 104 2.32843 104 1.5C104 0.671573 104.672 0 105.5 0C106.328 0 107 0.671573 107 1.5ZM113.5 3C114.328 3 115 2.32843 115 1.5C115 0.671573 114.328 0 113.5 0C112.672 0 112 0.671573 112 1.5C112 2.32843 112.672 3 113.5 3Z" fill="url(#paint0_linear_8180_2247)" fill-opacity="0.21"/>
<defs>
<linearGradient id="paint0_linear_8180_2247" x1="2.88396e-06" y1="140.489" x2="84.8121" y2="-14.3536" gradientUnits="userSpaceOnUse">
<stop stop-color="#444444"/>
<stop offset="1" stop-color="#AAAAAA"/>
</linearGradient>
</defs>
</svg>
