<svg width="15" height="12" viewBox="0 0 15 12" fill="none" xmlns="http://www.w3.org/2000/svg">
<path d="M7.212 0C10.8067 0 13.7973 2.58667 14.4247 6C13.798 9.41333 10.8067 12 7.212 12C3.61733 12 0.626667 9.41333 0 6C0.626667 2.58667 3.61733 0 7.212 0ZM7.212 10.6667C8.57176 10.6665 9.89119 10.2048 10.9543 9.35699C12.0174 8.50921 12.7612 7.32563 13.064 6C12.7604 4.67521 12.0163 3.49264 10.9533 2.64569C9.89036 1.79875 8.57146 1.33757 7.21233 1.33757C5.85321 1.33757 4.5343 1.79875 3.47133 2.64569C2.40836 3.49264 1.66424 4.67521 1.36067 6C1.6634 7.32552 2.40712 8.50901 3.4701 9.35678C4.53308 10.2045 5.85235 10.6664 7.212 10.6667ZM7.212 9C6.41635 9 5.65329 8.68393 5.09068 8.12132C4.52807 7.55871 4.212 6.79565 4.212 6C4.212 5.20435 4.52807 4.44129 5.09068 3.87868C5.65329 3.31607 6.41635 3 7.212 3C8.00765 3 8.77071 3.31607 9.33332 3.87868C9.89593 4.44129 10.212 5.20435 10.212 6C10.212 6.79565 9.89593 7.55871 9.33332 8.12132C8.77071 8.68393 8.00765 9 7.212 9ZM7.212 7.66667C7.65403 7.66667 8.07795 7.49107 8.39051 7.17851C8.70307 6.86595 8.87867 6.44203 8.87867 6C8.87867 5.55797 8.70307 5.13405 8.39051 4.82149C8.07795 4.50893 7.65403 4.33333 7.212 4.33333C6.76997 4.33333 6.34605 4.50893 6.03349 4.82149C5.72093 5.13405 5.54533 5.55797 5.54533 6C5.54533 6.44203 5.72093 6.86595 6.03349 7.17851C6.34605 7.49107 6.76997 7.66667 7.212 7.66667Z" fill="#898989"/>
</svg>
