<svg width="115" height="73" viewBox="0 0 115 73" fill="none" xmlns="http://www.w3.org/2000/svg">
<path fill-rule="evenodd" clip-rule="evenodd" d="M1.5 3C2.32843 3 3 2.32843 3 1.5C3 0.67157 2.32843 0 1.5 0C0.671573 0 0 0.67157 0 1.5C0 2.32843 0.671573 3 1.5 3ZM3 8.5C3 9.32843 2.32843 10 1.5 10C0.671573 10 0 9.32843 0 8.5C0 7.67157 0.671573 7 1.5 7C2.32843 7 3 7.67157 3 8.5ZM1.5 17C2.32843 17 3 16.3284 3 15.5C3 14.6716 2.32843 14 1.5 14C0.671573 14 0 14.6716 0 15.5C0 16.3284 0.671573 17 1.5 17ZM3 22.5C3 23.3284 2.32843 24 1.5 24C0.671573 24 0 23.3284 0 22.5C0 21.6716 0.671573 21 1.5 21C2.32843 21 3 21.6716 3 22.5ZM1.5 31C2.32843 31 3 30.3284 3 29.5C3 28.6716 2.32843 28 1.5 28C0.671573 28 0 28.6716 0 29.5C0 30.3284 0.671573 31 1.5 31ZM3 36.5C3 37.3284 2.32843 38 1.5 38C0.671573 38 0 37.3284 0 36.5C0 35.6716 0.671573 35 1.5 35C2.32843 35 3 35.6716 3 36.5ZM1.5 45C2.32843 45 3 44.3284 3 43.5C3 42.6716 2.32843 42 1.5 42C0.671573 42 0 42.6716 0 43.5C0 44.3284 0.671573 45 1.5 45ZM3 50.5C3 51.3284 2.32843 52 1.5 52C0.671573 52 0 51.3284 0 50.5C0 49.6716 0.671573 49 1.5 49C2.32843 49 3 49.6716 3 50.5ZM1.5 59C2.32843 59 3 58.3284 3 57.5C3 56.6716 2.32843 56 1.5 56C0.671573 56 0 56.6716 0 57.5C0 58.3284 0.671573 59 1.5 59ZM3 64.5C3 65.3284 2.32843 66 1.5 66C0.671573 66 0 65.3284 0 64.5C0 63.6716 0.671573 63 1.5 63C2.32843 63 3 63.6716 3 64.5ZM3 71.5C3 72.3284 2.32843 73 1.5 73C0.671573 73 0 72.3284 0 71.5C0 70.6716 0.671573 70 1.5 70C2.32843 70 3 70.6716 3 71.5ZM11 71.5C11 72.3284 10.3284 73 9.5 73C8.67157 73 8 72.3284 8 71.5C8 70.6716 8.67157 70 9.5 70C10.3284 70 11 70.6716 11 71.5ZM17.5 73C18.3284 73 19 72.3284 19 71.5C19 70.6716 18.3284 70 17.5 70C16.6716 70 16 70.6716 16 71.5C16 72.3284 16.6716 73 17.5 73ZM27 71.5C27 72.3284 26.3284 73 25.5 73C24.6716 73 24 72.3284 24 71.5C24 70.6716 24.6716 70 25.5 70C26.3284 70 27 70.6716 27 71.5ZM33.5 73C34.3284 73 35 72.3284 35 71.5C35 70.6716 34.3284 70 33.5 70C32.6716 70 32 70.6716 32 71.5C32 72.3284 32.6716 73 33.5 73ZM43 71.5C43 72.3284 42.3284 73 41.5 73C40.6716 73 40 72.3284 40 71.5C40 70.6716 40.6716 70 41.5 70C42.3284 70 43 70.6716 43 71.5ZM49.5 73C50.3284 73 51 72.3284 51 71.5C51 70.6716 50.3284 70 49.5 70C48.6716 70 48 70.6716 48 71.5C48 72.3284 48.6716 73 49.5 73ZM59 71.5C59 72.3284 58.3284 73 57.5 73C56.6716 73 56 72.3284 56 71.5C56 70.6716 56.6716 70 57.5 70C58.3284 70 59 70.6716 59 71.5ZM65.5 73C66.3284 73 67 72.3284 67 71.5C67 70.6716 66.3284 70 65.5 70C64.6716 70 64 70.6716 64 71.5C64 72.3284 64.6716 73 65.5 73ZM75 71.5C75 72.3284 74.3284 73 73.5 73C72.6716 73 72 72.3284 72 71.5C72 70.6716 72.6716 70 73.5 70C74.3284 70 75 70.6716 75 71.5ZM81.5 73C82.3284 73 83 72.3284 83 71.5C83 70.6716 82.3284 70 81.5 70C80.6716 70 80 70.6716 80 71.5C80 72.3284 80.6716 73 81.5 73ZM91 71.5C91 72.3284 90.3284 73 89.5 73C88.6716 73 88 72.3284 88 71.5C88 70.6716 88.6716 70 89.5 70C90.3284 70 91 70.6716 91 71.5ZM97.5 73C98.3284 73 99 72.3284 99 71.5C99 70.6716 98.3284 70 97.5 70C96.6716 70 96 70.6716 96 71.5C96 72.3284 96.6716 73 97.5 73ZM107 71.5C107 72.3284 106.328 73 105.5 73C104.672 73 104 72.3284 104 71.5C104 70.6716 104.672 70 105.5 70C106.328 70 107 70.6716 107 71.5ZM113.5 73C114.328 73 115 72.3284 115 71.5C115 70.6716 114.328 70 113.5 70C112.672 70 112 70.6716 112 71.5C112 72.3284 112.672 73 113.5 73ZM9.5 66C10.3284 66 11 65.3284 11 64.5C11 63.6716 10.3284 63 9.5 63C8.67157 63 8 63.6716 8 64.5C8 65.3284 8.67157 66 9.5 66ZM19 64.5C19 65.3284 18.3284 66 17.5 66C16.6716 66 16 65.3284 16 64.5C16 63.6716 16.6716 63 17.5 63C18.3284 63 19 63.6716 19 64.5ZM25.5 66C26.3284 66 27 65.3284 27 64.5C27 63.6716 26.3284 63 25.5 63C24.6716 63 24 63.6716 24 64.5C24 65.3284 24.6716 66 25.5 66ZM35 64.5C35 65.3284 34.3284 66 33.5 66C32.6716 66 32 65.3284 32 64.5C32 63.6716 32.6716 63 33.5 63C34.3284 63 35 63.6716 35 64.5ZM41.5 66C42.3284 66 43 65.3284 43 64.5C43 63.6716 42.3284 63 41.5 63C40.6716 63 40 63.6716 40 64.5C40 65.3284 40.6716 66 41.5 66ZM51 64.5C51 65.3284 50.3284 66 49.5 66C48.6716 66 48 65.3284 48 64.5C48 63.6716 48.6716 63 49.5 63C50.3284 63 51 63.6716 51 64.5ZM57.5 66C58.3284 66 59 65.3284 59 64.5C59 63.6716 58.3284 63 57.5 63C56.6716 63 56 63.6716 56 64.5C56 65.3284 56.6716 66 57.5 66ZM67 64.5C67 65.3284 66.3284 66 65.5 66C64.6716 66 64 65.3284 64 64.5C64 63.6716 64.6716 63 65.5 63C66.3284 63 67 63.6716 67 64.5ZM73.5 66C74.3284 66 75 65.3284 75 64.5C75 63.6716 74.3284 63 73.5 63C72.6716 63 72 63.6716 72 64.5C72 65.3284 72.6716 66 73.5 66ZM83 64.5C83 65.3284 82.3284 66 81.5 66C80.6716 66 80 65.3284 80 64.5C80 63.6716 80.6716 63 81.5 63C82.3284 63 83 63.6716 83 64.5ZM89.5 66C90.3284 66 91 65.3284 91 64.5C91 63.6716 90.3284 63 89.5 63C88.6716 63 88 63.6716 88 64.5C88 65.3284 88.6716 66 89.5 66ZM99 64.5C99 65.3284 98.3284 66 97.5 66C96.6716 66 96 65.3284 96 64.5C96 63.6716 96.6716 63 97.5 63C98.3284 63 99 63.6716 99 64.5ZM105.5 66C106.328 66 107 65.3284 107 64.5C107 63.6716 106.328 63 105.5 63C104.672 63 104 63.6716 104 64.5C104 65.3284 104.672 66 105.5 66ZM115 64.5C115 65.3284 114.328 66 113.5 66C112.672 66 112 65.3284 112 64.5C112 63.6716 112.672 63 113.5 63C114.328 63 115 63.6716 115 64.5ZM11 57.5C11 58.3284 10.3284 59 9.5 59C8.67157 59 8 58.3284 8 57.5C8 56.6716 8.67157 56 9.5 56C10.3284 56 11 56.6716 11 57.5ZM17.5 59C18.3284 59 19 58.3284 19 57.5C19 56.6716 18.3284 56 17.5 56C16.6716 56 16 56.6716 16 57.5C16 58.3284 16.6716 59 17.5 59ZM27 57.5C27 58.3284 26.3284 59 25.5 59C24.6716 59 24 58.3284 24 57.5C24 56.6716 24.6716 56 25.5 56C26.3284 56 27 56.6716 27 57.5ZM33.5 59C34.3284 59 35 58.3284 35 57.5C35 56.6716 34.3284 56 33.5 56C32.6716 56 32 56.6716 32 57.5C32 58.3284 32.6716 59 33.5 59ZM43 57.5C43 58.3284 42.3284 59 41.5 59C40.6716 59 40 58.3284 40 57.5C40 56.6716 40.6716 56 41.5 56C42.3284 56 43 56.6716 43 57.5ZM49.5 59C50.3284 59 51 58.3284 51 57.5C51 56.6716 50.3284 56 49.5 56C48.6716 56 48 56.6716 48 57.5C48 58.3284 48.6716 59 49.5 59ZM59 57.5C59 58.3284 58.3284 59 57.5 59C56.6716 59 56 58.3284 56 57.5C56 56.6716 56.6716 56 57.5 56C58.3284 56 59 56.6716 59 57.5ZM65.5 59C66.3284 59 67 58.3284 67 57.5C67 56.6716 66.3284 56 65.5 56C64.6716 56 64 56.6716 64 57.5C64 58.3284 64.6716 59 65.5 59ZM75 57.5C75 58.3284 74.3284 59 73.5 59C72.6716 59 72 58.3284 72 57.5C72 56.6716 72.6716 56 73.5 56C74.3284 56 75 56.6716 75 57.5ZM81.5 59C82.3284 59 83 58.3284 83 57.5C83 56.6716 82.3284 56 81.5 56C80.6716 56 80 56.6716 80 57.5C80 58.3284 80.6716 59 81.5 59ZM91 57.5C91 58.3284 90.3284 59 89.5 59C88.6716 59 88 58.3284 88 57.5C88 56.6716 88.6716 56 89.5 56C90.3284 56 91 56.6716 91 57.5ZM97.5 59C98.3284 59 99 58.3284 99 57.5C99 56.6716 98.3284 56 97.5 56C96.6716 56 96 56.6716 96 57.5C96 58.3284 96.6716 59 97.5 59ZM107 57.5C107 58.3284 106.328 59 105.5 59C104.672 59 104 58.3284 104 57.5C104 56.6716 104.672 56 105.5 56C106.328 56 107 56.6716 107 57.5ZM113.5 59C114.328 59 115 58.3284 115 57.5C115 56.6716 114.328 56 113.5 56C112.672 56 112 56.6716 112 57.5C112 58.3284 112.672 59 113.5 59ZM9.5 52C10.3284 52 11 51.3284 11 50.5C11 49.6716 10.3284 49 9.5 49C8.67157 49 8 49.6716 8 50.5C8 51.3284 8.67157 52 9.5 52ZM19 50.5C19 51.3284 18.3284 52 17.5 52C16.6716 52 16 51.3284 16 50.5C16 49.6716 16.6716 49 17.5 49C18.3284 49 19 49.6716 19 50.5ZM25.5 52C26.3284 52 27 51.3284 27 50.5C27 49.6716 26.3284 49 25.5 49C24.6716 49 24 49.6716 24 50.5C24 51.3284 24.6716 52 25.5 52ZM35 50.5C35 51.3284 34.3284 52 33.5 52C32.6716 52 32 51.3284 32 50.5C32 49.6716 32.6716 49 33.5 49C34.3284 49 35 49.6716 35 50.5ZM41.5 52C42.3284 52 43 51.3284 43 50.5C43 49.6716 42.3284 49 41.5 49C40.6716 49 40 49.6716 40 50.5C40 51.3284 40.6716 52 41.5 52ZM51 50.5C51 51.3284 50.3284 52 49.5 52C48.6716 52 48 51.3284 48 50.5C48 49.6716 48.6716 49 49.5 49C50.3284 49 51 49.6716 51 50.5ZM57.5 52C58.3284 52 59 51.3284 59 50.5C59 49.6716 58.3284 49 57.5 49C56.6716 49 56 49.6716 56 50.5C56 51.3284 56.6716 52 57.5 52ZM67 50.5C67 51.3284 66.3284 52 65.5 52C64.6716 52 64 51.3284 64 50.5C64 49.6716 64.6716 49 65.5 49C66.3284 49 67 49.6716 67 50.5ZM73.5 52C74.3284 52 75 51.3284 75 50.5C75 49.6716 74.3284 49 73.5 49C72.6716 49 72 49.6716 72 50.5C72 51.3284 72.6716 52 73.5 52ZM83 50.5C83 51.3284 82.3284 52 81.5 52C80.6716 52 80 51.3284 80 50.5C80 49.6716 80.6716 49 81.5 49C82.3284 49 83 49.6716 83 50.5ZM89.5 52C90.3284 52 91 51.3284 91 50.5C91 49.6716 90.3284 49 89.5 49C88.6716 49 88 49.6716 88 50.5C88 51.3284 88.6716 52 89.5 52ZM99 50.5C99 51.3284 98.3284 52 97.5 52C96.6716 52 96 51.3284 96 50.5C96 49.6716 96.6716 49 97.5 49C98.3284 49 99 49.6716 99 50.5ZM105.5 52C106.328 52 107 51.3284 107 50.5C107 49.6716 106.328 49 105.5 49C104.672 49 104 49.6716 104 50.5C104 51.3284 104.672 52 105.5 52ZM115 50.5C115 51.3284 114.328 52 113.5 52C112.672 52 112 51.3284 112 50.5C112 49.6716 112.672 49 113.5 49C114.328 49 115 49.6716 115 50.5ZM11 43.5C11 44.3284 10.3284 45 9.5 45C8.67157 45 8 44.3284 8 43.5C8 42.6716 8.67157 42 9.5 42C10.3284 42 11 42.6716 11 43.5ZM17.5 45C18.3284 45 19 44.3284 19 43.5C19 42.6716 18.3284 42 17.5 42C16.6716 42 16 42.6716 16 43.5C16 44.3284 16.6716 45 17.5 45ZM27 43.5C27 44.3284 26.3284 45 25.5 45C24.6716 45 24 44.3284 24 43.5C24 42.6716 24.6716 42 25.5 42C26.3284 42 27 42.6716 27 43.5ZM33.5 45C34.3284 45 35 44.3284 35 43.5C35 42.6716 34.3284 42 33.5 42C32.6716 42 32 42.6716 32 43.5C32 44.3284 32.6716 45 33.5 45ZM43 43.5C43 44.3284 42.3284 45 41.5 45C40.6716 45 40 44.3284 40 43.5C40 42.6716 40.6716 42 41.5 42C42.3284 42 43 42.6716 43 43.5ZM49.5 45C50.3284 45 51 44.3284 51 43.5C51 42.6716 50.3284 42 49.5 42C48.6716 42 48 42.6716 48 43.5C48 44.3284 48.6716 45 49.5 45ZM59 43.5C59 44.3284 58.3284 45 57.5 45C56.6716 45 56 44.3284 56 43.5C56 42.6716 56.6716 42 57.5 42C58.3284 42 59 42.6716 59 43.5ZM65.5 45C66.3284 45 67 44.3284 67 43.5C67 42.6716 66.3284 42 65.5 42C64.6716 42 64 42.6716 64 43.5C64 44.3284 64.6716 45 65.5 45ZM75 43.5C75 44.3284 74.3284 45 73.5 45C72.6716 45 72 44.3284 72 43.5C72 42.6716 72.6716 42 73.5 42C74.3284 42 75 42.6716 75 43.5ZM81.5 45C82.3284 45 83 44.3284 83 43.5C83 42.6716 82.3284 42 81.5 42C80.6716 42 80 42.6716 80 43.5C80 44.3284 80.6716 45 81.5 45ZM91 43.5C91 44.3284 90.3284 45 89.5 45C88.6716 45 88 44.3284 88 43.5C88 42.6716 88.6716 42 89.5 42C90.3284 42 91 42.6716 91 43.5ZM97.5 45C98.3284 45 99 44.3284 99 43.5C99 42.6716 98.3284 42 97.5 42C96.6716 42 96 42.6716 96 43.5C96 44.3284 96.6716 45 97.5 45ZM107 43.5C107 44.3284 106.328 45 105.5 45C104.672 45 104 44.3284 104 43.5C104 42.6716 104.672 42 105.5 42C106.328 42 107 42.6716 107 43.5ZM113.5 45C114.328 45 115 44.3284 115 43.5C115 42.6716 114.328 42 113.5 42C112.672 42 112 42.6716 112 43.5C112 44.3284 112.672 45 113.5 45ZM9.5 38C10.3284 38 11 37.3284 11 36.5C11 35.6716 10.3284 35 9.5 35C8.67157 35 8 35.6716 8 36.5C8 37.3284 8.67157 38 9.5 38ZM19 36.5C19 37.3284 18.3284 38 17.5 38C16.6716 38 16 37.3284 16 36.5C16 35.6716 16.6716 35 17.5 35C18.3284 35 19 35.6716 19 36.5ZM25.5 38C26.3284 38 27 37.3284 27 36.5C27 35.6716 26.3284 35 25.5 35C24.6716 35 24 35.6716 24 36.5C24 37.3284 24.6716 38 25.5 38ZM35 36.5C35 37.3284 34.3284 38 33.5 38C32.6716 38 32 37.3284 32 36.5C32 35.6716 32.6716 35 33.5 35C34.3284 35 35 35.6716 35 36.5ZM41.5 38C42.3284 38 43 37.3284 43 36.5C43 35.6716 42.3284 35 41.5 35C40.6716 35 40 35.6716 40 36.5C40 37.3284 40.6716 38 41.5 38ZM51 36.5C51 37.3284 50.3284 38 49.5 38C48.6716 38 48 37.3284 48 36.5C48 35.6716 48.6716 35 49.5 35C50.3284 35 51 35.6716 51 36.5ZM57.5 38C58.3284 38 59 37.3284 59 36.5C59 35.6716 58.3284 35 57.5 35C56.6716 35 56 35.6716 56 36.5C56 37.3284 56.6716 38 57.5 38ZM67 36.5C67 37.3284 66.3284 38 65.5 38C64.6716 38 64 37.3284 64 36.5C64 35.6716 64.6716 35 65.5 35C66.3284 35 67 35.6716 67 36.5ZM73.5 38C74.3284 38 75 37.3284 75 36.5C75 35.6716 74.3284 35 73.5 35C72.6716 35 72 35.6716 72 36.5C72 37.3284 72.6716 38 73.5 38ZM83 36.5C83 37.3284 82.3284 38 81.5 38C80.6716 38 80 37.3284 80 36.5C80 35.6716 80.6716 35 81.5 35C82.3284 35 83 35.6716 83 36.5ZM89.5 38C90.3284 38 91 37.3284 91 36.5C91 35.6716 90.3284 35 89.5 35C88.6716 35 88 35.6716 88 36.5C88 37.3284 88.6716 38 89.5 38ZM99 36.5C99 37.3284 98.3284 38 97.5 38C96.6716 38 96 37.3284 96 36.5C96 35.6716 96.6716 35 97.5 35C98.3284 35 99 35.6716 99 36.5ZM105.5 38C106.328 38 107 37.3284 107 36.5C107 35.6716 106.328 35 105.5 35C104.672 35 104 35.6716 104 36.5C104 37.3284 104.672 38 105.5 38ZM115 36.5C115 37.3284 114.328 38 113.5 38C112.672 38 112 37.3284 112 36.5C112 35.6716 112.672 35 113.5 35C114.328 35 115 35.6716 115 36.5ZM11 29.5C11 30.3284 10.3284 31 9.5 31C8.67157 31 8 30.3284 8 29.5C8 28.6716 8.67157 28 9.5 28C10.3284 28 11 28.6716 11 29.5ZM17.5 31C18.3284 31 19 30.3284 19 29.5C19 28.6716 18.3284 28 17.5 28C16.6716 28 16 28.6716 16 29.5C16 30.3284 16.6716 31 17.5 31ZM27 29.5C27 30.3284 26.3284 31 25.5 31C24.6716 31 24 30.3284 24 29.5C24 28.6716 24.6716 28 25.5 28C26.3284 28 27 28.6716 27 29.5ZM33.5 31C34.3284 31 35 30.3284 35 29.5C35 28.6716 34.3284 28 33.5 28C32.6716 28 32 28.6716 32 29.5C32 30.3284 32.6716 31 33.5 31ZM43 29.5C43 30.3284 42.3284 31 41.5 31C40.6716 31 40 30.3284 40 29.5C40 28.6716 40.6716 28 41.5 28C42.3284 28 43 28.6716 43 29.5ZM49.5 31C50.3284 31 51 30.3284 51 29.5C51 28.6716 50.3284 28 49.5 28C48.6716 28 48 28.6716 48 29.5C48 30.3284 48.6716 31 49.5 31ZM59 29.5C59 30.3284 58.3284 31 57.5 31C56.6716 31 56 30.3284 56 29.5C56 28.6716 56.6716 28 57.5 28C58.3284 28 59 28.6716 59 29.5ZM65.5 31C66.3284 31 67 30.3284 67 29.5C67 28.6716 66.3284 28 65.5 28C64.6716 28 64 28.6716 64 29.5C64 30.3284 64.6716 31 65.5 31ZM75 29.5C75 30.3284 74.3284 31 73.5 31C72.6716 31 72 30.3284 72 29.5C72 28.6716 72.6716 28 73.5 28C74.3284 28 75 28.6716 75 29.5ZM81.5 31C82.3284 31 83 30.3284 83 29.5C83 28.6716 82.3284 28 81.5 28C80.6716 28 80 28.6716 80 29.5C80 30.3284 80.6716 31 81.5 31ZM91 29.5C91 30.3284 90.3284 31 89.5 31C88.6716 31 88 30.3284 88 29.5C88 28.6716 88.6716 28 89.5 28C90.3284 28 91 28.6716 91 29.5ZM97.5 31C98.3284 31 99 30.3284 99 29.5C99 28.6716 98.3284 28 97.5 28C96.6716 28 96 28.6716 96 29.5C96 30.3284 96.6716 31 97.5 31ZM107 29.5C107 30.3284 106.328 31 105.5 31C104.672 31 104 30.3284 104 29.5C104 28.6716 104.672 28 105.5 28C106.328 28 107 28.6716 107 29.5ZM113.5 31C114.328 31 115 30.3284 115 29.5C115 28.6716 114.328 28 113.5 28C112.672 28 112 28.6716 112 29.5C112 30.3284 112.672 31 113.5 31ZM9.5 24C10.3284 24 11 23.3284 11 22.5C11 21.6716 10.3284 21 9.5 21C8.67157 21 8 21.6716 8 22.5C8 23.3284 8.67157 24 9.5 24ZM19 22.5C19 23.3284 18.3284 24 17.5 24C16.6716 24 16 23.3284 16 22.5C16 21.6716 16.6716 21 17.5 21C18.3284 21 19 21.6716 19 22.5ZM25.5 24C26.3284 24 27 23.3284 27 22.5C27 21.6716 26.3284 21 25.5 21C24.6716 21 24 21.6716 24 22.5C24 23.3284 24.6716 24 25.5 24ZM35 22.5C35 23.3284 34.3284 24 33.5 24C32.6716 24 32 23.3284 32 22.5C32 21.6716 32.6716 21 33.5 21C34.3284 21 35 21.6716 35 22.5ZM41.5 24C42.3284 24 43 23.3284 43 22.5C43 21.6716 42.3284 21 41.5 21C40.6716 21 40 21.6716 40 22.5C40 23.3284 40.6716 24 41.5 24ZM51 22.5C51 23.3284 50.3284 24 49.5 24C48.6716 24 48 23.3284 48 22.5C48 21.6716 48.6716 21 49.5 21C50.3284 21 51 21.6716 51 22.5ZM57.5 24C58.3284 24 59 23.3284 59 22.5C59 21.6716 58.3284 21 57.5 21C56.6716 21 56 21.6716 56 22.5C56 23.3284 56.6716 24 57.5 24ZM67 22.5C67 23.3284 66.3284 24 65.5 24C64.6716 24 64 23.3284 64 22.5C64 21.6716 64.6716 21 65.5 21C66.3284 21 67 21.6716 67 22.5ZM73.5 24C74.3284 24 75 23.3284 75 22.5C75 21.6716 74.3284 21 73.5 21C72.6716 21 72 21.6716 72 22.5C72 23.3284 72.6716 24 73.5 24ZM83 22.5C83 23.3284 82.3284 24 81.5 24C80.6716 24 80 23.3284 80 22.5C80 21.6716 80.6716 21 81.5 21C82.3284 21 83 21.6716 83 22.5ZM89.5 24C90.3284 24 91 23.3284 91 22.5C91 21.6716 90.3284 21 89.5 21C88.6716 21 88 21.6716 88 22.5C88 23.3284 88.6716 24 89.5 24ZM99 22.5C99 23.3284 98.3284 24 97.5 24C96.6716 24 96 23.3284 96 22.5C96 21.6716 96.6716 21 97.5 21C98.3284 21 99 21.6716 99 22.5ZM105.5 24C106.328 24 107 23.3284 107 22.5C107 21.6716 106.328 21 105.5 21C104.672 21 104 21.6716 104 22.5C104 23.3284 104.672 24 105.5 24ZM115 22.5C115 23.3284 114.328 24 113.5 24C112.672 24 112 23.3284 112 22.5C112 21.6716 112.672 21 113.5 21C114.328 21 115 21.6716 115 22.5ZM11 15.5C11 16.3284 10.3284 17 9.5 17C8.67157 17 8 16.3284 8 15.5C8 14.6716 8.67157 14 9.5 14C10.3284 14 11 14.6716 11 15.5ZM17.5 17C18.3284 17 19 16.3284 19 15.5C19 14.6716 18.3284 14 17.5 14C16.6716 14 16 14.6716 16 15.5C16 16.3284 16.6716 17 17.5 17ZM27 15.5C27 16.3284 26.3284 17 25.5 17C24.6716 17 24 16.3284 24 15.5C24 14.6716 24.6716 14 25.5 14C26.3284 14 27 14.6716 27 15.5ZM33.5 17C34.3284 17 35 16.3284 35 15.5C35 14.6716 34.3284 14 33.5 14C32.6716 14 32 14.6716 32 15.5C32 16.3284 32.6716 17 33.5 17ZM43 15.5C43 16.3284 42.3284 17 41.5 17C40.6716 17 40 16.3284 40 15.5C40 14.6716 40.6716 14 41.5 14C42.3284 14 43 14.6716 43 15.5ZM49.5 17C50.3284 17 51 16.3284 51 15.5C51 14.6716 50.3284 14 49.5 14C48.6716 14 48 14.6716 48 15.5C48 16.3284 48.6716 17 49.5 17ZM59 15.5C59 16.3284 58.3284 17 57.5 17C56.6716 17 56 16.3284 56 15.5C56 14.6716 56.6716 14 57.5 14C58.3284 14 59 14.6716 59 15.5ZM65.5 17C66.3284 17 67 16.3284 67 15.5C67 14.6716 66.3284 14 65.5 14C64.6716 14 64 14.6716 64 15.5C64 16.3284 64.6716 17 65.5 17ZM75 15.5C75 16.3284 74.3284 17 73.5 17C72.6716 17 72 16.3284 72 15.5C72 14.6716 72.6716 14 73.5 14C74.3284 14 75 14.6716 75 15.5ZM81.5 17C82.3284 17 83 16.3284 83 15.5C83 14.6716 82.3284 14 81.5 14C80.6716 14 80 14.6716 80 15.5C80 16.3284 80.6716 17 81.5 17ZM91 15.5C91 16.3284 90.3284 17 89.5 17C88.6716 17 88 16.3284 88 15.5C88 14.6716 88.6716 14 89.5 14C90.3284 14 91 14.6716 91 15.5ZM97.5 17C98.3284 17 99 16.3284 99 15.5C99 14.6716 98.3284 14 97.5 14C96.6716 14 96 14.6716 96 15.5C96 16.3284 96.6716 17 97.5 17ZM107 15.5C107 16.3284 106.328 17 105.5 17C104.672 17 104 16.3284 104 15.5C104 14.6716 104.672 14 105.5 14C106.328 14 107 14.6716 107 15.5ZM113.5 17C114.328 17 115 16.3284 115 15.5C115 14.6716 114.328 14 113.5 14C112.672 14 112 14.6716 112 15.5C112 16.3284 112.672 17 113.5 17ZM9.5 10C10.3284 10 11 9.32843 11 8.5C11 7.67157 10.3284 7 9.5 7C8.67157 7 8 7.67157 8 8.5C8 9.32843 8.67157 10 9.5 10ZM19 8.5C19 9.32843 18.3284 10 17.5 10C16.6716 10 16 9.32843 16 8.5C16 7.67157 16.6716 7 17.5 7C18.3284 7 19 7.67157 19 8.5ZM25.5 10C26.3284 10 27 9.32843 27 8.5C27 7.67157 26.3284 7 25.5 7C24.6716 7 24 7.67157 24 8.5C24 9.32843 24.6716 10 25.5 10ZM35 8.5C35 9.32843 34.3284 10 33.5 10C32.6716 10 32 9.32843 32 8.5C32 7.67157 32.6716 7 33.5 7C34.3284 7 35 7.67157 35 8.5ZM41.5 10C42.3284 10 43 9.32843 43 8.5C43 7.67157 42.3284 7 41.5 7C40.6716 7 40 7.67157 40 8.5C40 9.32843 40.6716 10 41.5 10ZM51 8.5C51 9.32843 50.3284 10 49.5 10C48.6716 10 48 9.32843 48 8.5C48 7.67157 48.6716 7 49.5 7C50.3284 7 51 7.67157 51 8.5ZM57.5 10C58.3284 10 59 9.32843 59 8.5C59 7.67157 58.3284 7 57.5 7C56.6716 7 56 7.67157 56 8.5C56 9.32843 56.6716 10 57.5 10ZM67 8.5C67 9.32843 66.3284 10 65.5 10C64.6716 10 64 9.32843 64 8.5C64 7.67157 64.6716 7 65.5 7C66.3284 7 67 7.67157 67 8.5ZM73.5 10C74.3284 10 75 9.32843 75 8.5C75 7.67157 74.3284 7 73.5 7C72.6716 7 72 7.67157 72 8.5C72 9.32843 72.6716 10 73.5 10ZM83 8.5C83 9.32843 82.3284 10 81.5 10C80.6716 10 80 9.32843 80 8.5C80 7.67157 80.6716 7 81.5 7C82.3284 7 83 7.67157 83 8.5ZM89.5 10C90.3284 10 91 9.32843 91 8.5C91 7.67157 90.3284 7 89.5 7C88.6716 7 88 7.67157 88 8.5C88 9.32843 88.6716 10 89.5 10ZM99 8.5C99 9.32843 98.3284 10 97.5 10C96.6716 10 96 9.32843 96 8.5C96 7.67157 96.6716 7 97.5 7C98.3284 7 99 7.67157 99 8.5ZM105.5 10C106.328 10 107 9.32843 107 8.5C107 7.67157 106.328 7 105.5 7C104.672 7 104 7.67157 104 8.5C104 9.32843 104.672 10 105.5 10ZM115 8.5C115 9.32843 114.328 10 113.5 10C112.672 10 112 9.32843 112 8.5C112 7.67157 112.672 7 113.5 7C114.328 7 115 7.67157 115 8.5ZM11 1.5C11 2.32843 10.3284 3 9.5 3C8.67157 3 8 2.32843 8 1.5C8 0.67157 8.67157 0 9.5 0C10.3284 0 11 0.67157 11 1.5ZM17.5 3C18.3284 3 19 2.32843 19 1.5C19 0.67157 18.3284 0 17.5 0C16.6716 0 16 0.67157 16 1.5C16 2.32843 16.6716 3 17.5 3ZM27 1.5C27 2.32843 26.3284 3 25.5 3C24.6716 3 24 2.32843 24 1.5C24 0.67157 24.6716 0 25.5 0C26.3284 0 27 0.67157 27 1.5ZM33.5 3C34.3284 3 35 2.32843 35 1.5C35 0.67157 34.3284 0 33.5 0C32.6716 0 32 0.67157 32 1.5C32 2.32843 32.6716 3 33.5 3ZM43 1.5C43 2.32843 42.3284 3 41.5 3C40.6716 3 40 2.32843 40 1.5C40 0.67157 40.6716 0 41.5 0C42.3284 0 43 0.67157 43 1.5ZM49.5 3C50.3284 3 51 2.32843 51 1.5C51 0.67157 50.3284 0 49.5 0C48.6716 0 48 0.67157 48 1.5C48 2.32843 48.6716 3 49.5 3ZM59 1.5C59 2.32843 58.3284 3 57.5 3C56.6716 3 56 2.32843 56 1.5C56 0.67157 56.6716 0 57.5 0C58.3284 0 59 0.67157 59 1.5ZM65.5 3C66.3284 3 67 2.32843 67 1.5C67 0.67157 66.3284 0 65.5 0C64.6716 0 64 0.67157 64 1.5C64 2.32843 64.6716 3 65.5 3ZM75 1.5C75 2.32843 74.3284 3 73.5 3C72.6716 3 72 2.32843 72 1.5C72 0.67157 72.6716 0 73.5 0C74.3284 0 75 0.67157 75 1.5ZM81.5 3C82.3284 3 83 2.32843 83 1.5C83 0.67157 82.3284 0 81.5 0C80.6716 0 80 0.67157 80 1.5C80 2.32843 80.6716 3 81.5 3ZM91 1.5C91 2.32843 90.3284 3 89.5 3C88.6716 3 88 2.32843 88 1.5C88 0.67157 88.6716 0 89.5 0C90.3284 0 91 0.67157 91 1.5ZM97.5 3C98.3284 3 99 2.32843 99 1.5C99 0.67157 98.3284 0 97.5 0C96.6716 0 96 0.67157 96 1.5C96 2.32843 96.6716 3 97.5 3ZM107 1.5C107 2.32843 106.328 3 105.5 3C104.672 3 104 2.32843 104 1.5C104 0.67157 104.672 0 105.5 0C106.328 0 107 0.67157 107 1.5ZM113.5 3C114.328 3 115 2.32843 115 1.5C115 0.67157 114.328 0 113.5 0C112.672 0 112 0.67157 112 1.5C112 2.32843 112.672 3 113.5 3Z" fill="url(#paint0_linear_8043_2590)" fill-opacity="0.21"/>
<defs>
<linearGradient id="paint0_linear_8043_2590" x1="115" y1="6.5" x2="-2.21266e-06" y2="73" gradientUnits="userSpaceOnUse">
<stop stop-color="#AAAAAA"/>
<stop offset="1" stop-color="#444444"/>
</linearGradient>
</defs>
</svg>
