<svg width="32" height="32" viewBox="0 0 32 32" fill="none" xmlns="http://www.w3.org/2000/svg">
<path d="M26.6663 23.3337C27.18 23.3339 27.6738 23.5318 28.0455 23.8862C28.4172 24.2406 28.6384 24.7245 28.663 25.2375C28.6877 25.7506 28.5141 26.2534 28.1781 26.6419C27.8421 27.0304 27.3696 27.2748 26.8583 27.3243L26.6663 27.3337H5.33301C4.81939 27.3334 4.32555 27.1356 3.95383 26.7811C3.5821 26.4267 3.36099 25.9428 3.33631 25.4298C3.31163 24.9167 3.48526 24.4139 3.82124 24.0254C4.15722 23.6369 4.62978 23.3926 5.14101 23.343L5.33301 23.3337H26.6663ZM26.6663 14.0003C27.1968 14.0003 27.7055 14.211 28.0806 14.5861C28.4556 14.9612 28.6663 15.4699 28.6663 16.0003C28.6663 16.5308 28.4556 17.0395 28.0806 17.4145C27.7055 17.7896 27.1968 18.0003 26.6663 18.0003H5.33301C4.80257 18.0003 4.29387 17.7896 3.91879 17.4145C3.54372 17.0395 3.33301 16.5308 3.33301 16.0003C3.33301 15.4699 3.54372 14.9612 3.91879 14.5861C4.29387 14.211 4.80257 14.0003 5.33301 14.0003H26.6663ZM26.6663 4.66699C27.1968 4.66699 27.7055 4.87771 28.0806 5.25278C28.4556 5.62785 28.6663 6.13656 28.6663 6.66699C28.6663 7.19743 28.4556 7.70613 28.0806 8.08121C27.7055 8.45628 27.1968 8.66699 26.6663 8.66699H5.33301C4.80257 8.66699 4.29387 8.45628 3.91879 8.08121C3.54372 7.70613 3.33301 7.19743 3.33301 6.66699C3.33301 6.13656 3.54372 5.62785 3.91879 5.25278C4.29387 4.87771 4.80257 4.66699 5.33301 4.66699H26.6663Z" fill="white"/>
</svg>
