<svg width="24" height="24" viewBox="0 0 24 24" fill="none" xmlns="http://www.w3.org/2000/svg">
<circle cx="12" cy="12" r="12" fill="#DDDDDD"/>
<path d="M16 9.08607C16.0009 8.18673 15.6962 7.31227 15.1332 6.59853C14.5703 5.88479 13.7806 5.37173 12.8869 5.13902C11.9931 4.90632 11.0453 4.967 10.1907 5.31165C9.33606 5.6563 8.62245 6.26562 8.16069 7.04497C8.00157 7.31301 7.95851 7.63151 8.04098 7.93041C8.12346 8.22931 8.32471 8.48411 8.60047 8.63878C8.87624 8.79345 9.20391 8.8353 9.51143 8.75514C9.81894 8.67497 10.0811 8.47935 10.2402 8.21132C10.3986 7.94543 10.626 7.72466 10.8998 7.57114C11.1736 7.41761 11.4841 7.33672 11.8002 7.33656C12.2775 7.33656 12.7353 7.52088 13.0729 7.84898C13.4105 8.17708 13.6001 8.62207 13.6001 9.08607C13.6001 9.55008 13.4105 9.99507 13.0729 10.3232C12.7353 10.6513 12.2775 10.8356 11.8002 10.8356H11.7966C11.7192 10.8432 11.6428 10.8584 11.5686 10.8811C11.488 10.889 11.4084 10.9047 11.331 10.9277C11.2651 10.9627 11.2028 11.0037 11.145 11.0502C11.0761 11.0867 11.0109 11.1297 10.9506 11.1785C10.8966 11.2412 10.8496 11.3092 10.8102 11.3814C10.7663 11.434 10.7274 11.4902 10.6938 11.5494C10.6677 11.6298 10.6504 11.7127 10.6422 11.7967C10.6216 11.8636 10.6075 11.9324 10.6002 12.0019V13.1683L10.6026 13.1811V13.7538C10.6032 14.0627 10.7299 14.3588 10.9549 14.577C11.1799 14.7952 11.4847 14.9178 11.8026 14.9178H11.8062C11.9637 14.9175 12.1197 14.887 12.2652 14.8281C12.4106 14.7692 12.5427 14.6831 12.6539 14.5745C12.7652 14.466 12.8533 14.3373 12.9133 14.1956C12.9733 14.054 13.004 13.9023 13.0037 13.7491L13.0013 12.977C13.8649 12.7276 14.6228 12.2146 15.1629 11.5138C15.7031 10.813 15.9966 9.9617 16 9.08607ZM10.9566 17.0056C10.7881 17.168 10.6729 17.3753 10.6257 17.6014C10.5784 17.8275 10.6012 18.0621 10.6911 18.2755C10.781 18.489 10.934 18.6718 11.1308 18.8007C11.3275 18.9297 11.5592 18.999 11.7966 19C12.1146 18.9973 12.4195 18.8763 12.6485 18.6618C12.8713 18.4405 12.9961 18.1432 12.9961 17.8337C12.9961 17.5241 12.8713 17.2268 12.6485 17.0056C12.4188 16.7975 12.1165 16.6818 11.8026 16.6818C11.4886 16.6818 11.1863 16.7975 10.9566 17.0056Z" fill="#FF6347"/>
</svg>
