<svg width="24" height="24" viewBox="0 0 24 24" fill="none" xmlns="http://www.w3.org/2000/svg">
<path d="M16.7828 20.9999C16.5427 20.9997 16.3082 20.9243 16.1092 20.7835L12.057 17.9352C12.0371 17.9207 12.0134 17.913 11.9891 17.913C11.9649 17.913 11.9412 17.9207 11.9212 17.9352L7.86903 20.7835C7.66555 20.926 7.42555 21.0002 7.1809 20.9962C6.93625 20.9923 6.69854 20.9104 6.49932 20.7614C6.3001 20.6125 6.1488 20.4035 6.06552 20.1622C5.98224 19.9209 5.97091 19.6588 6.03304 19.4106L7.36386 14.4887C7.37015 14.464 7.36939 14.4378 7.36167 14.4135C7.35394 14.3892 7.3396 14.3678 7.32041 14.352L3.48548 11.1904C3.28359 11.0327 3.13384 10.8126 3.05722 10.5611C2.98059 10.3097 2.98094 10.0393 3.05821 9.78806C3.13548 9.53679 3.28579 9.31718 3.48808 9.16003C3.69037 9.00287 3.93448 8.91605 4.18619 8.91174L9.07491 8.71806C9.09895 8.71632 9.122 8.70732 9.14127 8.69216C9.16055 8.677 9.17523 8.65632 9.18355 8.63261L10.8674 3.83037C10.9523 3.58692 11.1065 3.3767 11.3091 3.22818C11.5116 3.07965 11.7528 3 12 3C12.2472 3 12.4884 3.07965 12.6909 3.22818C12.8935 3.3767 13.0477 3.58692 13.1326 3.83037L14.8164 8.63261C14.8248 8.65632 14.8395 8.677 14.8587 8.69216C14.878 8.70732 14.901 8.71632 14.9251 8.71806L19.8138 8.91174C20.0655 8.91605 20.3096 9.00287 20.5119 9.16003C20.7142 9.31718 20.8645 9.53679 20.9418 9.78806C21.0191 10.0393 21.0194 10.3097 20.9428 10.5611C20.8662 10.8126 20.7164 11.0327 20.5145 11.1904L16.6796 14.352C16.6598 14.3673 16.645 14.3887 16.6373 14.4132C16.6295 14.4376 16.6291 14.464 16.6361 14.4887L17.967 19.4106C18.0137 19.5994 18.0183 19.7969 17.9805 19.9879C17.9427 20.1788 17.8635 20.3581 17.749 20.5118C17.6345 20.6655 17.4877 20.7895 17.3202 20.8741C17.1527 20.9588 16.9688 21.0018 16.7828 20.9999ZM11.9919 16.7731C12.2324 16.7808 12.4652 16.8641 12.66 17.0123L16.7122 19.8606C16.7327 19.877 16.7578 19.8859 16.7835 19.8862C16.8093 19.8864 16.8345 19.8778 16.8553 19.8618C16.8761 19.8458 16.8913 19.8231 16.8988 19.7973C16.9063 19.7714 16.9056 19.7436 16.8969 19.7182L15.5661 14.7963C15.5006 14.5549 15.5054 14.2984 15.5799 14.0599C15.6545 13.8213 15.7953 13.6116 15.9843 13.4576L19.8192 10.296C19.8402 10.2806 19.8558 10.2586 19.8639 10.2331C19.872 10.2077 19.8721 10.1802 19.8642 10.1547C19.8563 10.1292 19.8408 10.1071 19.82 10.0915C19.7992 10.0759 19.7742 10.0677 19.7486 10.0682L14.8599 9.87447C14.6205 9.86468 14.3894 9.78035 14.1959 9.63222C14.0024 9.48409 13.8553 9.27888 13.7735 9.04276L12.0896 4.24052C12.082 4.21502 12.0669 4.19274 12.0464 4.17691C12.0258 4.16109 12.001 4.15255 11.9756 4.15255C11.9501 4.15255 11.9253 4.16109 11.9048 4.17691C11.8842 4.19274 11.8691 4.21502 11.8615 4.24052L10.1939 9.03707C10.1121 9.27318 9.96503 9.47839 9.77154 9.62652C9.57805 9.77465 9.34688 9.85898 9.10751 9.86877L4.21878 10.0625C4.19322 10.062 4.1682 10.0702 4.1474 10.0858C4.1266 10.1014 4.11111 10.1235 4.10321 10.149C4.0953 10.1745 4.09541 10.202 4.1035 10.2274C4.11159 10.2529 4.12725 10.2749 4.14817 10.2903L7.98853 13.4576C8.17699 13.6121 8.31738 13.8219 8.39186 14.0603C8.46633 14.2986 8.47153 14.5549 8.40679 14.7963L7.0814 19.7182C7.07349 19.7429 7.07345 19.7695 7.0813 19.7942C7.08914 19.8189 7.10443 19.8402 7.12486 19.8549C7.14454 19.8726 7.16958 19.8823 7.19547 19.8823C7.22137 19.8823 7.24641 19.8726 7.26609 19.8549L11.3183 17.0066C11.5163 16.8689 11.7488 16.7955 11.9864 16.7958L11.9919 16.7731Z" fill="black" stroke="black" stroke-width="0.6"/>
</svg>
