<svg width="18" height="17" viewBox="0 0 18 17" fill="none" xmlns="http://www.w3.org/2000/svg">
<path d="M15.6654 0.500041H14.832V11.3334H15.6654C16.1074 11.3334 16.5313 11.1578 16.8439 10.8452C17.1564 10.5327 17.332 10.1087 17.332 9.66671V2.16671C17.332 1.72468 17.1564 1.30076 16.8439 0.988196C16.5313 0.675636 16.1074 0.500041 15.6654 0.500041ZM2.33203 11.3334H8.16537L7.23036 14.14C7.14694 14.3905 7.12421 14.6573 7.16405 14.9182C7.2039 15.1792 7.30518 15.427 7.45955 15.6412C7.61392 15.8554 7.81697 16.0298 8.05196 16.1502C8.28696 16.2705 8.54718 16.3333 8.8112 16.3334H8.9987L13.1654 11.8017V0.500041H3.9987L0.738697 7.66337L0.665365 8.00004V9.66671C0.665365 10.1087 0.84096 10.5327 1.15352 10.8452C1.46608 11.1578 1.89 11.3334 2.33203 11.3334Z" fill="#444444"/>
</svg>
