<svg width="18" height="17" viewBox="0 0 18 17" fill="none" xmlns="http://www.w3.org/2000/svg">
<path d="M2.33464 16.5H3.16797V5.66663H2.33464C1.89261 5.66663 1.46868 5.84222 1.15612 6.15478C0.843563 6.46734 0.667969 6.89126 0.667969 7.33329V14.8333C0.667969 15.2753 0.843563 15.6992 1.15612 16.0118C1.46868 16.3244 1.89261 16.5 2.33464 16.5ZM15.668 5.66663H9.83463L10.7696 2.85996C10.8531 2.60947 10.8758 2.34275 10.8359 2.08176C10.7961 1.82076 10.6948 1.57297 10.5404 1.35879C10.3861 1.14461 10.183 0.970161 9.94804 0.849822C9.71304 0.729484 9.45282 0.666694 9.1888 0.666626H9.0013L4.83464 5.19829V16.5H14.0013L17.2613 9.33663L17.3346 8.99996V7.33329C17.3346 6.89126 17.159 6.46734 16.8465 6.15478C16.5339 5.84222 16.11 5.66663 15.668 5.66663Z" fill="#444444"/>
</svg>
