<svg width="24" height="24" viewBox="0 0 24 24" fill="none" xmlns="http://www.w3.org/2000/svg">
<path d="M21.7626 11.3824C21.5234 12.3553 21.0935 13.271 20.4979 14.0766C19.9022 14.8822 19.1527 15.5615 18.2926 16.0754C17.4331 16.5885 16.4804 16.9258 15.4895 17.0677C14.4987 17.2097 13.4895 17.1535 12.5206 16.9024C12.3013 16.8424 12.0699 16.8424 11.8506 16.9024C11.6353 16.9503 11.4378 17.0577 11.2806 17.2124L7.01459 21.5024C6.85163 21.6583 6.66194 21.7836 6.45459 21.8724C6.24279 21.9609 6.01513 22.0051 5.78559 22.0024C5.55933 22.0047 5.33501 21.9605 5.12659 21.8724C4.91791 21.7861 4.72778 21.6605 4.56659 21.5024L2.49959 19.4324C2.33829 19.2738 2.21222 19.083 2.12959 18.8724C1.9568 18.4459 1.9568 17.9689 2.12959 17.5424C2.21222 17.3318 2.33829 17.141 2.49959 16.9824L6.77659 12.7024C6.93362 12.5494 7.0445 12.3553 7.09659 12.1424C7.15659 11.9334 7.15659 11.7124 7.09659 11.5024C6.75346 10.1893 6.76888 8.8082 7.14123 7.50311C7.51359 6.19801 8.22925 5.01671 9.21359 4.08237C10.1899 3.15383 11.3976 2.50454 12.7106 2.20237C14.0316 1.88597 15.414 1.93785 16.7076 2.35237C16.8317 2.38853 16.9442 2.45657 17.0339 2.54974C17.1235 2.64291 17.1872 2.75794 17.2186 2.88337C17.2499 3.00881 17.2479 3.14027 17.2126 3.26467C17.1774 3.38907 17.1101 3.50205 17.0176 3.59237L14.0996 6.52237C13.7463 6.90776 13.547 7.40959 13.5396 7.93237C13.5277 8.16133 13.6027 8.38632 13.7496 8.56237L15.4686 10.2924C15.598 10.3868 15.7465 10.4519 15.9037 10.483C16.0609 10.5141 16.223 10.5105 16.3786 10.4724C16.8026 10.4142 17.1992 10.2295 17.5166 9.94237L20.4346 7.01237C20.5273 6.92304 20.6406 6.85803 20.7645 6.82314C20.8883 6.78824 21.0189 6.78454 21.1446 6.81237C21.271 6.84324 21.3872 6.9065 21.4817 6.99593C21.5762 7.08536 21.6458 7.19787 21.6836 7.32237C22.0777 8.64344 22.1044 10.0468 21.7626 11.3824Z" fill="black"/>
</svg>
